<svg xmlns="http://www.w3.org/2000/svg" width="2804.91" height="728.993" viewBox="0 0 2804.91 728.993">
  <g id="pcsc" transform="translate(-6409.378 2527.69)">
    <g id="Group_1865" data-name="Group 1865" transform="translate(15993 -12826)">
      <path id="Subtraction_41" data-name="Subtraction 41" d="M322.138,728.992a52.983,52.983,0,0,1-32.674-11.262c-17.212-13.451-42.67-33.532-66.2-52.808-26.342-21.576-44.915-37.738-55.2-48.035-9.728-9.736-19.139-19.823-27.969-29.981-8.611-9.906-16.915-20.16-24.681-30.478-7.562-10.048-14.829-20.44-21.6-30.889-6.581-10.159-12.879-20.661-18.721-31.215-5.668-10.24-11.067-20.823-16.049-31.454-4.823-10.293-9.393-20.928-13.583-31.608-4.047-10.316-7.856-20.973-11.323-31.676-3.338-10.3-6.456-20.956-9.268-31.659C14.8,329.639,8.05,288.835,4.222,243.182c-1.573-18.765-2.666-38.4-3.341-60.037C.353,166.208.082,148.454,0,125.579a27.981,27.981,0,0,1,7.58-19.342,27.631,27.631,0,0,1,18.811-8.711A519.837,519.837,0,0,0,168.055,70.172a520.552,520.552,0,0,0,121.2-60.131,58.908,58.908,0,0,1,65.8,0A520.244,520.244,0,0,0,476.234,70.172,519.774,519.774,0,0,0,617.9,97.51a27.636,27.636,0,0,1,18.806,8.712,27.975,27.975,0,0,1,7.586,19.341c-.084,22.884-.357,40.639-.886,57.571-.676,21.636-1.77,41.275-3.344,60.041-3.831,45.656-10.584,86.462-20.645,124.748-2.812,10.7-5.931,21.354-9.269,31.659-3.467,10.7-7.277,21.363-11.323,31.677-4.191,10.682-8.761,21.317-13.583,31.609-4.982,10.632-10.382,21.215-16.049,31.454-5.841,10.554-12.14,21.056-18.721,31.215-6.77,10.45-14.036,20.843-21.6,30.89C521.1,566.746,512.8,577,504.188,586.906c-8.83,10.158-18.241,20.245-27.969,29.981-10.287,10.3-28.861,26.458-55.2,48.035-23.529,19.272-48.989,39.355-66.2,52.808a52.983,52.983,0,0,1-32.674,11.262ZM322.2,41.5a52.133,52.133,0,0,0-29.132,8.893,460.988,460.988,0,0,1-107.326,53.248,460.352,460.352,0,0,1-125.45,24.222,24.688,24.688,0,0,0-23.37,24.842c.228,64.165,2.137,138.957,22.017,214.608,22.449,85.427,63.926,157.542,126.8,220.464,20.946,20.963,76.35,64.948,107.512,89.3a46.949,46.949,0,0,0,57.868,0c31.161-24.353,86.565-68.337,107.512-89.3,62.875-62.922,104.353-135.037,126.8-220.466,19.878-75.641,21.793-150.443,22.027-214.619a24.689,24.689,0,0,0-23.371-24.842,460.313,460.313,0,0,1-125.449-24.21A460.652,460.652,0,0,1,351.333,50.394,52.133,52.133,0,0,0,322.2,41.5Z" transform="translate(-9583.622 10298.311)" fill="#fff"/>
      <path id="Subtraction_42" data-name="Subtraction 42" d="M4.369,546.09A39.653,39.653,0,0,1,0,545.848V.22C1.453.074,2.926,0,4.379,0A43.835,43.835,0,0,1,28.935,7.522a387.749,387.749,0,0,0,90.453,45.044,386.771,386.771,0,0,0,105.739,20.48,20.6,20.6,0,0,1,14.037,6.526,21,21,0,0,1,5.661,14.489c-.2,54.288-1.811,117.565-18.567,181.552a429.964,429.964,0,0,1-15.37,47.445A398.855,398.855,0,0,1,188.77,370.3a398.931,398.931,0,0,1-30.094,46.522c-5.8,7.729-11.995,15.411-18.422,22.831-6.592,7.61-13.616,15.167-20.877,22.459-7.679,7.713-21.542,19.82-41.2,35.984C60.6,512.539,41.6,527.579,28.757,537.654A39.453,39.453,0,0,1,4.369,546.09Z" transform="translate(-9265.208 10389.958)" fill="#fff"/>
    </g>
    <path id="Path_1834" data-name="Path 1834" d="M155.5-283.464V-434.5H238.08c58.776,0,84.816,28.272,84.816,75.888,0,46.128-26.04,75.144-84.816,75.144Zm274.536-75.144c0-90.024-62.5-160.7-187.488-160.7H51.336V0H155.5V-199.392h87.048C376.464-199.392,430.032-279.744,430.032-358.608Zm48.36,98.208c0,155.5,113.832,264.864,263.376,264.864,115.32,0,209.064-61.008,244.032-168.144H866.016c-24.552,50.592-69.192,75.144-124.992,75.144-90.768,0-155.5-66.96-155.5-171.864,0-105.648,64.728-171.864,155.5-171.864,55.8,0,100.44,24.552,124.992,74.4H985.8C950.832-464.256,857.088-526.008,741.768-526.008,592.224-526.008,478.392-415.9,478.392-260.4Zm959.76,110.112c0-183.024-266.352-124.992-266.352-229.152,0-42.408,30.5-62.5,71.424-61.008,44.64.744,72.168,27.528,74.4,61.752H1432.2c-6.7-93.744-79.608-148.056-186-148.056-107.136,0-183.024,56.544-183.024,150.288-.744,188.232,267.1,120.528,267.1,232.872,0,37.2-29.016,63.24-78.12,63.24-48.36,0-75.888-27.528-78.864-69.192h-111.6c1.488,98.208,84.816,154.752,192.7,154.752C1372.68,5.208,1438.152-68.448,1438.152-150.288ZM1502.88-260.4c0,155.5,113.832,264.864,263.376,264.864,115.32,0,209.064-61.008,244.032-168.144H1890.5c-24.552,50.592-69.192,75.144-124.992,75.144-90.768,0-155.5-66.96-155.5-171.864,0-105.648,64.728-171.864,155.5-171.864,55.8,0,100.44,24.552,124.992,74.4h119.784c-34.968-106.392-128.712-168.144-244.032-168.144C1616.712-526.008,1502.88-415.9,1502.88-260.4Z" transform="translate(7204 -1903)" fill="#fff"/>
  </g>
</svg>
