<svg xmlns="http://www.w3.org/2000/svg" xmlns:xlink="http://www.w3.org/1999/xlink" width="2106.303" height="720.908" viewBox="0 0 2106.303 720.908">
  <defs>
    <clipPath id="clip-path">
      <rect width="1400.226" height="720.908" fill="none"/>
    </clipPath>
  </defs>
  <g id="pcsc__white" transform="translate(10416.65 -9121)">
    <g id="Group_1632" data-name="Group 1632" transform="translate(-10416.65 9121)">
      <path id="Path_1569" data-name="Path 1569" d="M310.108,0C481.375,0,620.215,138.84,620.215,310.108S481.375,620.215,310.108,620.215,0,481.375,0,310.108,138.84,0,310.108,0Z" transform="translate(0 49.909)" fill="#39a3ed"/>
      <g id="Component_6_2" data-name="Component 6 – 2" transform="translate(706.077 0)" clip-path="url(#clip-path)">
        <path id="Path_1577" data-name="Path 1577" d="M61.253,44.031V-87.995h69.107c53.636,0,76.328,24.755,76.328,66.529,0,40.227-22.692,65.5-76.328,65.5Zm193.4-65.5c0-58.793-39.711-105.208-124.29-105.208H14.322V232.787H61.253V82.711h69.107C219.581,82.711,254.651,33.2,254.651-21.466ZM295.393,52.8c0,107.787,78.906,183.083,179.473,183.083,77.875,0,139.762-38.68,166.58-107.787H585.231c-19.6,42.805-57.761,67.044-110.365,67.044-75.3,0-131.51-54.667-131.51-142.341,0-88.189,56.214-142.856,131.51-142.856,52.6,0,90.768,24.239,110.365,67.56h56.214c-26.818-69.623-88.705-108.818-166.58-108.818C374.3-131.316,295.393-54.988,295.393,52.8Zm649.3,82c0-133.057-193.913-75.3-193.913-168.127,0-38.68,30.428-58.793,69.107-57.761C863.724-90.574,886.416-63.24,889.51-39h51.573c-5.673-54.667-50.541-92.315-119.133-92.315-71.17,0-119.133,40.227-119.133,99.535,0,133.573,194.429,71.686,194.429,168.643,0,34.038-26.818,59.824-72.2,59.824-50.026,0-71.17-29.912-74.265-59.824H700.754c1.031,59.309,52.088,99.535,124.29,99.535C902.919,236.4,944.693,185.856,944.693,134.8Zm51.573-82c0,107.787,78.906,183.083,179.473,183.083,77.875,0,139.762-38.68,166.58-107.787H1286.1c-19.6,42.805-57.761,67.044-110.365,67.044-75.3,0-131.51-54.667-131.51-142.341,0-88.189,56.214-142.856,131.51-142.856,52.6,0,90.768,24.239,110.365,67.56h56.214c-26.818-69.623-88.7-108.818-166.58-108.818C1075.172-131.316,996.266-54.988,996.266,52.8Z" transform="translate(25.389 307.894)" fill="#fff"/>
      </g>
      <path id="Path_1571" data-name="Path 1571" d="M-6194.1,5910l1.473,1.814,124.482,173.9s-14.559,89.074-69.318,151.113-149.729,97.047-149.729,97.047l-86.307-79.541Z" transform="translate(6684.11 -5675.349)" fill="#2f8eb2"/>
      <path id="Path_1568" data-name="Path 1568" d="M286.891,54.727a287.171,287.171,0,0,1-66.882-33.159,32.535,32.535,0,0,0-36.313,0,287.242,287.242,0,0,1-66.89,33.159A287.253,287.253,0,0,1,38.621,69.81,15.363,15.363,0,0,0,24.055,85.28c.294,82.5,5.381,183.568,92.75,270.93,12.826,12.826,46.085,39.274,67.006,55.61a29.287,29.287,0,0,0,36.066,0c20.92-16.336,54.18-42.784,67.006-55.61,87.37-87.362,92.456-188.431,92.758-270.938A15.368,15.368,0,0,0,365.076,69.8a287.206,287.206,0,0,1-78.185-15.076Z" transform="translate(114.551 160.839)" fill="#fff"/>
      <path id="Path_1570" data-name="Path 1570" d="M244.35,48.608a240.272,240.272,0,0,1-56.057-27.915,27.169,27.169,0,0,0-30.436,0,240.333,240.333,0,0,1-56.064,27.915,239.814,239.814,0,0,1-65.53,12.7A12.909,12.909,0,0,0,24.055,74.33c.246,69.453,4.51,154.54,77.738,228.088,10.75,10.8,38.626,33.064,56.161,46.816a24.461,24.461,0,0,0,30.228,0c17.534-13.753,45.411-36.019,56.16-46.816,73.229-73.547,77.492-158.634,77.745-228.094A12.914,12.914,0,0,0,309.88,61.3a239.774,239.774,0,0,1-65.53-12.692Z" transform="translate(142.603 192.579)" fill="#7bdf70"/>
      <path id="Path_1572" data-name="Path 1572" d="M149.132,95.941A39.832,39.832,0,1,0,89.384,130.4v38.564a19.916,19.916,0,0,0,39.832,0V130.4a39.778,39.778,0,0,0,19.916-34.461Z" transform="translate(206.329 247.006)" fill="#777"/>
    </g>
    <g id="Group_1633" data-name="Group 1633" transform="translate(-10416.65 9170.909)">
      <path id="Path_1569-2" data-name="Path 1569" d="M310.108,0C481.375,0,620.215,138.84,620.215,310.108S481.375,620.215,310.108,620.215,0,481.375,0,310.108,138.84,0,310.108,0Z" transform="translate(0 0)" fill="#1f487e"/>
      <path id="Path_1571-2" data-name="Path 1571" d="M-6189.3,5910l1.473,1.814,121.016,186.375s-16.637,85.953-76.943,149.727-141.408,82.488-141.408,82.488l-91.037-82.488Z" transform="translate(6679.314 -5722.485)" fill="#1d3461"/>
      <path id="Path_1568-2" data-name="Path 1568" d="M286.891,54.727a287.171,287.171,0,0,1-66.882-33.159,32.535,32.535,0,0,0-36.313,0,287.242,287.242,0,0,1-66.89,33.159A287.253,287.253,0,0,1,38.621,69.81,15.363,15.363,0,0,0,24.055,85.28c.294,82.5,5.381,183.568,92.75,270.93,12.826,12.826,46.085,39.274,67.006,55.61a29.287,29.287,0,0,0,36.066,0c20.92-16.336,54.18-42.784,67.006-55.61,87.37-87.362,92.456-188.431,92.758-270.938A15.368,15.368,0,0,0,365.076,69.8a287.206,287.206,0,0,1-78.185-15.076Z" transform="translate(114.551 110.93)" fill="#fff"/>
      <path id="Path_1570-2" data-name="Path 1570" d="M244.35,48.608a240.272,240.272,0,0,1-56.057-27.915,27.169,27.169,0,0,0-30.436,0,240.333,240.333,0,0,1-56.064,27.915,239.814,239.814,0,0,1-65.53,12.7A12.909,12.909,0,0,0,24.055,74.33c.246,69.453,4.51,154.54,77.738,228.088,10.75,10.8,38.626,33.064,56.161,46.816a24.461,24.461,0,0,0,30.228,0c17.534-13.753,45.411-36.019,56.16-46.816,73.229-73.547,77.492-158.634,77.745-228.094A12.914,12.914,0,0,0,309.88,61.3a239.774,239.774,0,0,1-65.53-12.692Z" transform="translate(142.603 142.67)" fill="#7bdf70"/>
      <path id="Path_1572-2" data-name="Path 1572" d="M149.132,95.941A39.832,39.832,0,1,0,89.384,130.4v38.564a19.916,19.916,0,0,0,39.832,0V130.4a39.778,39.778,0,0,0,19.916-34.461Z" transform="translate(206.329 197.097)" fill="#777"/>
    </g>
    <g id="Group_1635" data-name="Group 1635" transform="translate(-10416.65 9170.909)">
      <path id="Path_1569-3" data-name="Path 1569" d="M310.108,0C481.375,0,620.215,138.84,620.215,310.108S481.375,620.215,310.108,620.215,0,481.375,0,310.108,138.84,0,310.108,0Z" transform="translate(0 0)" fill="#1f487e"/>
      <path id="Path_1571-3" data-name="Path 1571" d="M-6189.3,5910l1.473,1.814,121.016,186.375s-16.637,85.953-76.943,149.727-141.408,82.488-141.408,82.488l-91.037-82.488Z" transform="translate(6679.314 -5722.485)" fill="#1d3461"/>
      <path id="Path_1568-3" data-name="Path 1568" d="M286.891,54.727a287.171,287.171,0,0,1-66.882-33.159,32.535,32.535,0,0,0-36.313,0,287.242,287.242,0,0,1-66.89,33.159A287.253,287.253,0,0,1,38.621,69.81,15.363,15.363,0,0,0,24.055,85.28c.294,82.5,5.381,183.568,92.75,270.93,12.826,12.826,46.085,39.274,67.006,55.61a29.287,29.287,0,0,0,36.066,0c20.92-16.336,54.18-42.784,67.006-55.61,87.37-87.362,92.456-188.431,92.758-270.938A15.368,15.368,0,0,0,365.076,69.8a287.206,287.206,0,0,1-78.185-15.076Z" transform="translate(114.551 110.93)" fill="#fff"/>
      <path id="Path_1570-3" data-name="Path 1570" d="M244.35,48.608a240.272,240.272,0,0,1-56.057-27.915,27.169,27.169,0,0,0-30.436,0,240.333,240.333,0,0,1-56.064,27.915,239.814,239.814,0,0,1-65.53,12.7A12.909,12.909,0,0,0,24.055,74.33c.246,69.453,4.51,154.54,77.738,228.088,10.75,10.8,38.626,33.064,56.161,46.816a24.461,24.461,0,0,0,30.228,0c17.534-13.753,45.411-36.019,56.16-46.816,73.229-73.547,77.492-158.634,77.745-228.094A12.914,12.914,0,0,0,309.88,61.3a239.774,239.774,0,0,1-65.53-12.692Z" transform="translate(142.603 142.67)" fill="#7bdf70"/>
      <path id="Path_1572-3" data-name="Path 1572" d="M149.132,95.941A39.832,39.832,0,1,0,89.384,130.4v38.564a19.916,19.916,0,0,0,39.832,0V130.4a39.778,39.778,0,0,0,19.916-34.461Z" transform="translate(206.329 197.097)" fill="#4d4d4d"/>
    </g>
  </g>
</svg>
