<svg xmlns="http://www.w3.org/2000/svg" width="759.651" height="260" viewBox="0 0 759.651 260">
  <g id="pcsc__white" transform="translate(10416.651 -9121)">
    <g id="Group_1632" data-name="Group 1632" transform="translate(-10404.288 9093.967)">
      <path id="Path_1569" data-name="Path 1569" d="M111.842,0A111.842,111.842,0,1,1,0,111.842,111.842,111.842,0,0,1,111.842,0Z" transform="translate(-12.363 45.033)" fill="#39a3ed"/>
      <text id="PCSC" transform="translate(242.288 222.033)" fill="#fff" font-size="186" font-family="Poppins-Regular, Poppins"><tspan x="0" y="0">PCSC</tspan></text>
      <path id="Path_1571" data-name="Path 1571" d="M-6308.8,5910l.531.654,44.9,62.717s-5.25,32.125-25,54.5-54,35-54,35l-31.127-28.687Z" transform="translate(6473.161 -5798.338)" fill="#2f8eb2"/>
      <path id="Path_1568" data-name="Path 1568" d="M118.848,29.987A103.57,103.57,0,0,1,94.727,18.028a11.734,11.734,0,0,0-13.1,0A103.6,103.6,0,0,1,57.506,29.987a103.6,103.6,0,0,1-28.2,5.44,5.541,5.541,0,0,0-5.253,5.579c.106,29.754,1.941,66.2,33.451,97.713,4.626,4.626,16.621,14.164,24.166,20.056a10.563,10.563,0,0,0,13.007,0c7.545-5.892,19.54-15.43,24.166-20.056C150.356,107.211,152.191,70.76,152.3,41a5.543,5.543,0,0,0-5.253-5.579,103.582,103.582,0,0,1-28.2-5.437Z" transform="translate(13.571 74.792)" fill="#fff"/>
      <path id="Path_1570" data-name="Path 1570" d="M103.506,27.78A86.656,86.656,0,0,1,83.289,17.712a9.8,9.8,0,0,0-10.977,0A86.678,86.678,0,0,1,52.092,27.78a86.491,86.491,0,0,1-23.634,4.58,4.656,4.656,0,0,0-4.4,4.7c.089,25.049,1.627,55.736,28.037,82.261,3.877,3.894,13.931,11.925,20.255,16.885a8.822,8.822,0,0,0,10.9,0c6.324-4.96,16.378-12.99,20.255-16.885,26.41-26.525,27.948-57.212,28.039-82.264a4.657,4.657,0,0,0-4.4-4.7,86.476,86.476,0,0,1-23.634-4.577Z" transform="translate(23.688 86.239)" fill="#7bdf70"/>
      <path id="Path_1572" data-name="Path 1572" d="M98.2,70.475A14.366,14.366,0,1,0,76.651,82.9V96.812a7.183,7.183,0,0,0,14.366,0V82.9A14.346,14.346,0,0,0,98.2,70.475Z" transform="translate(17.637 80.244)" fill="#777"/>
    </g>
    <g id="Group_1633" data-name="Group 1633" transform="translate(-10404.288 9093.967)">
      <path id="Path_1569-2" data-name="Path 1569" d="M111.842,0A111.842,111.842,0,1,1,0,111.842,111.842,111.842,0,0,1,111.842,0Z" transform="translate(-12.363 45.033)" fill="#1f487e"/>
      <path id="Path_1571-2" data-name="Path 1571" d="M-6308.8,5910l.531.654,43.645,67.217s-6,31-27.75,54-51,29.75-51,29.75l-32.833-29.75Z" transform="translate(6473.161 -5797.338)" fill="#1d3461"/>
      <path id="Path_1568-2" data-name="Path 1568" d="M118.848,29.987A103.57,103.57,0,0,1,94.727,18.028a11.734,11.734,0,0,0-13.1,0A103.6,103.6,0,0,1,57.506,29.987a103.6,103.6,0,0,1-28.2,5.44,5.541,5.541,0,0,0-5.253,5.579c.106,29.754,1.941,66.2,33.451,97.713,4.626,4.626,16.621,14.164,24.166,20.056a10.563,10.563,0,0,0,13.007,0c7.545-5.892,19.54-15.43,24.166-20.056C150.356,107.211,152.191,70.76,152.3,41a5.543,5.543,0,0,0-5.253-5.579,103.582,103.582,0,0,1-28.2-5.437Z" transform="translate(13.571 74.792)" fill="#fff"/>
      <path id="Path_1570-2" data-name="Path 1570" d="M103.506,27.78A86.656,86.656,0,0,1,83.289,17.712a9.8,9.8,0,0,0-10.977,0A86.678,86.678,0,0,1,52.092,27.78a86.491,86.491,0,0,1-23.634,4.58,4.656,4.656,0,0,0-4.4,4.7c.089,25.049,1.627,55.736,28.037,82.261,3.877,3.894,13.931,11.925,20.255,16.885a8.822,8.822,0,0,0,10.9,0c6.324-4.96,16.378-12.99,20.255-16.885,26.41-26.525,27.948-57.212,28.039-82.264a4.657,4.657,0,0,0-4.4-4.7,86.476,86.476,0,0,1-23.634-4.577Z" transform="translate(23.688 86.239)" fill="#7bdf70"/>
      <path id="Path_1572-2" data-name="Path 1572" d="M98.2,70.475A14.366,14.366,0,1,0,76.651,82.9V96.812a7.183,7.183,0,0,0,14.366,0V82.9A14.346,14.346,0,0,0,98.2,70.475Z" transform="translate(17.637 80.244)" fill="#777"/>
    </g>
    <g id="Group_1635" data-name="Group 1635" transform="translate(-10404.288 9093.967)">
      <path id="Path_1569-3" data-name="Path 1569" d="M111.842,0A111.842,111.842,0,1,1,0,111.842,111.842,111.842,0,0,1,111.842,0Z" transform="translate(-12.363 45.033)" fill="#1f487e"/>
      <path id="Path_1571-3" data-name="Path 1571" d="M-6308.8,5910l.531.654,43.645,67.217s-6,31-27.75,54-51,29.75-51,29.75l-32.833-29.75Z" transform="translate(6473.161 -5797.338)" fill="#1d3461"/>
      <path id="Path_1568-3" data-name="Path 1568" d="M118.848,29.987A103.57,103.57,0,0,1,94.727,18.028a11.734,11.734,0,0,0-13.1,0A103.6,103.6,0,0,1,57.506,29.987a103.6,103.6,0,0,1-28.2,5.44,5.541,5.541,0,0,0-5.253,5.579c.106,29.754,1.941,66.2,33.451,97.713,4.626,4.626,16.621,14.164,24.166,20.056a10.563,10.563,0,0,0,13.007,0c7.545-5.892,19.54-15.43,24.166-20.056C150.356,107.211,152.191,70.76,152.3,41a5.543,5.543,0,0,0-5.253-5.579,103.582,103.582,0,0,1-28.2-5.437Z" transform="translate(13.571 74.792)" fill="#fff"/>
      <path id="Path_1570-3" data-name="Path 1570" d="M103.506,27.78A86.656,86.656,0,0,1,83.289,17.712a9.8,9.8,0,0,0-10.977,0A86.678,86.678,0,0,1,52.092,27.78a86.491,86.491,0,0,1-23.634,4.58,4.656,4.656,0,0,0-4.4,4.7c.089,25.049,1.627,55.736,28.037,82.261,3.877,3.894,13.931,11.925,20.255,16.885a8.822,8.822,0,0,0,10.9,0c6.324-4.96,16.378-12.99,20.255-16.885,26.41-26.525,27.948-57.212,28.039-82.264a4.657,4.657,0,0,0-4.4-4.7,86.476,86.476,0,0,1-23.634-4.577Z" transform="translate(23.688 86.239)" fill="#7bdf70"/>
      <path id="Path_1572-3" data-name="Path 1572" d="M98.2,70.475A14.366,14.366,0,1,0,76.651,82.9V96.812a7.183,7.183,0,0,0,14.366,0V82.9A14.346,14.346,0,0,0,98.2,70.475Z" transform="translate(17.637 80.244)" fill="#777"/>
    </g>
  </g>
</svg>
