<svg id="step4" xmlns="http://www.w3.org/2000/svg" width="367.992" height="367.992" viewBox="0 0 367.992 367.992">
  <path id="Path_1841" data-name="Path 1841" d="M0,367.992V0H367.992V367.992Z" fill="none"/>
  <g id="Group_1870" data-name="Group 1870" transform="translate(64.027 38.874)">
    <g id="surface1">
      <path id="Path_1842" data-name="Path 1842" d="M286.034,18.169A11.025,11.025,0,0,0,274.6,29.6a11.433,11.433,0,1,0,22.867,0A10.985,10.985,0,0,0,286.034,18.169Zm-137.2,2.287c-33.961,0-60.758,12.041-78.551,34.282C52.47,76.961,43.645,108.922,43.645,148.51c0,28.744,7.628,73.924,7.628,73.924l.643,3.823h40.7c-5.288,1.965-10.808,4.127-16.525,6.7-11.076,4.949-22.242,10.915-30.906,17.972-8.664,7.074-15.256,15.56-15.256,25.636V304H267.74v-27.44c0-10.076-6.592-18.561-15.256-25.636-8.664-7.057-19.83-13.023-30.906-17.972-5.717-2.573-11.237-4.734-16.525-6.7h38.8l.875-3.448s9.29-36.426,9.29-83.446c0-29.495-7.878-54.416-20.366-72.173-11.987-17.043-28.494-27.315-46.091-28.137-.947-1.572-2.322-4.377-7.485-8.45-6.449-5.127-16.721-10.147-31.245-10.147Zm0,9.147c12.452,0,20.473,4.127,25.564,8.146a26.79,26.79,0,0,1,6.967,7.7l1.286,2.447h2.769c14.863,0,29.548,8.629,40.75,24.564,11.219,15.935,18.7,39.034,18.7,66.9,0,42.447-7.2,73.049-8.343,77.747H180.846v-8.736c14.6-10.737,22.867-28.852,22.867-49.039v-29.12c0-15.4-5-25.743-10.2-32.031a32.5,32.5,0,0,0-10.88-8.772l-2.787-1.161-2.162,2.072s-2.876,2.823-9.826,6-17.7,6.449-32.746,6.449c-8.718,0-18.615,4.395-26.761,12.219a46.485,46.485,0,0,0-14.4,33.746v10.612c0,20.169,8.271,38.3,22.867,49.021v8.736H59.741c-.947-5.842-6.949-43.483-6.949-68.6,0-38.231,8.575-68.029,24.618-88.055C93.452,40.41,116.98,29.6,148.833,29.6ZM185.42,52.469a4.573,4.573,0,1,0,4.573,4.573A4.582,4.582,0,0,0,185.42,52.469Zm91.5,0v68.6h18.293v-68.6Zm-91.5,18.293a4.573,4.573,0,1,0,4.573,4.573A4.582,4.582,0,0,0,185.42,70.762Zm-4.859,28.316c1.018.518,2.751,1.108,5.913,4.913,3.948,4.788,8.093,12.755,8.093,26.225v29.12c0,25.314-13.4,45.3-36.855,49.485l-1.3.214-.983.911a9.683,9.683,0,0,1-13.184,0l-.983-.911-1.3-.214C116.5,204.641,103.1,184.65,103.1,159.353V148.742a37.053,37.053,0,0,1,11.594-27.154c6.61-6.36,15.024-9.665,20.419-9.665,16.382,0,28.494-3.591,36.551-7.271a30.521,30.521,0,0,0,8.9-5.574Zm-56.881,40.285a6.86,6.86,0,1,0,6.86,6.86A6.862,6.862,0,0,0,123.679,139.363Zm50.307,0a6.86,6.86,0,1,0,6.86,6.86A6.862,6.862,0,0,0,173.986,139.363ZM171.7,213.717v22.849c-.554,1.108-6.5,12.559-22.867,12.559s-22.313-11.451-22.867-12.559V213.735a53.216,53.216,0,0,0,11.148,3.609,17.989,17.989,0,0,0,23.439,0,52.225,52.225,0,0,0,11.148-3.627Zm-54.88,14.059V239.1l.482.947s9.486,18.222,31.531,18.222,31.531-18.222,31.531-18.222l.482-.947V227.776a308.248,308.248,0,0,1,37.016,13.506c10.647,4.77,21.205,10.522,28.834,16.757,7.628,6.217,11.9,12.595,11.9,18.526v18.293H39.072V276.565c0-5.931,4.27-12.309,11.9-18.526C58.6,251.8,69.156,246.052,79.8,241.282a308.261,308.261,0,0,1,37.016-13.506ZM57.365,276.565a4.573,4.573,0,1,0,4.573,4.573A4.582,4.582,0,0,0,57.365,276.565Zm18.293,0a4.573,4.573,0,1,0,4.573,4.573A4.582,4.582,0,0,0,75.659,276.565Zm18.293,0a4.573,4.573,0,1,0,4.573,4.573A4.582,4.582,0,0,0,93.952,276.565Zm18.293,0a4.573,4.573,0,1,0,4.573,4.573A4.582,4.582,0,0,0,112.246,276.565Zm18.293,0a4.573,4.573,0,1,0,4.573,4.573A4.582,4.582,0,0,0,130.539,276.565Zm18.293,0a4.573,4.573,0,1,0,4.573,4.573A4.582,4.582,0,0,0,148.833,276.565Zm18.293,0a4.573,4.573,0,1,0,4.573,4.573A4.582,4.582,0,0,0,167.126,276.565Zm18.293,0a4.573,4.573,0,1,0,4.573,4.573A4.582,4.582,0,0,0,185.42,276.565Zm18.293,0a4.573,4.573,0,1,0,4.573,4.573A4.582,4.582,0,0,0,203.713,276.565Zm18.293,0a4.573,4.573,0,1,0,4.573,4.573A4.582,4.582,0,0,0,222.007,276.565Zm18.293,0a4.573,4.573,0,1,0,4.573,4.573A4.582,4.582,0,0,0,240.3,276.565Z" transform="translate(-29.925 -18.169)" fill="#878787"/>
    </g>
  </g>
</svg>
