<svg id="step1" xmlns="http://www.w3.org/2000/svg" width="335.992" height="335.992" viewBox="0 0 335.992 335.992">
  <path id="Path_1835" data-name="Path 1835" d="M0,335.992V0H335.992V335.992Z" fill="none"/>
  <g id="Group_1867" data-name="Group 1867" transform="translate(10.439 20.878)">
    <path id="Path_1836" data-name="Path 1836" d="M78.418,10.687A10.45,10.45,0,0,0,67.979,21.127V42.005A10.45,10.45,0,0,0,57.54,52.444V73.323A10.45,10.45,0,0,0,47.1,83.762v52.278a15.532,15.532,0,0,0-12.774,8.574L8.1,197.064a26.266,26.266,0,0,0-2.753,11.673v78.59A15.678,15.678,0,0,0,21,302.985H302.86a15.678,15.678,0,0,0,15.659-15.659v-78.59a26.266,26.266,0,0,0-2.753-11.673l-26.23-52.451a15.54,15.54,0,0,0-12.774-8.574V83.762a10.45,10.45,0,0,0-10.439-10.439V52.444a10.45,10.45,0,0,0-10.439-10.439V21.127a10.45,10.45,0,0,0-10.439-10.439Zm0,10.439H245.445V42.005H78.418ZM67.979,52.444H255.884V73.323H67.979ZM57.54,83.762H266.323V193.373a5.22,5.22,0,0,0,10.439,0v-46.8a5.163,5.163,0,0,1,3.436,2.712l26.23,52.461a15.64,15.64,0,0,1,1.652,6.993v.3H213.23a15.553,15.553,0,0,0-11.071,4.588L187.4,228.381a5.184,5.184,0,0,1-3.69,1.529H140.156a5.208,5.208,0,0,1-3.7-1.529L121.7,213.62a15.526,15.526,0,0,0-11.071-4.588H15.783v-.3a15.7,15.7,0,0,1,1.652-7l26.23-52.451A5.177,5.177,0,0,1,47.1,146.56v46.813a5.22,5.22,0,0,0,10.439,0Zm26.1,20.878a5.22,5.22,0,0,0,0,10.439h52.2a5.22,5.22,0,1,0,0-10.439Zm73.074,0a5.22,5.22,0,0,0,0,10.439H188.03a5.22,5.22,0,1,0,0-10.439ZM83.638,125.519a5.22,5.22,0,0,0,0,10.439h78.294a5.22,5.22,0,1,0,0-10.439ZM15.783,219.472h94.85a5.184,5.184,0,0,1,3.69,1.529l14.762,14.762a15.535,15.535,0,0,0,11.071,4.588h43.551a15.576,15.576,0,0,0,11.081-4.588L209.54,221a5.175,5.175,0,0,1,3.69-1.529h94.85v67.855a5.228,5.228,0,0,1-5.22,5.22H21a5.228,5.228,0,0,1-5.22-5.22Zm15.659,31.317a5.222,5.222,0,0,0-5.22,5.22v10.439a5.22,5.22,0,0,0,10.439,0V256.009a5.222,5.222,0,0,0-5.22-5.22Zm26.1,0a5.222,5.222,0,0,0-5.22,5.22v10.439a5.22,5.22,0,1,0,10.439,0V256.009a5.222,5.222,0,0,0-5.22-5.22Zm26.1,0a5.222,5.222,0,0,0-5.22,5.22v10.439a5.22,5.22,0,0,0,10.439,0V256.009a5.222,5.222,0,0,0-5.22-5.22Zm26.1,0a5.222,5.222,0,0,0-5.22,5.22v10.439a5.22,5.22,0,0,0,10.439,0V256.009a5.222,5.222,0,0,0-5.22-5.22Zm26.1,0a5.222,5.222,0,0,0-5.22,5.22v10.439a5.22,5.22,0,0,0,10.439,0V256.009a5.222,5.222,0,0,0-5.22-5.22Zm26.1,0a5.222,5.222,0,0,0-5.22,5.22v10.439a5.22,5.22,0,0,0,10.439,0V256.009a5.222,5.222,0,0,0-5.22-5.22Zm26.1,0a5.222,5.222,0,0,0-5.22,5.22v10.439a5.22,5.22,0,0,0,10.439,0V256.009a5.222,5.222,0,0,0-5.22-5.22Zm26.1,0a5.222,5.222,0,0,0-5.22,5.22v10.439a5.22,5.22,0,0,0,10.439,0V256.009a5.222,5.222,0,0,0-5.22-5.22Zm26.1,0a5.222,5.222,0,0,0-5.22,5.22v10.439a5.22,5.22,0,1,0,10.439,0V256.009a5.222,5.222,0,0,0-5.22-5.22Zm26.1,0a5.222,5.222,0,0,0-5.22,5.22v10.439a5.22,5.22,0,1,0,10.439,0V256.009A5.222,5.222,0,0,0,266.324,250.789Zm26.1,0a5.222,5.222,0,0,0-5.22,5.22v10.439a5.22,5.22,0,1,0,10.439,0V256.009A5.222,5.222,0,0,0,292.422,250.789Z" transform="translate(-5.344 -10.687)" fill="#878787"/>
  </g>
</svg>
