<svg id="dummy_icon" data-name="dummy icon" xmlns="http://www.w3.org/2000/svg" width="96.508" height="96.508" viewBox="0 0 96.508 96.508">
  <path id="Path_1550" data-name="Path 1550" d="M0,96.508V0H96.508V96.508Z" transform="translate(0)" fill="none"/>
  <g id="Group_1608" data-name="Group 1608" transform="translate(0 9.595)">
    <path id="Path_1551" data-name="Path 1551" d="M21.114,17.1c-2.923,0-5.122,3.2-5.122,3.2C-.752,20.3,8.486,47.024,3.567,50.964c0,0,3.015,3.729,12.425,3.729v3.192C13.392,64.66,0,62.156,0,74.671H25.662c2.252-1.363,9.52-5.141,9.52-5.141a27.623,27.623,0,0,1-5.154-7.49c-2-1-3.683-2.178-4.441-4.154v-3.23a22.378,22.378,0,0,0,3.03-.281c-1.426-2.2-2.63-7.206-2.63-10.014a20,20,0,0,1,8.177-16.7C32.626,21.775,29.209,17.1,21.114,17.1Zm52.448,0c-7.11,0-11.476,4.891-12.531,11.3,5.169,2.77,8.533,8.741,8.533,16.261a20.236,20.236,0,0,1-1.143,6.366,11.748,11.748,0,0,1,.344,2.9c0,7.9-8,15.779-8,15.779,1.737.758,7.293,3.581,9.564,4.96H95.951c0-16.791-13.635-11.994-15.992-19.19v-4.8c1.062-.534,3.591-4.212,3.911-7.084.832-.064,2.486-2.1,2.486-3.917s-.579-2.586-1.081-2.88a14.4,14.4,0,0,0,1.081-5.31c0-5.824-1.574-11.194-6.4-11.194,0,0-1.385-3.2-6.4-3.2ZM47.976,29.894c-8.61,0-15.592,5.186-15.592,14.468a13.229,13.229,0,0,0,2.2,6.984s-1,.491-1,2.586c0,4.072,2.617,5.047,2.617,5.047.365,3.224,5.379,7.946,5.379,7.946v5.391c-2.693,8.079-19.19,2.755-19.19,21.545H73.563c0-18.854-16.5-13.466-19.19-21.545V66.925s5.014-4.722,5.379-7.946a6.554,6.554,0,0,0,2.617-5.047c0-2.245-1-2.586-1-2.586a16.842,16.842,0,0,0,1.8-6.684c0-6.541-3.282-11.569-8.8-11.569a8.49,8.49,0,0,0-6.4-3.2Z" transform="translate(0 -17.1)" fill="#fff"/>
  </g>
</svg>
