<svg xmlns="http://www.w3.org/2000/svg" xmlns:xlink="http://www.w3.org/1999/xlink" width="60" height="60" viewBox="0 0 60 60">
  <defs>
    <filter id="Path_1540" x="0" y="0" width="60" height="60" filterUnits="userSpaceOnUse">
      <feOffset dy="3" input="SourceAlpha"/>
      <feGaussianBlur stdDeviation="3" result="blur"/>
      <feFlood flood-color="#7a7a7a" flood-opacity="0.4"/>
      <feComposite operator="in" in2="blur"/>
      <feComposite in="SourceGraphic"/>
    </filter>
  </defs>
  <g id="Group_1622" data-name="Group 1622" transform="translate(9 6)">
    <g id="surface1">
      <g transform="matrix(1, 0, 0, 1, -9, -6)" filter="url(#Path_1540)">
        <path id="Path_1540-2" data-name="Path 1540" d="M56.25,35.25a21,21,0,1,1-21-21A21,21,0,0,1,56.25,35.25Z" transform="translate(-5.25 -8.25)" fill="#ede7f6"/>
      </g>
      <path id="Path_1541" data-name="Path 1541" d="M55.524,124.217a20.224,20.224,0,0,0,12.412-4.24c-.623-8.058-8.553-9.54-8.553-9.54l-3.859.849-3.859-.849s-7.93,1.482-8.553,9.54A20.224,20.224,0,0,0,55.524,124.217Z" transform="translate(-34.524 -82.217)" fill="#673ab7"/>
      <path id="Path_1542" data-name="Path 1542" d="M70.231,116.8a6.228,6.228,0,0,0,6.252-5.619,13.089,13.089,0,0,0-2.12-.741,4.16,4.16,0,0,1-4.24,4.132,4.23,4.23,0,0,1-4.24-4.132,13.372,13.372,0,0,0-2.12.741A6.6,6.6,0,0,0,70.231,116.8Z" transform="translate(-49.229 -82.135)" fill="#311b92"/>
      <path id="Path_1543" data-name="Path 1543" d="M73.96,76.4a1.59,1.59,0,1,1-1.59-1.59,1.629,1.629,0,0,1,1.59,1.59m-13.78,0a1.59,1.59,0,1,0-1.59,1.59,1.629,1.629,0,0,0,1.59-1.59" transform="translate(-44.48 -56.976)" fill="#ffa726"/>
      <path id="Path_1544" data-name="Path 1544" d="M75.49,104.668c-4.24,0-4.24-4.24-4.24-4.24v-4.24h8.48v4.24S79.73,104.668,75.49,104.668Z" transform="translate(-54.49 -72.095)" fill="#ff9800"/>
      <path id="Path_1545" data-name="Path 1545" d="M75.4,57.41c0-6.252-14.84-4.029-14.84,0v4.666a7.421,7.421,0,0,0,14.84,0Z" transform="translate(-46.983 -42.005)" fill="#ffb74d"/>
      <path id="Path_1546" data-name="Path 1546" d="M65.48,39.187A8.673,8.673,0,0,0,57,47.879v1.909l2.12,2.12v-4.24l9.751-3.18,2.969,3.18v4.24l2.12-2.12v-.849c0-3.391-.849-7.209-5.089-8.053l-.849-1.7Z" transform="translate(-44.48 -31.867)" fill="#424242"/>
      <path id="Path_1547" data-name="Path 1547" d="M77.61,75.872a1.06,1.06,0,1,1,1.06,1.06,1,1,0,0,1-1.06-1.06m-6.36,0a1.06,1.06,0,1,0,1.06-1.06,1,1,0,0,0-1.06,1.06" transform="translate(-54.49 -56.971)" fill="#784719"/>
    </g>
  </g>
</svg>
