<svg version="1.1" id="Layer_1" xmlns="http://www.w3.org/2000/svg" xmlns:xlink="http://www.w3.org/1999/xlink" x="0px" y="0px"
	 viewBox="0 0 30 30" style="enable-background:new 0 0 30 30;" xml:space="preserve" width="50px" height="50px">
<style type="text/css">
	.st0{fill:none;}
	.st1{fill:url(#SVGID_1_);}
	.st2{fill:#FFFFFF;}
</style>
<g>
	<path class="st0" d="M29.1,39.2v-30h30v30H29.1z"/>
	<g>
		<linearGradient id="SVGID_1_" gradientUnits="userSpaceOnUse" x1="2.5" y1="15" x2="27.5" y2="15">
			<stop  offset="0" style="stop-color:#E09B3D"/>
			<stop  offset="0.3" style="stop-color:#C74C4D"/>
			<stop  offset="0.6" style="stop-color:#C21975"/>
			<stop  offset="1" style="stop-color:#7024C4"/>
		</linearGradient>
		<circle class="st1" cx="15" cy="15" r="12.5"/>
	</g>
</g>
<g>
	<path class="st2" d="M18,7.7H12c-2.4,0-4.4,2-4.4,4.4V18c0,2.4,2,4.4,4.4,4.4H18c2.4,0,4.4-2,4.4-4.4V12C22.3,9.6,20.4,7.7,18,7.7z
		 M20.8,18c0,1.6-1.3,2.9-2.9,2.9H12c-1.6,0-2.9-1.3-2.9-2.9V12c0-1.6,1.3-2.9,2.9-2.9H18c1.6,0,2.9,1.3,2.9,2.9V18L20.8,18z"/>
	<path class="st2" d="M15,11.2c-2.1,0-3.8,1.7-3.8,3.8s1.7,3.8,3.8,3.8s3.8-1.7,3.8-3.8S17.1,11.2,15,11.2z M15,17.3
		c-1.3,0-2.3-1-2.3-2.3s1-2.3,2.3-2.3c1.3,0,2.3,1,2.3,2.3C17.3,16.3,16.3,17.3,15,17.3z"/>
	<circle class="st2" cx="18.8" cy="11.2" r="0.9"/>
</g>
</svg>
