<svg xmlns="http://www.w3.org/2000/svg" xmlns:xlink="http://www.w3.org/1999/xlink" width="1147.668" height="705" viewBox="0 0 1147.668 705">
  <defs>
    <linearGradient id="linear-gradient" x1="0.511" y1="0.575" x2="0.076" y2="1.051" gradientUnits="objectBoundingBox">
      <stop offset="0" stop-color="#135e92"/>
      <stop offset="1" stop-color="#0a1a36"/>
    </linearGradient>
    <clipPath id="clip-path">
      <rect width="684" height="1120" fill="none"/>
    </clipPath>
    <clipPath id="clip-path-2">
      <rect width="994" height="694" fill="none"/>
    </clipPath>
    <clipPath id="clip-path-3">
      <rect width="141" height="118" fill="none"/>
    </clipPath>
  </defs>
  <g id="animated__banner2" transform="translate(27.668 31)">
    <g id="Group_1619" data-name="Group 1619" transform="translate(0 -21)">
      <path id="Path_1555" data-name="Path 1555" d="M-13301,5460h995.667s-45.667-66-110.667-90.667-86.333,11.333-152-8-69.667-56-131.667-77.667-120.917-8.083-228-86.667-78.583-170.083-177.333-242.667-217.667-47.667-217.667-47.667V5460Z" transform="translate(13295 -4765)" fill="url(#linear-gradient)"/>
      <g id="Repeat_Grid_6" data-name="Repeat Grid 6" transform="translate(1120 -10) rotate(90)" opacity="0.19" clip-path="url(#clip-path)">
        <g transform="translate(-134 -102)">
          <rect id="Rectangle_245" data-name="Rectangle 245" width="1" height="600" transform="translate(134 102)" fill="rgba(242,197,197,0.56)"/>
        </g>
        <g transform="translate(18 -102)">
          <rect id="Rectangle_245-2" data-name="Rectangle 245" width="1" height="600" transform="translate(134 102)" fill="rgba(242,197,197,0.56)"/>
        </g>
        <g transform="translate(170 -102)">
          <rect id="Rectangle_245-3" data-name="Rectangle 245" width="1" height="600" transform="translate(134 102)" fill="rgba(242,197,197,0.56)"/>
        </g>
        <g transform="translate(322 -102)">
          <rect id="Rectangle_245-4" data-name="Rectangle 245" width="1" height="600" transform="translate(134 102)" fill="rgba(242,197,197,0.56)"/>
        </g>
        <g transform="translate(474 -102)">
          <rect id="Rectangle_245-5" data-name="Rectangle 245" width="1" height="600" transform="translate(134 102)" fill="rgba(242,197,197,0.56)"/>
        </g>
        <g transform="translate(-134 496)">
          <rect id="Rectangle_245-6" data-name="Rectangle 245" width="1" height="600" transform="translate(134 102)" fill="rgba(242,197,197,0.56)"/>
        </g>
        <g transform="translate(18 496)">
          <rect id="Rectangle_245-7" data-name="Rectangle 245" width="1" height="600" transform="translate(134 102)" fill="rgba(242,197,197,0.56)"/>
        </g>
        <g transform="translate(170 496)">
          <rect id="Rectangle_245-8" data-name="Rectangle 245" width="1" height="600" transform="translate(134 102)" fill="rgba(242,197,197,0.56)"/>
        </g>
        <g transform="translate(322 496)">
          <rect id="Rectangle_245-9" data-name="Rectangle 245" width="1" height="600" transform="translate(134 102)" fill="rgba(242,197,197,0.56)"/>
        </g>
        <g transform="translate(474 496)">
          <rect id="Rectangle_245-10" data-name="Rectangle 245" width="1" height="600" transform="translate(134 102)" fill="rgba(242,197,197,0.56)"/>
        </g>
      </g>
      <g id="Repeat_Grid_5" data-name="Repeat Grid 5" transform="translate(106 -3)" opacity="0.13" clip-path="url(#clip-path-2)">
        <g transform="translate(-134 -102)">
          <rect id="Rectangle_245-11" data-name="Rectangle 245" width="1" height="600" transform="translate(134 102)" fill="rgba(242,197,197,0.56)"/>
        </g>
        <g transform="translate(22 -102)">
          <rect id="Rectangle_245-12" data-name="Rectangle 245" width="1" height="600" transform="translate(134 102)" fill="rgba(242,197,197,0.56)"/>
        </g>
        <g transform="translate(178 -102)">
          <rect id="Rectangle_245-13" data-name="Rectangle 245" width="1" height="600" transform="translate(134 102)" fill="rgba(242,197,197,0.56)"/>
        </g>
        <g transform="translate(334 -102)">
          <rect id="Rectangle_245-14" data-name="Rectangle 245" width="1" height="600" transform="translate(134 102)" fill="rgba(242,197,197,0.56)"/>
        </g>
        <g transform="translate(490 -102)">
          <rect id="Rectangle_245-15" data-name="Rectangle 245" width="1" height="600" transform="translate(134 102)" fill="rgba(242,197,197,0.56)"/>
        </g>
        <g transform="translate(646 -102)">
          <rect id="Rectangle_245-16" data-name="Rectangle 245" width="1" height="600" transform="translate(134 102)" fill="rgba(242,197,197,0.56)"/>
        </g>
        <g transform="translate(802 -102)">
          <rect id="Rectangle_245-17" data-name="Rectangle 245" width="1" height="600" transform="translate(134 102)" fill="rgba(242,197,197,0.56)"/>
        </g>
        <g transform="translate(-134 496)">
          <rect id="Rectangle_245-18" data-name="Rectangle 245" width="1" height="600" transform="translate(134 102)" fill="rgba(242,197,197,0.56)"/>
        </g>
        <g transform="translate(22 496)">
          <rect id="Rectangle_245-19" data-name="Rectangle 245" width="1" height="600" transform="translate(134 102)" fill="rgba(242,197,197,0.56)"/>
        </g>
        <g transform="translate(178 496)">
          <rect id="Rectangle_245-20" data-name="Rectangle 245" width="1" height="600" transform="translate(134 102)" fill="rgba(242,197,197,0.56)"/>
        </g>
        <g transform="translate(334 496)">
          <rect id="Rectangle_245-21" data-name="Rectangle 245" width="1" height="600" transform="translate(134 102)" fill="rgba(242,197,197,0.56)"/>
        </g>
        <g transform="translate(490 496)">
          <rect id="Rectangle_245-22" data-name="Rectangle 245" width="1" height="600" transform="translate(134 102)" fill="rgba(242,197,197,0.56)"/>
        </g>
        <g transform="translate(646 496)">
          <rect id="Rectangle_245-23" data-name="Rectangle 245" width="1" height="600" transform="translate(134 102)" fill="rgba(242,197,197,0.56)"/>
        </g>
        <g transform="translate(802 496)">
          <rect id="Rectangle_245-24" data-name="Rectangle 245" width="1" height="600" transform="translate(134 102)" fill="rgba(242,197,197,0.56)"/>
        </g>
      </g>
      <g id="Repeat_Grid_7" data-name="Repeat Grid 7" transform="translate(123 314)" clip-path="url(#clip-path-3)">
        <g transform="translate(-126 -326)">
          <g id="Ellipse_141" data-name="Ellipse 141" transform="translate(126 326)" fill="none" stroke="#435785" stroke-width="1">
            <circle cx="6" cy="6" r="6" stroke="none"/>
            <circle cx="6" cy="6" r="5.5" fill="none"/>
          </g>
        </g>
        <g transform="translate(-88 -326)">
          <g id="Ellipse_141-2" data-name="Ellipse 141" transform="translate(126 326)" fill="none" stroke="#435785" stroke-width="1">
            <circle cx="6" cy="6" r="6" stroke="none"/>
            <circle cx="6" cy="6" r="5.5" fill="none"/>
          </g>
        </g>
        <g transform="translate(-50 -326)">
          <g id="Ellipse_141-3" data-name="Ellipse 141" transform="translate(126 326)" fill="none" stroke="#435785" stroke-width="1">
            <circle cx="6" cy="6" r="6" stroke="none"/>
            <circle cx="6" cy="6" r="5.5" fill="none"/>
          </g>
        </g>
        <g transform="translate(-12 -326)">
          <g id="Ellipse_141-4" data-name="Ellipse 141" transform="translate(126 326)" fill="none" stroke="#435785" stroke-width="1">
            <circle cx="6" cy="6" r="6" stroke="none"/>
            <circle cx="6" cy="6" r="5.5" fill="none"/>
          </g>
        </g>
        <g transform="translate(-126 -294)">
          <g id="Ellipse_141-5" data-name="Ellipse 141" transform="translate(126 326)" fill="none" stroke="#435785" stroke-width="1">
            <circle cx="6" cy="6" r="6" stroke="none"/>
            <circle cx="6" cy="6" r="5.5" fill="none"/>
          </g>
        </g>
        <g transform="translate(-88 -294)">
          <g id="Ellipse_141-6" data-name="Ellipse 141" transform="translate(126 326)" fill="none" stroke="#435785" stroke-width="1">
            <circle cx="6" cy="6" r="6" stroke="none"/>
            <circle cx="6" cy="6" r="5.5" fill="none"/>
          </g>
        </g>
        <g transform="translate(-50 -294)">
          <g id="Ellipse_141-7" data-name="Ellipse 141" transform="translate(126 326)" fill="none" stroke="#435785" stroke-width="1">
            <circle cx="6" cy="6" r="6" stroke="none"/>
            <circle cx="6" cy="6" r="5.5" fill="none"/>
          </g>
        </g>
        <g transform="translate(-12 -294)">
          <g id="Ellipse_141-8" data-name="Ellipse 141" transform="translate(126 326)" fill="none" stroke="#435785" stroke-width="1">
            <circle cx="6" cy="6" r="6" stroke="none"/>
            <circle cx="6" cy="6" r="5.5" fill="none"/>
          </g>
        </g>
        <g transform="translate(-126 -262)">
          <g id="Ellipse_141-9" data-name="Ellipse 141" transform="translate(126 326)" fill="none" stroke="#435785" stroke-width="1">
            <circle cx="6" cy="6" r="6" stroke="none"/>
            <circle cx="6" cy="6" r="5.5" fill="none"/>
          </g>
        </g>
        <g transform="translate(-88 -262)">
          <g id="Ellipse_141-10" data-name="Ellipse 141" transform="translate(126 326)" fill="none" stroke="#435785" stroke-width="1">
            <circle cx="6" cy="6" r="6" stroke="none"/>
            <circle cx="6" cy="6" r="5.5" fill="none"/>
          </g>
        </g>
        <g transform="translate(-50 -262)">
          <g id="Ellipse_141-11" data-name="Ellipse 141" transform="translate(126 326)" fill="none" stroke="#435785" stroke-width="1">
            <circle cx="6" cy="6" r="6" stroke="none"/>
            <circle cx="6" cy="6" r="5.5" fill="none"/>
          </g>
        </g>
        <g transform="translate(-12 -262)">
          <g id="Ellipse_141-12" data-name="Ellipse 141" transform="translate(126 326)" fill="none" stroke="#435785" stroke-width="1">
            <circle cx="6" cy="6" r="6" stroke="none"/>
            <circle cx="6" cy="6" r="5.5" fill="none"/>
          </g>
        </g>
        <g transform="translate(-126 -230)">
          <g id="Ellipse_141-13" data-name="Ellipse 141" transform="translate(126 326)" fill="none" stroke="#435785" stroke-width="1">
            <circle cx="6" cy="6" r="6" stroke="none"/>
            <circle cx="6" cy="6" r="5.5" fill="none"/>
          </g>
        </g>
        <g transform="translate(-88 -230)">
          <g id="Ellipse_141-14" data-name="Ellipse 141" transform="translate(126 326)" fill="none" stroke="#435785" stroke-width="1">
            <circle cx="6" cy="6" r="6" stroke="none"/>
            <circle cx="6" cy="6" r="5.5" fill="none"/>
          </g>
        </g>
        <g transform="translate(-50 -230)">
          <g id="Ellipse_141-15" data-name="Ellipse 141" transform="translate(126 326)" fill="none" stroke="#435785" stroke-width="1">
            <circle cx="6" cy="6" r="6" stroke="none"/>
            <circle cx="6" cy="6" r="5.5" fill="none"/>
          </g>
        </g>
        <g transform="translate(-12 -230)">
          <g id="Ellipse_141-16" data-name="Ellipse 141" transform="translate(126 326)" fill="none" stroke="#435785" stroke-width="1">
            <circle cx="6" cy="6" r="6" stroke="none"/>
            <circle cx="6" cy="6" r="5.5" fill="none"/>
          </g>
        </g>
      </g>
      <g id="Repeat_Grid_8" data-name="Repeat Grid 8" transform="translate(587 161)" clip-path="url(#clip-path-3)">
        <g transform="translate(-126 -326)">
          <g id="Ellipse_141-17" data-name="Ellipse 141" transform="translate(126 326)" fill="none" stroke="#435785" stroke-width="1">
            <circle cx="6" cy="6" r="6" stroke="none"/>
            <circle cx="6" cy="6" r="5.5" fill="none"/>
          </g>
        </g>
        <g transform="translate(-88 -326)">
          <g id="Ellipse_141-18" data-name="Ellipse 141" transform="translate(126 326)" fill="none" stroke="#435785" stroke-width="1">
            <circle cx="6" cy="6" r="6" stroke="none"/>
            <circle cx="6" cy="6" r="5.5" fill="none"/>
          </g>
        </g>
        <g transform="translate(-50 -326)">
          <g id="Ellipse_141-19" data-name="Ellipse 141" transform="translate(126 326)" fill="none" stroke="#435785" stroke-width="1">
            <circle cx="6" cy="6" r="6" stroke="none"/>
            <circle cx="6" cy="6" r="5.5" fill="none"/>
          </g>
        </g>
        <g transform="translate(-12 -326)">
          <g id="Ellipse_141-20" data-name="Ellipse 141" transform="translate(126 326)" fill="none" stroke="#435785" stroke-width="1">
            <circle cx="6" cy="6" r="6" stroke="none"/>
            <circle cx="6" cy="6" r="5.5" fill="none"/>
          </g>
        </g>
        <g transform="translate(-126 -294)">
          <g id="Ellipse_141-21" data-name="Ellipse 141" transform="translate(126 326)" fill="none" stroke="#435785" stroke-width="1">
            <circle cx="6" cy="6" r="6" stroke="none"/>
            <circle cx="6" cy="6" r="5.5" fill="none"/>
          </g>
        </g>
        <g transform="translate(-88 -294)">
          <g id="Ellipse_141-22" data-name="Ellipse 141" transform="translate(126 326)" fill="none" stroke="#435785" stroke-width="1">
            <circle cx="6" cy="6" r="6" stroke="none"/>
            <circle cx="6" cy="6" r="5.5" fill="none"/>
          </g>
        </g>
        <g transform="translate(-50 -294)">
          <g id="Ellipse_141-23" data-name="Ellipse 141" transform="translate(126 326)" fill="none" stroke="#435785" stroke-width="1">
            <circle cx="6" cy="6" r="6" stroke="none"/>
            <circle cx="6" cy="6" r="5.5" fill="none"/>
          </g>
        </g>
        <g transform="translate(-12 -294)">
          <g id="Ellipse_141-24" data-name="Ellipse 141" transform="translate(126 326)" fill="none" stroke="#435785" stroke-width="1">
            <circle cx="6" cy="6" r="6" stroke="none"/>
            <circle cx="6" cy="6" r="5.5" fill="none"/>
          </g>
        </g>
        <g transform="translate(-126 -262)">
          <g id="Ellipse_141-25" data-name="Ellipse 141" transform="translate(126 326)" fill="none" stroke="#435785" stroke-width="1">
            <circle cx="6" cy="6" r="6" stroke="none"/>
            <circle cx="6" cy="6" r="5.5" fill="none"/>
          </g>
        </g>
        <g transform="translate(-88 -262)">
          <g id="Ellipse_141-26" data-name="Ellipse 141" transform="translate(126 326)" fill="none" stroke="#435785" stroke-width="1">
            <circle cx="6" cy="6" r="6" stroke="none"/>
            <circle cx="6" cy="6" r="5.5" fill="none"/>
          </g>
        </g>
        <g transform="translate(-50 -262)">
          <g id="Ellipse_141-27" data-name="Ellipse 141" transform="translate(126 326)" fill="none" stroke="#435785" stroke-width="1">
            <circle cx="6" cy="6" r="6" stroke="none"/>
            <circle cx="6" cy="6" r="5.5" fill="none"/>
          </g>
        </g>
        <g transform="translate(-12 -262)">
          <g id="Ellipse_141-28" data-name="Ellipse 141" transform="translate(126 326)" fill="none" stroke="#435785" stroke-width="1">
            <circle cx="6" cy="6" r="6" stroke="none"/>
            <circle cx="6" cy="6" r="5.5" fill="none"/>
          </g>
        </g>
        <g transform="translate(-126 -230)">
          <g id="Ellipse_141-29" data-name="Ellipse 141" transform="translate(126 326)" fill="none" stroke="#435785" stroke-width="1">
            <circle cx="6" cy="6" r="6" stroke="none"/>
            <circle cx="6" cy="6" r="5.5" fill="none"/>
          </g>
        </g>
        <g transform="translate(-88 -230)">
          <g id="Ellipse_141-30" data-name="Ellipse 141" transform="translate(126 326)" fill="none" stroke="#435785" stroke-width="1">
            <circle cx="6" cy="6" r="6" stroke="none"/>
            <circle cx="6" cy="6" r="5.5" fill="none"/>
          </g>
        </g>
        <g transform="translate(-50 -230)">
          <g id="Ellipse_141-31" data-name="Ellipse 141" transform="translate(126 326)" fill="none" stroke="#435785" stroke-width="1">
            <circle cx="6" cy="6" r="6" stroke="none"/>
            <circle cx="6" cy="6" r="5.5" fill="none"/>
          </g>
        </g>
        <g transform="translate(-12 -230)">
          <g id="Ellipse_141-32" data-name="Ellipse 141" transform="translate(126 326)" fill="none" stroke="#435785" stroke-width="1">
            <circle cx="6" cy="6" r="6" stroke="none"/>
            <circle cx="6" cy="6" r="5.5" fill="none"/>
          </g>
        </g>
      </g>
      <circle id="Ellipse_142" data-name="Ellipse 142" cx="2.5" cy="2.5" r="2.5" transform="translate(884 604)" fill="#6a91d8"/>
      <circle id="Ellipse_143" data-name="Ellipse 143" cx="2.5" cy="2.5" r="2.5" transform="translate(728 594)" fill="#6a91d8"/>
      <circle id="Ellipse_147" data-name="Ellipse 147" cx="2.5" cy="2.5" r="2.5" transform="translate(572 509)" fill="#6a91d8"/>
      <circle id="Ellipse_144" data-name="Ellipse 144" cx="2.5" cy="2.5" r="2.5" transform="translate(416 461)" fill="#6a91d8"/>
      <circle id="Ellipse_145" data-name="Ellipse 145" cx="2.5" cy="2.5" r="2.5" transform="translate(260 279)" fill="#6a91d8"/>
      <circle id="Ellipse_146" data-name="Ellipse 146" cx="2.5" cy="2.5" r="2.5" transform="translate(104 145)" fill="#6a91d8"/>
      <g id="Rectangle_248" data-name="Rectangle 248" transform="translate(262 290)" fill="#fff" stroke="#6a91d8" stroke-width="1" opacity="0.35">
        <rect width="1" height="401" stroke="none"/>
        <rect x="0.5" y="0.5" height="400" fill="none"/>
      </g>
      <g id="Rectangle_249" data-name="Rectangle 249" transform="translate(418 598) rotate(90)" fill="#fff" stroke="#6a91d8" stroke-width="1" opacity="0.35">
        <rect width="1" height="418" stroke="none"/>
        <rect x="0.5" y="0.5" height="417" fill="none"/>
      </g>
      <g id="Rectangle_250" data-name="Rectangle 250" transform="translate(396 294.5) rotate(90)" fill="#fff" stroke="#6a91d8" stroke-width="1" opacity="0.35">
        <rect width="1" height="396" stroke="none"/>
        <rect x="0.5" y="0.5" height="395" fill="none"/>
      </g>
      <circle id="Ellipse_149" data-name="Ellipse 149" cx="90.5" cy="90.5" r="90.5" transform="translate(349 235)" fill="#273e81" opacity="0.35"/>
      <g id="Ellipse_150" data-name="Ellipse 150" transform="translate(386 272)" fill="#001d40" stroke="#6a91d8" stroke-width="1">
        <circle cx="54" cy="54" r="54" stroke="none"/>
        <circle cx="54" cy="54" r="53.5" fill="none"/>
      </g>
      <text id="PCSC" transform="translate(401 336)" fill="#fff" font-size="28" font-family="Poppins-SemiBold, Poppins" font-weight="600"><tspan x="0" y="0">PCSC</tspan></text>
      <g id="Rectangle_247" data-name="Rectangle 247" transform="translate(418 376)" fill="#fff" stroke="#6a91d8" stroke-width="1" opacity="0.35">
        <rect width="1" height="309" stroke="none"/>
        <rect x="0.5" y="0.5" height="308" fill="none"/>
      </g>
    </g>
    <text id="PCIDSS" transform="translate(398 519)" fill="#fff" font-size="18" font-family="Poppins-Regular, Poppins"><tspan x="0" y="0">PCIDSS</tspan></text>
    <text id="HIPAA" transform="translate(186 577)" fill="#fff" font-size="18" font-family="Poppins-Regular, Poppins"><tspan x="0" y="0">HIPAA</tspan></text>
    <text id="GDRR" transform="translate(145 435)" fill="#fff" font-size="18" font-family="Poppins-Regular, Poppins"><tspan x="0" y="0">GDRR</tspan></text>
    <text id="ISO_2700_C7" data-name="ISO 2700/C7" transform="translate(492 577)" fill="#fff" font-size="18" font-family="Poppins-Regular, Poppins"><tspan x="0" y="0">ISO 2700/C7</tspan></text>
    <text id="NIST" transform="translate(338 577)" fill="#fff" font-size="18" font-family="Poppins-Regular, Poppins"><tspan x="0" y="0">NIST</tspan></text>
    <text id="NBBIT" transform="translate(238 472)" fill="#fff" font-size="18" font-family="Poppins-Regular, Poppins"><tspan x="0" y="0">NBBIT</tspan></text>
  </g>
</svg>
