<svg xmlns="http://www.w3.org/2000/svg" width="149.8" height="172.9" viewBox="0 0 149.8 172.9">
  <g id="design" transform="translate(-65.2 -117.6)">
    <ellipse id="Ellipse_23" data-name="Ellipse 23" cx="74.9" cy="12.8" rx="74.9" ry="12.8" transform="translate(65.2 264.9)" fill="#d2ebff" opacity="0.56"/>
    <g id="Group_57" data-name="Group 57">
      <g id="Group_52" data-name="Group 52">
        <g id="Group_51" data-name="Group 51">
          <path id="Path_81" data-name="Path 81" d="M199.9,227.9c0-9.6-6.8-19.3-15.2-19.3s-15.2,9.6-15.2,19.3c0,9.6,6.8,17.4,15.2,17.4S199.9,237.5,199.9,227.9Z" fill="#7bdf70"/>
          <path id="Path_82" data-name="Path 82" d="M184.7,208.7a13.364,13.364,0,0,0-3.9.7c6.5,2.4,11.3,10.5,11.3,18.5,0,8.1-4.8,14.8-11.3,16.8a12.262,12.262,0,0,0,3.9.6c8.4,0,15.2-7.8,15.2-17.4S193.1,208.7,184.7,208.7Z" fill="#34648c" opacity="0.25"/>
        </g>
      </g>
      <g id="Group_54" data-name="Group 54">
        <g id="Group_53" data-name="Group 53">
          <path id="Path_83" data-name="Path 83" d="M111.3,227.9c0-9.6-6.8-19.3-15.2-19.3s-15.2,9.6-15.2,19.3c0,9.6,6.8,17.4,15.2,17.4S111.3,237.5,111.3,227.9Z" fill="#7bdf70"/>
          <path id="Path_84" data-name="Path 84" d="M96.1,208.7a13.364,13.364,0,0,0-3.9.7c6.5,2.4,11.3,10.5,11.3,18.5,0,8.1-4.8,14.8-11.3,16.8a12.262,12.262,0,0,0,3.9.6c8.4,0,15.2-7.8,15.2-17.4S104.5,208.7,96.1,208.7Z" fill="#34648c" opacity="0.25"/>
        </g>
      </g>
      <g id="Group_55" data-name="Group 55">
        <path id="Path_85" data-name="Path 85" d="M82.5,244.5l3.3,20.4a6,6,0,0,0,5.9,5h10.1a6,6,0,0,0,5.9-5l3.3-20.4Z" fill="#d2ebff"/>
        <path id="Path_86" data-name="Path 86" d="M111,244.5H82.5l.5,2.8h22l-2.8,17.6a6,6,0,0,1-5.9,5h5.6a6,6,0,0,0,5.9-5l2.8-17.6h0Z" fill="#accfe5"/>
        <path id="Path_87" data-name="Path 87" d="M111.3,238.6H82.2a3.009,3.009,0,0,0-3,3h0a3.009,3.009,0,0,0,3,3h29.1a3.009,3.009,0,0,0,3-3h0A3.076,3.076,0,0,0,111.3,238.6Z" fill="#d2ebff"/>
      </g>
      <g id="Group_56" data-name="Group 56">
        <path id="Path_88" data-name="Path 88" d="M169.8,244.5l3.3,20.4a6,6,0,0,0,5.9,5h10.1a6,6,0,0,0,5.9-5l3.3-20.4Z" fill="#d2ebff"/>
        <path id="Path_89" data-name="Path 89" d="M198.3,244.5H169.8l.5,2.8h22l-2.8,17.6a6,6,0,0,1-5.9,5h5.6a6,6,0,0,0,5.9-5l2.8-17.6h0Z" fill="#accfe5"/>
        <path id="Path_90" data-name="Path 90" d="M198.6,238.6H169.5a3.009,3.009,0,0,0-3,3h0a3.009,3.009,0,0,0,3,3h29.1a3.009,3.009,0,0,0,3-3h0A3.076,3.076,0,0,0,198.6,238.6Z" fill="#d2ebff"/>
      </g>
    </g>
    <path id="Path_91" data-name="Path 91" d="M175.8,204.2h18.3a4.354,4.354,0,0,0,4.4-4.3v-.2a6.941,6.941,0,0,0-6.7-6.9,12.253,12.253,0,0,0-1.9.2,5.858,5.858,0,0,0-11.5.3,5.537,5.537,0,0,0-1.8-.2,5.852,5.852,0,0,0-4.8,8.8A4.732,4.732,0,0,0,175.8,204.2Z" fill="#1f487e"/>
    <g id="Group_58" data-name="Group 58">
      <path id="Path_92" data-name="Path 92" d="M169.2,138.7l-65.7-.1a9.347,9.347,0,0,0-9.3,9.3l-.2,112a9.347,9.347,0,0,0,9.3,9.3l65.7.1a9.347,9.347,0,0,0,9.3-9.3l.2-112A9.347,9.347,0,0,0,169.2,138.7Z" fill="#89caf7"/>
      <path id="Path_93" data-name="Path 93" d="M168.6,146.4h-7.2a1.763,1.763,0,0,0-1.5.8l-1.7,2.6a9.113,9.113,0,0,1-7.9,4.2l-27.9-.1a9.31,9.31,0,0,1-7.9-4.3l-1.7-2.6a1.763,1.763,0,0,0-1.5-.8h-7.2a1.793,1.793,0,0,0-1.8,1.8L102,259.6a1.793,1.793,0,0,0,1.8,1.8l64.5.1a1.793,1.793,0,0,0,1.8-1.8l.2-111.6A1.626,1.626,0,0,0,168.6,146.4Z" fill="#d2ebff"/>
    </g>
    <g id="Group_61" data-name="Group 61">
      <path id="Path_94" data-name="Path 94" d="M160.9,239.6l-51.6-.1a2.689,2.689,0,0,0-2.7,2.7l-.1,29.2a2.689,2.689,0,0,0,2.7,2.7l51.6.1a2.689,2.689,0,0,0,2.7-2.7l.1-29.2A2.689,2.689,0,0,0,160.9,239.6Z" fill="#1f487e"/>
      <g id="Group_59" data-name="Group 59">
        <path id="Path_95" data-name="Path 95" d="M157,269.4H114.1a.645.645,0,0,0-.6.6v.1a.645.645,0,0,0,.6.6H157a.645.645,0,0,0,.6-.6V270A.645.645,0,0,0,157,269.4Z" fill="#489bff"/>
        <path id="Path_96" data-name="Path 96" d="M157,269.4H126.7v1.2H157a.645.645,0,0,0,.6-.6v-.1A.648.648,0,0,0,157,269.4Z" fill="#89caf7"/>
        <circle id="Ellipse_24" data-name="Ellipse 24" cx="1.4" cy="1.4" r="1.4" transform="translate(125.1 268.6)" fill="#fff"/>
      </g>
      <g id="Group_60" data-name="Group 60">
        <ellipse id="Ellipse_25" data-name="Ellipse 25" cx="8.4" cy="8.2" rx="8.4" ry="8.2" transform="translate(126.7 246)" fill="#fff"/>
        <path id="Path_97" data-name="Path 97" d="M133.7,251.5l4,2a1.034,1.034,0,0,1,0,1.8l-4,2a.986.986,0,0,1-1.4-.9v-4A.973.973,0,0,1,133.7,251.5Z" fill="#1f487e"/>
      </g>
    </g>
    <g id="Group_63" data-name="Group 63">
      <path id="Path_98" data-name="Path 98" d="M198,154.9l-48.3-.1a2.476,2.476,0,0,0-2.5,2.5l-.1,27.4a2.476,2.476,0,0,0,2.5,2.5l48.3.1a2.476,2.476,0,0,0,2.5-2.5l.1-27.4A2.476,2.476,0,0,0,198,154.9Z" fill="#7bdf70"/>
      <g id="Group_62" data-name="Group 62">
        <path id="Path_99" data-name="Path 99" d="M186.3,162.6H161.4a1.752,1.752,0,0,0-1.7,1.7h0a1.752,1.752,0,0,0,1.7,1.7h24.9a1.752,1.752,0,0,0,1.7-1.7h0A1.685,1.685,0,0,0,186.3,162.6Z" fill="#fff"/>
        <path id="Path_100" data-name="Path 100" d="M180.4,170.4H167.3a1.752,1.752,0,0,0-1.7,1.7h0a1.752,1.752,0,0,0,1.7,1.7h13.1a1.752,1.752,0,0,0,1.7-1.7h0A1.685,1.685,0,0,0,180.4,170.4Z" fill="#fff"/>
        <path id="Path_101" data-name="Path 101" d="M184.4,178.1H163.1a1.752,1.752,0,0,0-1.7,1.7h0a1.752,1.752,0,0,0,1.7,1.7h21.3a1.752,1.752,0,0,0,1.7-1.7h0A1.628,1.628,0,0,0,184.4,178.1Z" fill="#fff"/>
      </g>
    </g>
    <path id="Path_102" data-name="Path 102" d="M78.1,173.4h23.6a5.593,5.593,0,0,0,5.7-5.5v-.2a8.772,8.772,0,0,0-8.6-8.8,9.863,9.863,0,0,0-2.4.3,7.493,7.493,0,0,0-7.3-5.9,7.365,7.365,0,0,0-7.4,6.3,8.524,8.524,0,0,0-2.3-.3,7.449,7.449,0,0,0-7.2,7.6,7.566,7.566,0,0,0,1,3.7A5.542,5.542,0,0,0,78.1,173.4Z" fill="#67b8ef"/>
    <path id="Path_103" data-name="Path 103" d="M142.8,133.4h18.3a4.354,4.354,0,0,0,4.4-4.3v-.2a6.941,6.941,0,0,0-6.7-6.9,12.252,12.252,0,0,0-1.9.2,5.858,5.858,0,0,0-11.5.3,5.537,5.537,0,0,0-1.8-.2,5.852,5.852,0,0,0-4.8,8.8A4.732,4.732,0,0,0,142.8,133.4Z" fill="#489bff"/>
    <g id="Group_67" data-name="Group 67">
      <path id="Path_104" data-name="Path 104" d="M129.3,183.6l-58.2-.1a3.009,3.009,0,0,0-3,3l-.1,33a3.009,3.009,0,0,0,3,3l58.2.1a3.009,3.009,0,0,0,3-3l.1-33A3.009,3.009,0,0,0,129.3,183.6Z" fill="#489bff"/>
      <g id="Group_64" data-name="Group 64">
        <path id="Path_105" data-name="Path 105" d="M126.1,196.4H99.6a1.11,1.11,0,0,0-1.1,1.1h0a1.11,1.11,0,0,0,1.1,1.1H126a1.11,1.11,0,0,0,1.1-1.1h0A.972.972,0,0,0,126.1,196.4Z" fill="#fff"/>
        <path id="Path_106" data-name="Path 106" d="M120.1,201.9H99.6a1.11,1.11,0,0,0-1.1,1.1h0a1.11,1.11,0,0,0,1.1,1.1h20.5a1.11,1.11,0,0,0,1.1-1.1h0A1.11,1.11,0,0,0,120.1,201.9Z" fill="#fff"/>
        <path id="Path_107" data-name="Path 107" d="M117.3,207.2H99.6a1.11,1.11,0,0,0-1.1,1.1h0a1.11,1.11,0,0,0,1.1,1.1h17.7a1.11,1.11,0,0,0,1.1-1.1h0A1.11,1.11,0,0,0,117.3,207.2Z" fill="#fff"/>
      </g>
      <g id="Group_66" data-name="Group 66">
        <g id="Group_65" data-name="Group 65">
          <ellipse id="Ellipse_26" data-name="Ellipse 26" cx="4.2" cy="4.4" rx="4.2" ry="4.4" transform="translate(79.1 192.9)" fill="#fff"/>
        </g>
        <path id="Path_108" data-name="Path 108" d="M88.7,204.8l-2.6-.8a9.248,9.248,0,0,0-5.7,0l-2.6.8a3.872,3.872,0,0,0-2.7,3.7v4.1H91.4v-4.1A3.872,3.872,0,0,0,88.7,204.8Z" fill="#fff"/>
      </g>
    </g>
  </g>
</svg>
