<svg xmlns="http://www.w3.org/2000/svg" width="239.662" height="239.936" viewBox="0 0 239.662 239.936">
  <g id="Group_19" data-name="Group 19" transform="translate(-156.373 -161.164)">
    <path id="Path_38" data-name="Path 38" d="M396,272.4a48.734,48.734,0,0,0-7.2-24,50.324,50.324,0,0,0-20.9-18.7,39.371,39.371,0,0,0,.4-7.7,43.852,43.852,0,0,0-13.7-30.2l-9.5-6.7a43.909,43.909,0,0,0-21.6-4.9c-3.6.6-7.3,1.2-10.9,1.8a33.854,33.854,0,0,0-4.1,1.5,38.94,38.94,0,0,0-8.6-11.6c-2.9-2.1-5.9-4.2-8.8-6.2a39.691,39.691,0,0,0-20-4.5c-3.4.6-6.8,1.1-10.1,1.7A39.579,39.579,0,0,0,243.2,174a38.38,38.38,0,0,0-7.7,12.1,43.6,43.6,0,0,0-15.3-2.1c-3.8.6-7.6,1.2-11.4,1.9a45.232,45.232,0,0,0-28.1,62.2,43.63,43.63,0,0,0-12.9,9.4A42.534,42.534,0,0,0,156.4,288a43.1,43.1,0,0,0,13.5,29.7l9.3,6.6a43.4,43.4,0,0,0,21.2,4.8c.9-.1,1.7-.3,2.6-.4a48.459,48.459,0,0,0,15.1,30.4l10.5,7.5a47.535,47.535,0,0,0,24,5.4c4.1-.7,8.1-1.3,12.2-2a48.346,48.346,0,0,0,16.2-8.5c5.1,8.4,24.1,34.1,67.7,39.6a114.371,114.371,0,0,1-28.6-29.7c24.4-2.5,43.3-25.7,42.5-50.1v-.5a48.458,48.458,0,0,0,20.3-13.1A49.581,49.581,0,0,0,396,272.4ZM284.9,323.5a10.349,10.349,0,1,1,8.4-11.9A10.313,10.313,0,0,1,284.9,323.5Zm6.4-54.1c-6.3,6.9-5.8,10.9-4.6,17.8.4,2.5-.4,5.7-6.9,6.8-5.4.9-7.6-.8-8.8-7.6-1.9-11.4,2.2-17.7,5.5-21.7,3.7-4.5,10.5-9.8,9.3-17-1-6.1-6.8-8.1-13.5-7-13.5,2.3-8.9,12-16,13.2-3.6.6-8.4-1-9.2-6.2-1.2-7.2,5.2-19.2,23.1-22.2,17-2.9,29.8,4.6,31.9,17.1C304.1,255,294.4,266,291.3,269.4Z" fill="#f55"/>
  </g>
</svg>
