<svg xmlns="http://www.w3.org/2000/svg" xmlns:xlink="http://www.w3.org/1999/xlink" width="1665.107" height="1370.427" viewBox="0 0 1665.107 1370.427">
  <defs>
    <linearGradient id="linear-gradient" y1="0.5" x2="1" y2="0.5" gradientUnits="objectBoundingBox">
      <stop offset="0" stop-color="#ff9f55"/>
      <stop offset="1" stop-color="#ffd255"/>
    </linearGradient>
    <linearGradient id="linear-gradient-2" x1="0" y1="0.5" x2="1" y2="0.5" xlink:href="#linear-gradient"/>
    <linearGradient id="linear-gradient-3" x1="0.922" y1="0.81" x2="-0.355" y2="-0.127" gradientUnits="objectBoundingBox">
      <stop offset="0" stop-color="#16c172"/>
      <stop offset="1" stop-color="#ffd255"/>
    </linearGradient>
  </defs>
  <g id="report" transform="translate(-1083.573 -509.2)">
    <g id="Group_2079" data-name="Group 2079">
      <g id="Group_1872" data-name="Group 1872">
        <path id="Path_1844" data-name="Path 1844" d="M1163.7,1309.1h-66.6v-17.9h59.2l99.9-100,72.7,72.7,173.6-173.6,53.5,53.4,176-176.1,105.5,105.5h120.3l185.6-185.6h160.1l118.4-118.4h144.9l143.7-143.7,12.7,12.6-149,149H2429.3L2310.9,905.4H2150.8L1965.2,1091H1830.1L1732,993l-176,176-53.5-53.4-173.6,173.6-72.7-72.7Z" fill="#ffbf55"/>
      </g>
      <g id="Group_1873" data-name="Group 1873">
        <path id="Path_1845" data-name="Path 1845" d="M1102.9,1524.9l-11.6-13.7,192.6-164.1h117L1666.4,1121l166,141.4h122.4l61.9,52.7,192.2-163.7h97.6L2711,806.7l11.6,13.6-409.5,349h-97.6l-198.8,169.4-68.5-58.4H1825.8l-159.4-135.8L1407.5,1365h-117Z" fill="#d6d6d6"/>
      </g>
      <path id="Path_1981" data-name="Path 1981" d="M0,0H212.6V860H0Z" transform="translate(1218.9 940.8)" fill="#f2f2f2"/>
      <rect id="Rectangle_306" data-name="Rectangle 306" width="212.6" height="487.2" transform="translate(1218.9 1313.6)" fill="#39a3ed"/>
      <path id="Path_1980" data-name="Path 1980" d="M0,0H212.6V1102H0Z" transform="translate(1509.9 698.9)" fill="#f2f2f2"/>
      <path id="Path_1977" data-name="Path 1977" d="M0,0H212.6V624.3H0Z" transform="translate(1509.9 1176.5)" fill="#39a3ed"/>
      <rect id="Rectangle_311" data-name="Rectangle 311" width="212.6" height="1291.7" transform="translate(1801 509.2)" fill="#f2f2f2"/>
      <path id="Path_1978" data-name="Path 1978" d="M0,0H212.6V731.8H0Z" transform="translate(1801 1069.1)" fill="#068df8"/>
      <path id="Path_1979" data-name="Path 1979" d="M0,0H212.6V624.3H0Z" transform="translate(2092 1176.5)" fill="#39a3ed"/>
      <rect id="Rectangle_317" data-name="Rectangle 317" width="212.6" height="1229.8" transform="translate(2383 571.1)" fill="#f2f2f2"/>
      <rect id="Rectangle_318" data-name="Rectangle 318" width="212.6" height="787.4" transform="translate(2383 1013.5)" fill="#068df8"/>
      <g id="Group_1895" data-name="Group 1895">
        <g id="Group_1875" data-name="Group 1875">
          <g id="Group_1874" data-name="Group 1874">
            <path id="Path_1846" data-name="Path 1846" d="M1174,1086.5s-12.3,20.8-17.4,24.2c-7,4.6-2.6,9.3.7,9.3s20.4,1.2,24.1-3c3.8-4.3,5.6-17,9.1-20.4,3.5-3.3,7.1-16.6-1.7-19.9C1181,1073.8,1174,1086.5,1174,1086.5Z" fill="#5f8cc9"/>
          </g>
        </g>
        <g id="Group_1877" data-name="Group 1877">
          <g id="Group_1876" data-name="Group 1876">
            <path id="Path_1847" data-name="Path 1847" d="M1179.3,1077.3s-14,24.4-16.5,27.9c-2.4,3.6,4.6,3.6,8.9,1.9s15.2-19.2,16.8-22.4c1.9-3.8.3-8.1.3-8.1Z" fill="#eba684"/>
          </g>
        </g>
        <g id="Group_1879" data-name="Group 1879">
          <g id="Group_1878" data-name="Group 1878">
            <path id="Path_1848" data-name="Path 1848" d="M1193.5,1090.4l-3.2,25-1.7.1.5-18Z" fill="#5f8cc9"/>
          </g>
        </g>
        <g id="Group_1881" data-name="Group 1881">
          <g id="Group_1880" data-name="Group 1880">
            <path id="Path_1849" data-name="Path 1849" d="M1295.6,1086.5s-12.3,20.8-17.4,24.2c-7,4.6-2.6,9.3.7,9.3s20.4,1.2,24.1-3c3.8-4.3,5.6-17,9.1-20.4,3.5-3.3,7.2-17-1.7-19.9C1302.6,1074.1,1295.6,1086.5,1295.6,1086.5Z" fill="#5f8cc9"/>
          </g>
        </g>
        <g id="Group_1883" data-name="Group 1883">
          <g id="Group_1882" data-name="Group 1882">
            <path id="Path_1850" data-name="Path 1850" d="M1300.2,1077.4s-13.3,24.3-15.7,27.9,4.6,3.6,8.9,1.9,15.2-19.2,16.8-22.4c1.9-3.8.3-8.1.3-8.1Z" fill="#eba684"/>
          </g>
        </g>
        <g id="Group_1885" data-name="Group 1885">
          <g id="Group_1884" data-name="Group 1884">
            <path id="Path_1851" data-name="Path 1851" d="M1315.2,1090.4l-3.3,25-1.7.1.5-18Z" fill="#5f8cc9"/>
          </g>
        </g>
        <g id="Group_1887" data-name="Group 1887">
          <g id="Group_1886" data-name="Group 1886">
            <path id="Path_1852" data-name="Path 1852" d="M1350,897.2l-111,50.6s-12.4,4-13.8,17.8c-4.3,42.9-36.5,111.1-36.5,111.1-10.3,5-9.5.7-9.5.7,6.5-20.8,14.4-106.8,17.2-141.3.6-7.3,1-12.3,1-13.9q.15-1.65,3.3-4.2c15.2-12.4,77.9-37.9,77.9-37.9C1325.8,878.8,1350,897.2,1350,897.2Z" fill="#eba684"/>
          </g>
        </g>
        <g id="Group_1889" data-name="Group 1889">
          <g id="Group_1888" data-name="Group 1888">
            <path id="Path_1853" data-name="Path 1853" d="M1371,918.9c-3.4,30-46.3,26.6-46.3,26.6h-51.9s13.6,30.3,18.9,55.9c5.6,27.2,18.8,75.2,18.8,75.2s-.9,1.6-10.3.7c0,0-40.7-81.2-56.3-101.6-3.4-4.4-13-28.2-14.6-42.5-.6-4.8-.2-8.5,1.6-10a109,109,0,0,1,11.5-7.8c16.3-10.3,44.5-26,60.2-29.6,21.1-4.7,54.4-13.6,54.4-13.6S1374.4,888.9,1371,918.9Z" fill="#eba684"/>
          </g>
        </g>
        <path id="Path_1854" data-name="Path 1854" d="M1335.6,687.8s7.8-14.7,4-30.5c-3.8-15.7-18.4-31.4-39.7-24.2s-38.6,23.8-25.8,42.9c12.8,19.2-11.6,27.8-5.4,36.9s3.9,18.6,1.2,20.8c-2.6,2.1-11.1,9.7-10.2,18.6.9,9,41.4-26.1,41.4-26.1S1323.2,682.1,1335.6,687.8Z" fill="#464240"/>
        <path id="Path_1855" data-name="Path 1855" d="M1270.6,876.4s3.2,15.6,86.1-4.1C1356.7,872.3,1328.9,863,1270.6,876.4Z" fill="#eb4747"/>
        <g id="Group_1890" data-name="Group 1890">
          <path id="Path_1856" data-name="Path 1856" d="M1357.6,876.6c1.3,2.5,2.6,4.9,3.9,7.4q-45.45,1.35-90.9,2.6c4.8-16.1,3.2-37.8,2.4-54.3-1-20.2-12.2-34.2-11-54.5-6,1-7,1.2-13,2.1,9.2-26.2,12.3-39.1,40.9-49.2,9.3-3.3,15.4-3.9,25.4-3.1,33,2.7,43,3.1,59.2,33-25.4,4-21.2,13.2-28.9,38.4-3.8,12.3-7.7,26.1-5.7,39.1C1341.9,850.9,1357.6,865,1357.6,876.6Z" fill="#f2f2f2"/>
        </g>
        <g id="Group_1891" data-name="Group 1891">
          <path id="Path_1857" data-name="Path 1857" d="M1304.9,737c13.5-2.6,10.6-10.1,10.6-10.1s-.6-4.2-.9-9.6c-.1-1.4-.1-2.8-.1-4.3a50.193,50.193,0,0,1,.4-6.7c1.1-9.1-24.5-3.7-24.5-3.7s1.5,18.4-2.1,23.9C1284.8,732.1,1291.4,739.6,1304.9,737Z" fill="#eea886"/>
        </g>
        <g id="Group_1892" data-name="Group 1892">
          <path id="Path_1858" data-name="Path 1858" d="M1330.7,726.9s-27.3,31.5-37.4,38.8c0,0-11.6-10.5-4.4-38.1C1288.9,727.6,1302.1,721,1330.7,726.9Z" fill="#eea886"/>
        </g>
        <path id="Path_1859" data-name="Path 1859" d="M1330,651.1s14.2,27.3.1,53.1c-14,25.8-41.6-11.3-43.4-15.6-1.8-4.4-11.2-29,7.6-36.5C1313.1,644.7,1326,643.7,1330,651.1Z" fill="#eea886"/>
        <path id="Path_1860" data-name="Path 1860" d="M1325.3,660.8s9.7,12.8,10.9,22.3a50.657,50.657,0,0,0-7.1-35.1c-11-17.2-38.9-.8-42.6,6-3.7,6.9-14.7,12.9,3.7,42.4C1290.2,696.5,1323.3,673.5,1325.3,660.8Z" fill="#464240"/>
        <path id="Path_1861" data-name="Path 1861" d="M1302.6,707s2.5,5.4,12.1,10.4c-.1-1.4-.1-2.8-.1-4.3A23.159,23.159,0,0,1,1302.6,707Z" fill="#a77860"/>
        <path id="Path_1862" data-name="Path 1862" d="M1445.8,852.1s6.7,3,9.9,1.6,8.1-1.6,9.7-1.6c2.1,0,8.6-2.3,8.5.2s-10.6,4.3-12.7,5.1,6.4,5.5,7.2,7.6-8.9,15.8-14.3,11.9-8.4-11.7-9.5-12.2a41.48,41.48,0,0,1-4.1-2.7Z" fill="#de9d7d"/>
        <path id="Path_1863" data-name="Path 1863" d="M1467.3,863.8s15.8,13.1,16,14.9-.6,2.6-2.1,1.4-15.7-12.2-15.7-12.2,15.8,18.7,16.4,20.1c.3.8-1.2,2.5-2.1,2s-17.7-18.1-17.7-18.1,14.7,17.5,14.8,18.8a1.741,1.741,0,0,1-2.9,1.2c-1.2-1.2-15.9-16.6-15.9-16.6s9.9,13.4,9.3,14.6c-.4.7-1.6,2.2-4-1.3s-9.1-11.3-9.1-11.3Z" fill="#de9d7d"/>
        <g id="Group_1893" data-name="Group 1893">
          <path id="Path_1864" data-name="Path 1864" d="M1278.2,945.5h46.5s42.8,3.4,46.3-26.6c3.4-30-14.1-46.7-14.1-46.7s-22.6,6-42.4,10.8a150.493,150.493,0,0,0-35.7-3.1s-83.7,27.7-81.2,42.2C1197.5,922.2,1232.6,903.5,1278.2,945.5Z" fill="#202338"/>
        </g>
        <path id="Path_1865" data-name="Path 1865" d="M1308.5,893.6l-88.7-1.3,44.8,22.7Z" fill="#5e5853"/>
        <path id="Path_1866" data-name="Path 1866" d="M1280.9,882.2s19.9,7.7,44.4.7l1.1-9.1-50.3,2.8Z" fill="#f2f2f2"/>
        <path id="Path_1867" data-name="Path 1867" d="M1264.6,915l43.9-17v-4.4l-47.4,17Z" fill="#91887f"/>
        <g id="Group_1894" data-name="Group 1894">
          <path id="Path_1868" data-name="Path 1868" d="M1281.2,886.5a4.364,4.364,0,0,1-6.1,4.3l-5.1-2.2a3.893,3.893,0,0,1-2.2-4c2.1-13.4,6.5-65.6-.2-74.5a30.554,30.554,0,0,1-4.7-8.8c-4.4,11.4-10,26.2-12.1,34.1l-41.9,55.7-14,3.6c17.5-42.2,31.6-64.6,31.6-64.6,2.7-7.4,10.6-29.6,17.6-49.5,4.4-12.5,8.4-24.1,10.6-30.3a14.56,14.56,0,0,1,6.1-7.5c6.5-3.9,17.3-10,27.1-14.7a.1.1,0,0,0,.1-.1c.3-.2.6-.3.9-.5h0c-18.6,28.2-11.4,107.8-7.7,158.7C1281.2,886.4,1281.2,886.4,1281.2,886.5Z" fill="#ff9f55"/>
          <path id="Path_1869" data-name="Path 1869" d="M1350.4,730c6,.9,20.8,15.3,28.6,29.8,9,16.6,18.1,35.4,24.9,41.6,12.6,11.4,47.8,51.7,49.5,50.7.6-.4-9.7,12-11,12.6-.7.3-57.9-49.3-63.4-56.9-5.2-7.2-19.2-37.2-23.3-36.6h0a226.429,226.429,0,0,0-10.2,27.8,2.354,2.354,0,0,0-.2.8c-3.3,11.2-3,23.4-1.2,37.1,1.4,10.3,9.1,27.2,13.7,35.4.6,1,.4,2.9-.2,4.3h0a3.468,3.468,0,0,1-1.5,1.8l-16.8,6.2-3.9,1.5a8.634,8.634,0,0,1-8.1-1.1,8.983,8.983,0,0,1-3.5-5.8c-3.7-28.7-8.5-58.1-12.2-69.2-16.5-48.5,6.5-85,6.5-85S1345.2,728,1350.4,730Z" fill="#ff9f55"/>
        </g>
        <path id="Path_1870" data-name="Path 1870" d="M1264.6,915l-26.4-72-85,1.4,25.1,66.3Z" fill="#6e6760"/>
        <ellipse id="Ellipse_201" data-name="Ellipse 201" cx="7.2" cy="10.5" rx="7.2" ry="10.5" transform="translate(1193.437 871.886) rotate(-26.578)" fill="#807066"/>
        <path id="Path_1871" data-name="Path 1871" d="M1300.6,678.3s-5.4,8.5-.4,15.8-1.3,14.5-2.4,22.2,21,28.3-3.6,38.6-32.4-6.8-26.1-16.2,10.7-17,11.2-30.5C1279.9,694.9,1284.3,674,1300.6,678.3Z" fill="#464240"/>
        <path id="Path_1872" data-name="Path 1872" d="M1482.9,588.5H1369.4v99.6l17.4-17.3h96.1Z" fill="#4da8f2"/>
      </g>
      <g id="Group_1930" data-name="Group 1930" transform="translate(-4 196)">
        <g id="Group_1913" data-name="Group 1913">
          <g id="Group_1912" data-name="Group 1912">
            <g id="Group_1911" data-name="Group 1911">
              <path id="Path_1885" data-name="Path 1885" d="M2086.1,621.4l-3-1.8,43.9-73.2,64.1-3.9,39.2-82,51.2-11.3,24-65.1,3.3,1.2-24.7,66.9-51.4,11.3-39.4,82.4-64.3,3.9Z" fill="#4da8f2"/>
            </g>
          </g>
        </g>
        <g id="Group_1915" data-name="Group 1915">
          <g id="Group_1914" data-name="Group 1914">
            <circle id="Ellipse_202" data-name="Ellipse 202" cx="9.3" cy="9.3" r="9.3" transform="translate(2182.9 534.9)" fill="#f5f5f5"/>
          </g>
        </g>
        <g id="Group_1917" data-name="Group 1917">
          <g id="Group_1916" data-name="Group 1916">
            <path id="Path_1886" data-name="Path 1886" d="M2197.4,554a11.094,11.094,0,1,1,4.6-15A11.091,11.091,0,0,1,2197.4,554Zm-8.7-16.5a7.538,7.538,0,1,0,10.2,3.1A7.632,7.632,0,0,0,2188.7,537.5Z" fill="#4da8f2"/>
          </g>
        </g>
        <g id="Group_1919" data-name="Group 1919">
          <g id="Group_1918" data-name="Group 1918">
            <circle id="Ellipse_203" data-name="Ellipse 203" cx="9.3" cy="9.3" r="9.3" transform="translate(2222.4 453.3)" fill="#f5f5f5"/>
          </g>
        </g>
        <g id="Group_1921" data-name="Group 1921">
          <g id="Group_1920" data-name="Group 1920">
            <path id="Path_1887" data-name="Path 1887" d="M2236.9,472.4a11.094,11.094,0,1,1,4.6-15A11.269,11.269,0,0,1,2236.9,472.4Zm-8.8-16.5a7.538,7.538,0,1,0,10.2,3.1A7.484,7.484,0,0,0,2228.1,455.9Z" fill="#4da8f2"/>
          </g>
        </g>
        <g id="Group_1923" data-name="Group 1923">
          <g id="Group_1922" data-name="Group 1922">
            <circle id="Ellipse_204" data-name="Ellipse 204" cx="9.3" cy="9.3" r="9.3" transform="translate(2272.9 441.2)" fill="#f5f5f5"/>
          </g>
        </g>
        <g id="Group_1925" data-name="Group 1925">
          <g id="Group_1924" data-name="Group 1924">
            <path id="Path_1888" data-name="Path 1888" d="M2287.4,460.3a11.094,11.094,0,1,1,4.6-15A11.091,11.091,0,0,1,2287.4,460.3Zm-8.7-16.5a7.538,7.538,0,1,0,10.2,3.1A7.632,7.632,0,0,0,2278.7,443.8Z" fill="#4da8f2"/>
          </g>
        </g>
        <g id="Group_1927" data-name="Group 1927">
          <g id="Group_1926" data-name="Group 1926">
            <circle id="Ellipse_205" data-name="Ellipse 205" cx="9.3" cy="9.3" r="9.3" transform="translate(2118.9 539.7)" fill="#f5f5f5"/>
          </g>
        </g>
        <g id="Group_1929" data-name="Group 1929">
          <g id="Group_1928" data-name="Group 1928">
            <path id="Path_1889" data-name="Path 1889" d="M2133.3,558.7a11.094,11.094,0,1,1,4.6-15A11.091,11.091,0,0,1,2133.3,558.7Zm-8.7-16.4a7.538,7.538,0,1,0,10.2,3.1A7.484,7.484,0,0,0,2124.6,542.3Z" fill="#4da8f2"/>
          </g>
        </g>
      </g>
      <g id="Group_1962" data-name="Group 1962">
        <g id="Group_1931" data-name="Group 1931">
          <path id="Path_1890" data-name="Path 1890" d="M1113.1,1822.7s-.2-4,7.9-8.7l-10.5-11.1a64.1,64.1,0,0,0-12.5,9.1C1091.7,1817.8,1113.1,1822.7,1113.1,1822.7Z" fill="#eea987"/>
        </g>
        <g id="Group_1932" data-name="Group 1932">
          <path id="Path_1891" data-name="Path 1891" d="M1365,1827.6s-.8-9.9,2.3-14.7l-13.1-2.7s-7.5,10.7-7.1,17.1C1347.4,1833.9,1365,1827.6,1365,1827.6Z" fill="#eea987"/>
        </g>
        <g id="Group_1935" data-name="Group 1935">
          <g id="Group_1934" data-name="Group 1934">
            <g id="Group_1933" data-name="Group 1933">
              <path id="Path_1892" data-name="Path 1892" d="M1136.7,1861.8c-.1,3.7.1,5.8-11.3,5.5-11.4-.2-21.8-14.1-29.1-23.9s-17.1-14.6-10.6-20.9c.8-.8,1.6-1.5,2.5-2.3,6.1-5.5,13.3-10.9,14.3-12,1.1-1.3,10.8,12.8,10.8,12.8s-1.1,6.9.6,11,4.1,18.8,9.4,21.4h0C1128.6,1856.1,1136.8,1861,1136.7,1861.8Z" fill="#eea987"/>
            </g>
          </g>
        </g>
        <g id="Group_1938" data-name="Group 1938">
          <g id="Group_1937" data-name="Group 1937">
            <g id="Group_1936" data-name="Group 1936">
              <path id="Path_1893" data-name="Path 1893" d="M1398,1859.9c-7.5-.4-28.9-2.2-40.8-1.4-11.9.9-16.5-1.1-15.4-9.6.1-.5.1-.9.2-1.4,1.3-8.3,5-18.7,5.4-22.2.4-3.7,15.3-1.1,15.3-1.1s7.5,11.9,11.8,14.4,17.2,7.8,22.2,10.2c.4.2.8.3,1.2.5h0c5.3,2,14.2,2.5,15.5,5.4C1414.6,1857.9,1405.5,1860.3,1398,1859.9Z" fill="#eea987"/>
            </g>
          </g>
        </g>
        <g id="Group_1939" data-name="Group 1939">
          <path id="Path_1894" data-name="Path 1894" d="M1398,1859.9c-7.5-.4-28.9-2.2-40.8-1.4-11.9.9-16.5-1.1-15.4-9.6.1-.5.1-.9.2-1.4,2.9-1.9,23.5,0,35.6,2s20.2-.1,20.2-.1h0c5.3,2,14.2,2.5,15.5,5.4C1414.6,1857.9,1405.5,1860.3,1398,1859.9Z" fill="#e0e0e0"/>
        </g>
        <g id="Group_1940" data-name="Group 1940">
          <path id="Path_1895" data-name="Path 1895" d="M1137.1,1861.7c-.1,3.7-.3,5.9-11.6,5.6-11.4-.2-21.8-14.1-29.1-23.9s-17.1-14.6-10.6-20.9c.8-.8,1.6-1.5,2.5-2.3.3.3,14.6,13.1,19,21.9,7.3,14.5,15.8,11.3,16.1,11.4h0C1128.6,1856.1,1137.1,1860.9,1137.1,1861.7Z" fill="#e0e0e0"/>
        </g>
        <g id="Group_1941" data-name="Group 1941">
          <path id="Path_1896" data-name="Path 1896" d="M1417.7,1714.4c-12.4,18.9-50.4,109.6-50.4,109.6l-29.9-3.1s21.2-63.6,31.5-87.1c7.7-17.4,18.2-25.9,8.2-30.8-8.4-4.1-59.3-24.5-80.8-36.1a65.584,65.584,0,0,1-6.7-4c-.7-.5-1.3-1-1.8-1.4-9.9-9,12.4-72.2,47-52,0,0,75.2,60.1,80.9,70.3C1421.5,1690,1430.1,1695.6,1417.7,1714.4Z" fill="#e0e0e0"/>
        </g>
        <g id="Group_1943" data-name="Group 1943">
          <g id="Group_1942" data-name="Group 1942">
            <path id="Path_1897" data-name="Path 1897" d="M1333.4,1607.6s-51.1,71.7-97.5,110.4c-13.1,11-23.8,20-42.5,34.1-10,7.5-27.6,23.1-41.9,36.2l-.6.5c-10.2,9.3-18.7,17.2-21.3,19.6l-.2.2-.3.3-9.3,9.5-13.4-13s16-19.3,25.1-34.2c12.8-20.9,31.5-44.1,41.2-50.8,16.6-11.5,32.7-18.3,38.8-29.2s27.1-54.6,27.1-54.6,4.9-45.5,32.8-55.6C1297.6,1571.4,1333.4,1607.6,1333.4,1607.6Z" fill="#e0e0e0"/>
          </g>
        </g>
        <g id="Group_1945" data-name="Group 1945">
          <g id="Group_1944" data-name="Group 1944">
            <path id="Path_1898" data-name="Path 1898" d="M1362.8,1417a26.569,26.569,0,0,0-3.2,7,52.305,52.305,0,0,0-1.8,7.6c-.9,5.3-1.2,9.8-1.2,9.8s-29.4-8.7-24-15.3,4-28,4-28S1367.1,1410.7,1362.8,1417Z" fill="#eea987"/>
          </g>
        </g>
        <g id="Group_1947" data-name="Group 1947">
          <g id="Group_1946" data-name="Group 1946">
            <path id="Path_1899" data-name="Path 1899" d="M1383.7,1360.6s7.2,7.2,2.4,26.1c0,0,.6,15.4,2.7,18.2s-6.5,3.2-7.6,5c-1,1.9-3.4,10.7-9.8,15.7s-34.9-13.5-35.7-22.8-18.5-50.3,14.2-49.7C1382.7,1353.7,1383.7,1360.6,1383.7,1360.6Z" fill="#eea886"/>
          </g>
        </g>
        <g id="Group_1949" data-name="Group 1949">
          <g id="Group_1948" data-name="Group 1948">
            <path id="Path_1900" data-name="Path 1900" d="M1374.6,1527.9c-1.2,2.1-2.6,4.3-4.1,6.6-4,6.2-8.9,13.3-14.8,21.4a72.9,72.9,0,0,0-4.3,6.2c-7.6,13.4-13.8,36.2-15.8,44.4-.5,1.9-.7,3-.7,3-39.5.9-81-24.9-81-24.9,26-27.5,36.2-48.7,36.2-48.7,2.7-7.5,4.4-15.8,4.9-26.9,1.5-32,10.4-49.6,19-63.5,8.6-14,18.7-19.5,18.7-19.5l24.2,14.7c2.8,9.1,12.7,19.2,22.4,41.4C1386.3,1498.5,1384.9,1510.1,1374.6,1527.9Z" fill="#ffbf55"/>
          </g>
        </g>
        <g id="Group_1951" data-name="Group 1951">
          <g id="Group_1950" data-name="Group 1950">
            <path id="Path_1901" data-name="Path 1901" d="M1387.4,1379.8s6.5-39.5-32.5-35.2c-39.1,4.3-22.3,49.2-18.2,63.8,0,0,1-22.1,19.6-21.4S1379.1,1383.6,1387.4,1379.8Z" fill="#464240"/>
          </g>
        </g>
        <g id="Group_1953" data-name="Group 1953">
          <g id="Group_1952" data-name="Group 1952">
            <path id="Path_1902" data-name="Path 1902" d="M1353.7,1381.2c-2-4.2-10.1-2.6-9.7,3.6.5,6.2,6.4,12.8,8.7,10C1355.1,1392,1356.7,1387.4,1353.7,1381.2Z" fill="#eea987"/>
          </g>
        </g>
        <g id="Group_1954" data-name="Group 1954">
          <path id="Path_1903" data-name="Path 1903" d="M1339.9,1356.5s-10.5-11.6-19.3,0c-8.9,11.6,7.4,29.9,15.2,20.3A22.42,22.42,0,0,0,1339.9,1356.5Z" fill="#464240"/>
        </g>
        <g id="Group_1955" data-name="Group 1955">
          <path id="Path_1904" data-name="Path 1904" d="M1359.6,1424a52.305,52.305,0,0,0-1.8,7.6c-9.6-5.2-16-19.6-16-19.6,6.7,6.7,17.8,12,17.8,12Z" fill="#a77860"/>
        </g>
        <g id="Group_1956" data-name="Group 1956">
          <path id="Path_1905" data-name="Path 1905" d="M1334.5,1352.5a19.014,19.014,0,0,0-15.8-7.9c-11-.1-24.5,16.5-21.1,40.8,3.4,24.2-4.4,52.5-27.4,75.8,0,0,40.1-21.6,43.8-53.5s15-32,15-32Z" fill="#464240"/>
        </g>
        <g id="Group_1957" data-name="Group 1957">
          <path id="Path_1906" data-name="Path 1906" d="M1430,1587s10.5.2,13,.6,7.8,1.8,8.5,1.3,3-10.4,4.8-12.5,8.2-24,7.1-23.9c-1.2.2-5.1,5.8-13.3,15.4s-17.6,6.1-20.9,8.3C1425.9,1578.5,1430,1587,1430,1587Z" fill="#eea886"/>
        </g>
        <g id="Group_1958" data-name="Group 1958">
          <path id="Path_1907" data-name="Path 1907" d="M1289.8,1662.9s21.9-25.7,23.5-28.7c-.9,2-12.4,27.2-16.9,32.7A62.652,62.652,0,0,1,1289.8,1662.9Z" fill="#bdbdbd"/>
        </g>
        <g id="Group_1959" data-name="Group 1959">
          <path id="Path_1908" data-name="Path 1908" d="M1374.6,1527.9c-1.2,2.1-2.6,4.3-4.1,6.6,0,0-12.4-37.8-13.6-47.1C1356.9,1487.4,1368.7,1513.8,1374.6,1527.9Z" fill="#bd8d3f"/>
        </g>
        <g id="Group_1960" data-name="Group 1960">
          <path id="Path_1909" data-name="Path 1909" d="M1434.5,1575.2s-39.2-8.9-58.4-27.1c-5-4.8-24.8-81.6-24.8-81.6s-5.4-19.4-22.6-13.8-10.3,25.2-10.3,25.2,23.7,60.8,36.3,84.5c10.5,19.7,80,26.2,80,26.2Z" fill="#ffbf55"/>
        </g>
        <g id="Group_1961" data-name="Group 1961">
          <path id="Path_1910" data-name="Path 1910" d="M1329.4,1428.2l5.5-6.9,23.7,14.4.2,12Z" fill="#e0e0e0"/>
        </g>
      </g>
      <g id="Group_1967" data-name="Group 1967">
        <g id="Group_1963" data-name="Group 1963">
          <path id="Path_1911" data-name="Path 1911" d="M1480.5,1534.1a208.2,208.2,0,0,0-32.5,74h0a211.272,211.272,0,0,0,85.5,219.1c95.6,66.4,226.8,42.7,293.2-52.8,66.4-95.6,42.7-226.8-52.9-293.2a211.064,211.064,0,0,0-293.3,52.9Z" fill="#1fa567"/>
        </g>
        <g id="Group_1964" data-name="Group 1964">
          <path id="Path_1912" data-name="Path 1912" d="M1470.2,1478.6l183.2,175.6,16.9-253.2A254.086,254.086,0,0,0,1470.2,1478.6Z" fill="#7bdf70"/>
        </g>
        <g id="Group_1965" data-name="Group 1965">
          <path id="Path_1913" data-name="Path 1913" d="M1474.7,1530.1a217.4,217.4,0,0,0-33.6,76.4l212.3,47.7-157.1-150.5A206.792,206.792,0,0,0,1474.7,1530.1Z" fill="#4ec740"/>
        </g>
        <g id="Group_1966" data-name="Group 1966">
          <path id="Path_1914" data-name="Path 1914" d="M1428.1,1603.5h0a225.385,225.385,0,0,0-5.4,57.7l230.8-7.1Z" fill="#0c6039"/>
        </g>
      </g>
      <g id="Group_1980" data-name="Group 1980">
        <path id="Path_1915" data-name="Path 1915" d="M2598.6,1362.4s-3.5-9-4-10.4c-.6-1.4-4-3.6-8.2-5.9s-10.8-3.4-11.5-3a4.241,4.241,0,0,0-2.6,2.3,7.332,7.332,0,0,0-.7,4s-2.3,1.8-1.8,4.3a4.055,4.055,0,0,0-1,4.6s-2,1.8-1,3.8a38.138,38.138,0,0,1,4.5,3.5c1,1.2,8.5,5.4,16.3,8.4C2588.4,1374,2596.8,1374.3,2598.6,1362.4Z" fill="#eea886"/>
        <path id="Path_1916" data-name="Path 1916" d="M2585.9,1357.3s-.2,4.8.5,6.2c.6,1.4-9.9,4.2-9.9,4.2S2580,1357.3,2585.9,1357.3Z" fill="#cf8c6c"/>
        <path id="Path_1917" data-name="Path 1917" d="M2588.4,1374s2.8,2.7,3.1,3.1c.3.5,13.6-7.9,7-14.7C2592,1355.7,2588.4,1374,2588.4,1374Z" fill="#eea886"/>
        <path id="Path_1918" data-name="Path 1918" d="M2742.3,1829.1l-4.3-14.4-19.5,2.8,2.7,13Z" fill="#3b3f66"/>
        <path id="Path_1919" data-name="Path 1919" d="M2614.4,1830.2l-1.2,7.8-21.2-3.9,1.4-11.7Z" fill="#555c94"/>
        <g id="Group_1968" data-name="Group 1968">
          <path id="Path_1920" data-name="Path 1920" d="M2664.3,1611.2s12.8,77.4,15.6,85.6c2.9,8.3,37.2,122.1,37.2,122.1s22.5-.2,23.5-3.6c0,0-19.5-125.2-19.1-129.9s-4.2-137.4-4.2-137.4S2665.9,1603.5,2664.3,1611.2Z" fill="#2b2e4a"/>
        </g>
        <g id="Group_1969" data-name="Group 1969">
          <path id="Path_1921" data-name="Path 1921" d="M2635.8,1538.9s-27.7,129.8-30.1,139.7-14.3,143.2-14.3,143.2,5.5,11.9,26.7,7.8c0,0,31.3-142.8,33.8-147.6,9.7-18.5,57.5-107.9,62.2-120.8,4.7-12.8,3.7-27.9,3.7-27.9S2683.9,1513.5,2635.8,1538.9Z" fill="#323657"/>
        </g>
        <g id="Group_1970" data-name="Group 1970">
          <path id="Path_1922" data-name="Path 1922" d="M2649.5,1370.5s-11.6,27.6-14.4,26.7-34.2-39.1-34.2-39.1-15,18-13.1,20.2c2.7,3,39.4,66.6,44.7,65.5,5.2-1,29.2-39.1,29.2-39.1S2663.5,1375.7,2649.5,1370.5Z" fill="#ff9f55"/>
        </g>
        <g id="Group_1971" data-name="Group 1971">
          <path id="Path_1923" data-name="Path 1923" d="M2698.2,1318.2s-29.3,21.6-37.5,30.2c-8.1,8.6-30.8,44.6-29.4,55.6,5.3,42,7.6,77.8,7.3,106.5-.3,24.9-8.3,31.1-3.4,31.6,5.7.5,78,28.2,88.7,31.6,0,0-5.5-87.9-8.9-98.1S2728.5,1359.5,2698.2,1318.2Z" fill="#ff9f55"/>
        </g>
        <path id="Path_1924" data-name="Path 1924" d="M2501.5,1278.7l-2.9,33.2-2.9,33.2s35.7-15.5,78.5-11.8l1.3-14.7,1.3-14.7C2533.9,1300.2,2501.5,1278.7,2501.5,1278.7Z" fill="#fff"/>
        <rect id="Rectangle_320" data-name="Rectangle 320" width="6.3" height="66.7" transform="matrix(0.996, 0.088, -0.088, 0.996, 2495.161, 1278.163)" fill="#f75a5a"/>
        <path id="Path_1925" data-name="Path 1925" d="M2613.2,1838s-16-3.4-16.5-3.9c-.6-.5-3.9-6.9-6.4-5.8s-2.7,8.8-5.1,10c-2.4,1.3-21.8,13.8-24.2,16.2-2.4,2.3-16.8.7-18.6,4.7-1.7,4.1-2,13.7,19.6,11.8s46.3,2.1,50.9-.4C2617.7,1868.1,2614.6,1844.3,2613.2,1838Z" fill="#202338"/>
        <path id="Path_1926" data-name="Path 1926" d="M2742.3,1829.1s-16.3-.8-16.9-1.2-4.9-6.2-7.2-4.7c-2.3,1.4-1.2,9.1-3.4,10.7s-19.3,17.2-21.3,19.8c-2,2.7-16.5,3.4-17.6,7.6-1.1,4.3.2,13.9,21.2,8.5,21.1-5.3,46-5.4,50.2-8.6C2751.6,1858.1,2744.7,1835,2742.3,1829.1Z" fill="#202338"/>
        <g id="Group_1972" data-name="Group 1972">
          <path id="Path_1927" data-name="Path 1927" d="M2652,1545.3s-2.1,7.9-5.3,9.6,14.3,18.9,14.3,18.9,7.5-15.6,7.3-17.2S2652,1545.3,2652,1545.3Z" fill="#eea987"/>
        </g>
        <path id="Path_1928" data-name="Path 1928" d="M2639.7,1551.9s-7.3,33.5-7.1,43.7c.2,10.3,39-15.5,37.3-25.8Z" fill="#323657"/>
        <g id="Group_1974" data-name="Group 1974">
          <g id="Group_1973" data-name="Group 1973">
            <path id="Path_1929" data-name="Path 1929" d="M2698.2,1318.2s-53.7,56.6-50.3,50.3c12-22.5,20.1-26.2,20-30.5-.1-3.2-1.2-12.7-1.3-15.9-.3-6-.7-10.9-.7-10.9s26.8-36.3,25.4-23.8S2698.2,1318.2,2698.2,1318.2Z" fill="#eea886"/>
          </g>
        </g>
        <g id="Group_1976" data-name="Group 1976">
          <g id="Group_1975" data-name="Group 1975">
            <path id="Path_1930" data-name="Path 1930" d="M2649.2,1249.6s-7.5,16.9-7.7,20.9.8,7,.1,11.6c-.7,4.7-4.9,14.6-4.4,17.4.5,3.3,7.6,1.7,8.4,7.2.9,5.5,5.8,15.9,8.3,16.2,6.5.7,31.7-9.1,33.4-14.3s11.2-34.2,14.2-39.7c2.9-5.5-43.4-36.7-47.8-28Z" fill="#eea886"/>
          </g>
        </g>
        <path id="Path_1931" data-name="Path 1931" d="M2712.6,1263.3c3.6-14.4-13-16.4-13-16.4s-10.6-12.8-36.4-11.7c-25.9,1-22.5,34.8-22.5,34.8s17.9-2.4,25.7-.3c0,0,.7,14.4-.2,18l9.8-.7s-.9-12.8,3.8-13.3,5.8,27.2,14.4,33.4a9.022,9.022,0,0,1,1.2-3.8h0a105.527,105.527,0,0,0,7-14C2706.3,1281,2710.8,1270.7,2712.6,1263.3Z" fill="#543628"/>
        <g id="Group_1978" data-name="Group 1978">
          <g id="Group_1977" data-name="Group 1977">
            <path id="Path_1932" data-name="Path 1932" d="M2673.2,1276.7s3.8-9.7,12.3-3.2c6.2,4.7-.6,21.1-6.6,20.9S2670.4,1285.1,2673.2,1276.7Z" fill="#eea886"/>
          </g>
        </g>
        <path id="Path_1933" data-name="Path 1933" d="M2688.7,1304s-1.4,5.2-2.8,6.3c-1.4,1.2-8.1,6.4-19.5,9.8l.8,10.2C2667.2,1330.4,2689.5,1322.2,2688.7,1304Z" fill="#c48a6f"/>
        <path id="Path_1934" data-name="Path 1934" d="M2572.1,1369.6l-3.9-1.4,12.9-37.4,9.9,3.4-10.9,31.7C2578.8,1369.5,2575.6,1370.8,2572.1,1369.6Z" fill="#a53c3b"/>
        <path id="Path_1935" data-name="Path 1935" d="M2576,1343.7s10.4,6,9.7,7.8a3.119,3.119,0,0,1-2.1,2l3.2,4.4s.5,4.1-4.1,3.4c0,0,.8,3.8-3.5,2.6,0,0-.6,2.7-2.7,2.5s-8.7-4.3-8.7-4.3-1-1.5,1-3.8a4.275,4.275,0,0,1,1-4.6,4.419,4.419,0,0,1,1.8-4.3s-.9-5.2,3.3-6.3C2574.8,1343.1,2575.5,1343.4,2576,1343.7Z" fill="#db9c7c"/>
        <path id="Path_1936" data-name="Path 1936" d="M2603.7,1336.3l-37.7-2.9,2.8-31,37.5,4.4Z" fill="#e55353"/>
        <path id="Path_1937" data-name="Path 1937" d="M2594.3,1351.8s-8.2-.4-12.8,1.4c-1,.4-2,1-2,2.1s1.6,2.6,5.1,2.9a28.161,28.161,0,0,1,8,2.4S2596.4,1359.9,2594.3,1351.8Z" fill="#eea886"/>
        <path id="Path_1938" data-name="Path 1938" d="M2678.2,1495.3s13.9-40.7,13.9-43.4-6.5-51.9-6.5-51.9l19,58.1Z" fill="#b36222"/>
        <g id="Group_1979" data-name="Group 1979">
          <path id="Path_1939" data-name="Path 1939" d="M2710.4,1352.7s19,99.1,20.5,109.2c1.4,9.6-62.6,99.9-62.6,99.9l-20.6-12.7s52-90.8,52-94.9c0-4.2-22.7-84.2-22.7-84.2s-9.8-17.5,8.3-25.6C2703.3,1336.3,2710.4,1352.7,2710.4,1352.7Z" fill="#ff9f55"/>
        </g>
      </g>
      <g id="Group_2019" data-name="Group 2019">
        <g id="Group_1983" data-name="Group 1983">
          <g id="Group_1982" data-name="Group 1982">
            <g id="Group_1981" data-name="Group 1981">
              <path id="Path_1940" data-name="Path 1940" d="M2195.6,1878.4l-13.8-346.1h238.4l13.8,346.2,2.8-.1-13.9-348.9h-244l13.9,349Z" fill="url(#linear-gradient)"/>
            </g>
          </g>
        </g>
        <g id="Group_1986" data-name="Group 1986">
          <g id="Group_1985" data-name="Group 1985">
            <g id="Group_1984" data-name="Group 1984">
              <path id="Path_1941" data-name="Path 1941" d="M2184.3,1532.3h238.5L2409,1878.4l2.7.1,13.9-349H2181.7l-13.9,348.9,2.7.1Z" fill="url(#linear-gradient-2)"/>
            </g>
          </g>
        </g>
        <g id="Group_1988" data-name="Group 1988">
          <g id="Group_1987" data-name="Group 1987">
            <path id="Path_1942" data-name="Path 1942" d="M2410.3,1765.9H2169.1l13.9-347.6h241.2Z" fill="#107245"/>
          </g>
        </g>
        <g id="Group_1990" data-name="Group 1990">
          <g id="Group_1989" data-name="Group 1989">
            <path id="Path_1943" data-name="Path 1943" d="M2201,1765.9h241.2l-13.8-347.6H2187.2Z" fill="url(#linear-gradient-3)"/>
          </g>
        </g>
        <g id="Group_1993" data-name="Group 1993">
          <g id="Group_1992" data-name="Group 1992">
            <g id="Group_1991" data-name="Group 1991">
              <rect id="Rectangle_321" data-name="Rectangle 321" width="12.1" height="92.3" transform="translate(2391.3 1631.4)" fill="#e3f2ff"/>
            </g>
          </g>
        </g>
        <g id="Group_1996" data-name="Group 1996">
          <g id="Group_1995" data-name="Group 1995">
            <g id="Group_1994" data-name="Group 1994">
              <rect id="Rectangle_322" data-name="Rectangle 322" width="12.1" height="81.9" transform="translate(2367.3 1641.7)" fill="#e3f2ff"/>
            </g>
          </g>
        </g>
        <g id="Group_1999" data-name="Group 1999">
          <g id="Group_1998" data-name="Group 1998">
            <g id="Group_1997" data-name="Group 1997">
              <rect id="Rectangle_323" data-name="Rectangle 323" width="12.1" height="68.5" transform="translate(2341.3 1655.2)" fill="#e3f2ff"/>
            </g>
          </g>
        </g>
        <g id="Group_2002" data-name="Group 2002">
          <g id="Group_2001" data-name="Group 2001">
            <g id="Group_2000" data-name="Group 2000">
              <rect id="Rectangle_324" data-name="Rectangle 324" width="12.1" height="51.5" transform="translate(2314.6 1672.1)" fill="#e3f2ff"/>
            </g>
          </g>
        </g>
        <g id="Group_2004" data-name="Group 2004">
          <g id="Group_2003" data-name="Group 2003">
            <path id="Path_1944" data-name="Path 1944" d="M2242.2,1661.2l-2.6-.9,22.8-64.2L2312,1583l17.8-70.4,38.3-16.9,8.6-54.7,2.7.4-8.8,56.3-38.4,16.9-17.9,70.7-49.7,13.2Z" fill="#e3f2ff"/>
          </g>
        </g>
        <g id="Group_2005" data-name="Group 2005">
          <circle id="Ellipse_206" data-name="Ellipse 206" cx="7.4" cy="7.4" r="7.4" transform="translate(2305.8 1576.8)" fill="#ffb255"/>
        </g>
        <g id="Group_2006" data-name="Group 2006">
          <path id="Path_1945" data-name="Path 1945" d="M2318.8,1591a8.778,8.778,0,1,1,1.3-12.4A8.965,8.965,0,0,1,2318.8,1591Zm-9.5-11.5a6.044,6.044,0,1,0,8.5.9A5.951,5.951,0,0,0,2309.3,1579.5Z" fill="#e3f2ff"/>
        </g>
        <g id="Group_2007" data-name="Group 2007">
          <circle id="Ellipse_207" data-name="Ellipse 207" cx="7.4" cy="7.4" r="7.4" transform="translate(2323.8 1506.7)" fill="#ffb555"/>
        </g>
        <g id="Group_2008" data-name="Group 2008">
          <path id="Path_1946" data-name="Path 1946" d="M2336.8,1520.9a8.816,8.816,0,1,1,1.3-12.4A8.871,8.871,0,0,1,2336.8,1520.9Zm-9.4-11.5a6.044,6.044,0,1,0,8.5.9A5.951,5.951,0,0,0,2327.4,1509.4Z" fill="#e3f2ff"/>
        </g>
        <g id="Group_2009" data-name="Group 2009">
          <circle id="Ellipse_208" data-name="Ellipse 208" cx="7.4" cy="7.4" r="7.4" transform="translate(2361.5 1489.3)" fill="#ffb555"/>
        </g>
        <g id="Group_2010" data-name="Group 2010">
          <path id="Path_1947" data-name="Path 1947" d="M2374.5,1503.5a8.848,8.848,0,1,1,1.2-12.4A8.772,8.772,0,0,1,2374.5,1503.5Zm-9.4-11.5a6.044,6.044,0,1,0,8.5.9A6.039,6.039,0,0,0,2365.1,1492Z" fill="#e3f2ff"/>
        </g>
        <g id="Group_2011" data-name="Group 2011">
          <circle id="Ellipse_209" data-name="Ellipse 209" cx="7.4" cy="7.4" r="7.4" transform="translate(2256.4 1590.5)" fill="#ffb455"/>
        </g>
        <g id="Group_2012" data-name="Group 2012">
          <path id="Path_1948" data-name="Path 1948" d="M2269.4,1604.8a8.848,8.848,0,1,1,1.2-12.4A8.772,8.772,0,0,1,2269.4,1604.8Zm-9.4-11.6a6.044,6.044,0,1,0,8.5.9A6.039,6.039,0,0,0,2260,1593.2Z" fill="#e3f2ff"/>
        </g>
        <g id="Group_2015" data-name="Group 2015">
          <g id="Group_2014" data-name="Group 2014">
            <g id="Group_2013" data-name="Group 2013">
              <path id="Path_1949" data-name="Path 1949" d="M2288.3,1523.4h-63.8a5.335,5.335,0,0,1-5.3-5.3v-4.8a5.335,5.335,0,0,1,5.3-5.3h63.8a5.335,5.335,0,0,1,5.3,5.3v4.8A5.335,5.335,0,0,1,2288.3,1523.4Z" fill="#ebebeb"/>
            </g>
          </g>
        </g>
        <g id="Group_2018" data-name="Group 2018">
          <g id="Group_2017" data-name="Group 2017">
            <g id="Group_2016" data-name="Group 2016">
              <path id="Path_1950" data-name="Path 1950" d="M2288.3,1496.4h-63.8a5.335,5.335,0,0,1-5.3-5.3v-4.8a5.335,5.335,0,0,1,5.3-5.3h63.8a5.335,5.335,0,0,1,5.3,5.3v4.8A5.335,5.335,0,0,1,2288.3,1496.4Z" fill="#ebebeb"/>
            </g>
          </g>
        </g>
      </g>
      <g id="Group_2078" data-name="Group 2078">
        <g id="Group_2024" data-name="Group 2024">
          <g id="Group_2023" data-name="Group 2023">
            <g id="Group_2022" data-name="Group 2022">
              <g id="Group_2021" data-name="Group 2021">
                <g id="Group_2020" data-name="Group 2020">
                  <path id="Path_1951" data-name="Path 1951" d="M2074.7,1240.5s20.4,10,15.4,37.2c-5.1,27.2-7.3,30.9-1.6,41.5s12.3,56,7.2,64.5c-5.1,8.6-63-37.8-71-76.6-8-38.9,5.1-56.2,9.7-62.6C2039.1,1238,2056.7,1231.4,2074.7,1240.5Z" fill="#0e2d3d"/>
                </g>
              </g>
            </g>
          </g>
        </g>
        <g id="Group_2026" data-name="Group 2026">
          <g id="Group_2025" data-name="Group 2025">
            <path id="Path_1952" data-name="Path 1952" d="M2177.2,1207.3h-65.4v57.4l10-10h55.4Z" fill="#ffcb55"/>
          </g>
        </g>
        <g id="Group_2027" data-name="Group 2027">
          <path id="Path_1953" data-name="Path 1953" d="M2067,1871.6h4.6v-21.8s9.1,6.1,14.8,14.4c5.7,8.4,13.5,7.7,25.5,7.1,11.9-.5,11.4-5.3,10.3-12.1s-13.2-8.9-17.1-10-12.8-16.4-15.7-20.1a52.537,52.537,0,0,1-6-10s-2.2-9.1-13.3,0c-11,9.1-7.8,26.5-6.6,28.1C2064.9,1848.9,2067,1871.6,2067,1871.6Z" fill="#163342"/>
        </g>
        <g id="Group_2028" data-name="Group 2028">
          <path id="Path_1954" data-name="Path 1954" d="M2090.3,1849.2c4.1,2.7,14.8,0,14.8,0-3-3.9-21.6-30.1-21.6-30.1-11.3-6.6-15.8,2.5-15.8,2.5C2072.3,1823,2086.3,1846.6,2090.3,1849.2Z" fill="#eea886"/>
        </g>
        <g id="Group_2032" data-name="Group 2032">
          <g id="Group_2031" data-name="Group 2031">
            <g id="Group_2030" data-name="Group 2030">
              <g id="Group_2029" data-name="Group 2029">
                <path id="Path_1955" data-name="Path 1955" d="M2209.5,1446.3s7.4,1.4,9.9-2.1c2.2-3,7.1-5.2,8.6-5.9,2-.9,7.2-6.1,8.4-3.6s-8.1,9-9.7,10.7c-1.7,1.7,9.1,2.5,11,4.2s-.4,19.5-7.8,18.1-14.3-7.7-15.6-7.7a50.543,50.543,0,0,1-5.4-.8Z" fill="#eea886"/>
              </g>
            </g>
          </g>
        </g>
        <g id="Group_2036" data-name="Group 2036">
          <g id="Group_2035" data-name="Group 2035">
            <g id="Group_2034" data-name="Group 2034">
              <g id="Group_2033" data-name="Group 2033">
                <path id="Path_1956" data-name="Path 1956" d="M2236,1448.9s22.2,5.7,23.3,7.3c1.2,1.6.8,2.8-1.3,2.4s-21.6-4.9-21.6-4.9,25.1,11.2,26.3,12.3c.7.7.1,3-1,2.9s-26.7-9.8-26.7-9.8,23.4,10.5,24.2,11.7a1.726,1.726,0,0,1-2.2,2.4c-1.8-.7-24.1-9.2-24.1-9.2s16.6,8.7,16.6,10.1c0,.9-.4,2.9-4.6.5s-14.7-7-14.7-7Z" fill="#eea886"/>
              </g>
            </g>
          </g>
        </g>
        <g id="Group_2037" data-name="Group 2037">
          <path id="Path_1957" data-name="Path 1957" d="M2007,1873.1h2.9v-16a34.367,34.367,0,0,1,7.4,12.9c2.3,7.7,10.6,9.9,23.3,9.6,12.6-.4,12.8-5.3,11.8-12.8s-11.8-11.4-11.8-11.4c-4.8-4.3-16.7-22-16.7-22s-7.7-2-13.7,2.8c-6,4.9-4.1,15.8-4,18.7C2006.3,1857.6,2007,1873.1,2007,1873.1Z" fill="#163342"/>
        </g>
        <g id="Group_2038" data-name="Group 2038">
          <path id="Path_1958" data-name="Path 1958" d="M2015.7,1491.2s-15.1,19.6-19.2,42.8,2.4,101.3,2.2,112.8-10.9,40.1-8.7,61.7c2.1,21.6,10.6,129.4,10.6,129.4l23.1-4.6s-1.3-109.8,0-118.9,4-42.2,4.6-45.9c.5-3.7,33.9-102,33.9-118.7C2062.2,1533,2052.1,1463.9,2015.7,1491.2Z" fill="#1d3b54"/>
        </g>
        <g id="Group_2039" data-name="Group 2039">
          <path id="Path_1959" data-name="Path 1959" d="M2091.4,1498.9s24.8,94.5,27.7,107.6,7.2,23.9,7.2,29.5c0,12.9-4.8,33.6-4.8,33.6L2090.1,1820h-29.9s16.7-90.2,17.1-107.9,14.1-42.8,11.4-50.3-43-93.8-43-93.8S2015.1,1471.4,2091.4,1498.9Z" fill="#1d3b54"/>
        </g>
        <g id="Group_2040" data-name="Group 2040">
          <path id="Path_1960" data-name="Path 1960" d="M2040.5,1855.3l-16.7-22-13.7,2.8a64.259,64.259,0,0,0,10.3,17.3C2028.3,1862.1,2040.5,1855.3,2040.5,1855.3Z" fill="#eea886"/>
        </g>
        <g id="Group_2042" data-name="Group 2042">
          <g id="Group_2041" data-name="Group 2041">
            <path id="Path_1961" data-name="Path 1961" d="M2081.2,1338.3a31.164,31.164,0,0,1,17.9,9.2c7.7,8.3,15,21.4,17,25.9,2,4.4,30.3,45.3,31.8,46.2s15.7,5.7,25.1,8.8c14.6,4.9,43.7,15.5,43.7,15.5l-5.8,18.3s-54.9-18-68.6-21.3c-16.8-4.1-55.5-53.8-55.5-53.8S2058.1,1353.3,2081.2,1338.3Z" fill="#285173"/>
          </g>
        </g>
        <g id="Group_2044" data-name="Group 2044">
          <g id="Group_2043" data-name="Group 2043">
            <path id="Path_1962" data-name="Path 1962" d="M2063.4,1331.1s13.2,6.2,17.8,7.2c4.6.9,22.4,24.1,25.5,32.5s0,21.1-6.4,36-.4,19.8-3.3,34.7-2,70.5-1.4,78.8-86,20.8-103,5.7c0,0,11.6-50.2,25.3-64.5,3-3.1,2.6-23.7.6-28.9-2-5.1-24.8-43.5-24.8-43.5s-1.7-38.9,8.3-46.6c8.6-6.7,32.2-9.1,36.4-10.6C2042.5,1330.5,2054.8,1329.8,2063.4,1331.1Z" fill="#ffbf55"/>
          </g>
        </g>
        <g id="Group_2046" data-name="Group 2046">
          <g id="Group_2045" data-name="Group 2045">
            <path id="Path_1963" data-name="Path 1963" d="M2069.7,1315.8s-.4,3.6-.9,8.6c-.2,1.9-.4,4.1-.5,6.3a170,170,0,0,0-.7,17.3s-13.7,13.8-29.4-16.1c0,0,6.6-12.3,1.6-29.1C2034.9,1286.1,2069.7,1315.8,2069.7,1315.8Z" fill="#eea886"/>
          </g>
        </g>
        <g id="Group_2047" data-name="Group 2047">
          <path id="Path_1964" data-name="Path 1964" d="M2108.2,1412.3s3.3-22-.2-35.4c0,0,0,11.5-6.3,27.8Z" fill="#183c59"/>
        </g>
        <g id="Group_2048" data-name="Group 2048">
          <path id="Path_1965" data-name="Path 1965" d="M2027.7,1334s9.5,27.9,35.4,25.9c26-2.1,12.3-23.6,12.3-23.6s-6.5-3.7-8.3-4.1-28.7-.7-28.7-.7Z" fill="#eea886"/>
        </g>
        <g id="Group_2049" data-name="Group 2049">
          <path id="Path_1966" data-name="Path 1966" d="M2075.4,1336.3s13.6,37.6,13.6,75.9,1.1,100.7,5.8,120.5c4.7,19.7,18.3,80.7,18.3,80.7l10.6-5.5s-25.5-97.3-27.4-104.3,1.5-81.1,3.3-87.3,9.6-33.8,8.4-41.5c-1.5-9.7-10.6-24-25.2-36.2Z" fill="#285173"/>
        </g>
        <g id="Group_2050" data-name="Group 2050">
          <path id="Path_1967" data-name="Path 1967" d="M2032.8,1332.9a394.018,394.018,0,0,1,12.7,61.7c4.3,34.6-13.1,195.5-24.8,232l-45.3-7.3s9.7-113.7,23-134.4c13.2-20.7,17.4-39,3.2-82.2-14.3-43.2,6.3-64.6,6.3-64.6S2028.9,1333.3,2032.8,1332.9Z" fill="#285173"/>
        </g>
        <g id="Group_2051" data-name="Group 2051">
          <path id="Path_1968" data-name="Path 1968" d="M2081.7,1447.6l-54.9,95-61-35.2,52.5-96.4Z" fill="#616161"/>
        </g>
        <g id="Group_2052" data-name="Group 2052">
          <path id="Path_1969" data-name="Path 1969" d="M2075,1450.9l-48.7,84.4-54.2-31.3,46.6-85.7Z" fill="#e0cec7"/>
        </g>
        <g id="Group_2053" data-name="Group 2053">
          <path id="Path_1970" data-name="Path 1970" d="M2057.1,1443.3l3.4-6-21.9-12.6-4.3,5.4Z" fill="#616161"/>
        </g>
        <g id="Group_2059" data-name="Group 2059">
          <g id="Group_2058" data-name="Group 2058">
            <g id="Group_2057" data-name="Group 2057">
              <g id="Group_2056" data-name="Group 2056">
                <g id="Group_2055" data-name="Group 2055">
                  <g id="Group_2054" data-name="Group 2054">
                    <path id="Path_1971" data-name="Path 1971" d="M2054.4,1510.7a12.145,12.145,0,0,1-3.6-.5s-1.9-1.1-3.3-1.8a9.756,9.756,0,0,0-1.1-.5,20.706,20.706,0,0,1-6.1-2.6c-2.4-1.7-11-11.6-11-11.6l4.1-6.2,3-6.3s18,1.2,20.5,2.5c.2.1.5.3.7.4,2,1.3,2.9,3.1,3.8,3.9.3.3,3.6,3.5,3.5,4.8a4.3,4.3,0,0,1-2.2,3.7s-.5,3.7-2.3,5.4a6.548,6.548,0,0,1-3.2,4.9S2056.4,1510.2,2054.4,1510.7Z" fill="#eea886"/>
                  </g>
                </g>
              </g>
            </g>
          </g>
        </g>
        <g id="Group_2061" data-name="Group 2061">
          <g id="Group_2060" data-name="Group 2060">
            <path id="Path_1972" data-name="Path 1972" d="M2017.2,1338.3s-16.7-4.8-26.2,13.6-9.5,26.2-10.8,35.2c-1.2,8.5-6.6,31.6-7.2,34s-12.9,30.9-7.2,40.8c5.7,10,63.4,39.4,63,41.6s10-22.3,10-22.3-23.3-13-27.2-17c-6.2-6.5-19.3-13.5-16.6-21.6,3.2-9.5,12.7-41.5,14.9-46.2C2012.1,1391.8,2031.3,1344.2,2017.2,1338.3Z" fill="#285173"/>
          </g>
        </g>
        <g id="Group_2066" data-name="Group 2066">
          <g id="Group_2065" data-name="Group 2065">
            <g id="Group_2064" data-name="Group 2064">
              <g id="Group_2063" data-name="Group 2063">
                <g id="Group_2062" data-name="Group 2062">
                  <path id="Path_1973" data-name="Path 1973" d="M2071.8,1243.5s29.7,9.3,13.6,60.5-56.6-5.9-52.4-37.1S2071.8,1243.5,2071.8,1243.5Z" fill="#eea987"/>
                </g>
              </g>
            </g>
          </g>
        </g>
        <g id="Group_2071" data-name="Group 2071">
          <g id="Group_2070" data-name="Group 2070">
            <g id="Group_2069" data-name="Group 2069">
              <g id="Group_2068" data-name="Group 2068">
                <g id="Group_2067" data-name="Group 2067">
                  <path id="Path_1974" data-name="Path 1974" d="M2088.4,1273.4s-14.7,14.5-39.4,16.3c0,0-9.5,11.1-10.2,15.5,0,0-22-37.5,5-60S2098.3,1264.1,2088.4,1273.4Z" fill="#0e2d3d"/>
                </g>
              </g>
            </g>
          </g>
        </g>
        <g id="Group_2076" data-name="Group 2076">
          <g id="Group_2075" data-name="Group 2075">
            <g id="Group_2074" data-name="Group 2074">
              <g id="Group_2073" data-name="Group 2073">
                <g id="Group_2072" data-name="Group 2072">
                  <path id="Path_1975" data-name="Path 1975" d="M2049.2,1290.7c-.2-3.7-2.5-12.2-8-9.8s.3,19.6,4,18.6C2045.2,1299.5,2049.7,1299.5,2049.2,1290.7Z" fill="#eea987"/>
                </g>
              </g>
            </g>
          </g>
        </g>
        <g id="Group_2077" data-name="Group 2077">
          <path id="Path_1976" data-name="Path 1976" d="M2068.9,1324.4c-.2,1.9-.4,4.1-.5,6.3,0,0-13.1-.8-21.9-20.3C2047,1311.3,2056.6,1325.4,2068.9,1324.4Z" fill="#a77860"/>
        </g>
      </g>
    </g>
  </g>
</svg>
