<svg xmlns="http://www.w3.org/2000/svg" width="61.226" height="59.297" viewBox="0 0 61.226 59.297">
  <defs>
    <style>
      .cls-1 {
        fill: #f55;
      }

      .cls-2 {
        fill: none;
        stroke: #f55;
        stroke-linecap: round;
        stroke-linejoin: bevel;
        stroke-width: 2px;
      }
    </style>
  </defs>
  <g id="lego-md" transform="translate(607 -4098)">
    <g id="lego" transform="translate(-609.894 4098)">
      <g id="Lego_Square">
        <g id="Group_36" data-name="Group 36">
          <path id="Path_15" data-name="Path 15" class="cls-1" d="M24.185,15.672c-2.414,0-4.235-1.051-4.235-2.444s1.821-2.445,4.235-2.445,4.233,1.051,4.233,2.445S26.6,15.672,24.185,15.672Zm0-3.389c-1.7,0-2.735.657-2.735.945s1.033.944,2.735.944,2.733-.656,2.733-.944S25.961,12.283,24.185,12.283Z"/>
          <path id="Path_16" data-name="Path 16" class="cls-1" d="M24.185,20.325c-2.414,0-4.235-1.051-4.235-2.445V13.229a.75.75,0,0,1,1.5,0V17.88c0,.289,1.033.945,2.735.945,1.776,0,2.733-.671,2.733-.945V13.229a.75.75,0,1,1,1.5,0V17.88C28.418,19.274,26.6,20.325,24.185,20.325Z"/>
        </g>
        <g id="Group_37" data-name="Group 37">
          <path id="Path_17" data-name="Path 17" class="cls-1" d="M33.856,10.312c-2.415,0-4.235-1.05-4.235-2.443s1.82-2.446,4.235-2.446,4.235,1.051,4.235,2.446S36.271,10.312,33.856,10.312Zm0-3.39c-1.7,0-2.735.657-2.735.946s1.033.943,2.735.943,2.735-.655,2.735-.943S35.633,6.922,33.856,6.922Z"/>
          <path id="Path_18" data-name="Path 18" class="cls-1" d="M33.856,14.964c-2.415,0-4.235-1.051-4.235-2.445V7.868a.75.75,0,0,1,1.5,0v4.651c0,.289,1.033.945,2.735.945,1.776,0,2.735-.671,2.735-.945V7.868a.75.75,0,0,1,1.5,0v4.651C38.092,13.913,36.271,14.964,33.856,14.964Z"/>
        </g>
        <g id="Group_38" data-name="Group 38">
          <path id="Path_19" data-name="Path 19" class="cls-1" d="M14.367,10.329c-2.414,0-4.235-1.05-4.235-2.443s1.821-2.445,4.235-2.445S18.6,6.492,18.6,7.886,16.781,10.329,14.367,10.329Zm0-3.388c-1.776,0-2.735.671-2.735.945s1.033.943,2.735.943S17.1,8.174,17.1,7.886,16.143,6.941,14.367,6.941Z"/>
          <path id="Path_20" data-name="Path 20" class="cls-1" d="M14.367,14.982c-2.414,0-4.235-1.051-4.235-2.445V7.886a.75.75,0,0,1,1.5,0v4.651c0,.274.959.945,2.735.945s2.734-.671,2.734-.945V7.886a.75.75,0,0,1,1.5,0v4.651C18.6,13.931,16.781,14.982,14.367,14.982Z"/>
        </g>
        <g id="Group_39" data-name="Group 39">
          <path id="Path_21" data-name="Path 21" class="cls-1" d="M24.25,4.889c-2.415,0-4.236-1.05-4.236-2.443S21.835,0,24.25,0s4.234,1.051,4.234,2.446S26.666,4.889,24.25,4.889Zm0-3.389c-1.7,0-2.736.657-2.736.946s1.034.943,2.736.943,2.734-.655,2.734-.943S26.027,1.5,24.25,1.5Z"/>
          <path id="Path_22" data-name="Path 22" class="cls-1" d="M24.25,9.542c-2.415,0-4.236-1.051-4.236-2.445V2.446a.75.75,0,0,1,1.5,0V7.1c0,.289,1.034.945,2.736.945s2.734-.656,2.734-.945V2.446a.75.75,0,0,1,1.5,0V7.1C28.485,8.491,26.666,9.542,24.25,9.542Z"/>
        </g>
        <g id="Group_40" data-name="Group 40">
          <path id="Path_26" data-name="Path 26" class="cls-1" d="M30.6,7.714a.993.993,0,0,1-.458-.112L27.655,6.317a1,1,0,1,1,.918-1.776L31.06,5.826a1,1,0,0,1-.46,1.888Z" transform="translate(0.067)"/>
          <path id="Path_30" data-name="Path 30" class="cls-1" d="M30.6,7.714a.993.993,0,0,1-.458-.112L27.655,6.317a1,1,0,1,1,.918-1.776L31.06,5.826a1,1,0,0,1-.46,1.888Z" transform="translate(10.067 6)"/>
          <path id="Path_27" data-name="Path 27" class="cls-1" d="M4.937,14.223a1,1,0,0,1-.479-1.878L9.686,9.5a1,1,0,1,1,.955,1.755L5.413,14.1A.977.977,0,0,1,4.937,14.223Z"/>
          <path id="Path_28" data-name="Path 28" class="cls-1" d="M17.625,7.548a1,1,0,0,1-.459-1.889L19.9,4.249a1,1,0,0,1,.916,1.778l-2.736,1.41A1,1,0,0,1,17.625,7.548Z" transform="translate(-0.411)"/>
          <path id="Path_29" data-name="Path 29" class="cls-2" d="M5.328,13.424l-.434,23.41L44.956,58.417V35.25Z" transform="translate(-1)"/>
        </g>
      </g>
    </g>
    <g id="lego-2" data-name="lego" transform="translate(-589.894 4109)">
      <g id="Lego_Square-2" data-name="Lego_Square">
        <g id="Group_36-2" data-name="Group 36">
          <path id="Path_15-2" data-name="Path 15" class="cls-1" d="M24.185,15.672c-2.414,0-4.235-1.051-4.235-2.444s1.821-2.445,4.235-2.445,4.233,1.051,4.233,2.445S26.6,15.672,24.185,15.672Zm0-3.389c-1.7,0-2.735.657-2.735.945s1.033.944,2.735.944,2.733-.656,2.733-.944S25.961,12.283,24.185,12.283Z"/>
          <path id="Path_16-2" data-name="Path 16" class="cls-1" d="M24.185,20.325c-2.414,0-4.235-1.051-4.235-2.445V13.229a.75.75,0,0,1,1.5,0V17.88c0,.289,1.033.945,2.735.945,1.776,0,2.733-.671,2.733-.945V13.229a.75.75,0,1,1,1.5,0V17.88C28.418,19.274,26.6,20.325,24.185,20.325Z"/>
        </g>
        <g id="Group_37-2" data-name="Group 37">
          <path id="Path_17-2" data-name="Path 17" class="cls-1" d="M33.856,10.312c-2.415,0-4.235-1.05-4.235-2.443s1.82-2.446,4.235-2.446,4.235,1.051,4.235,2.446S36.271,10.312,33.856,10.312Zm0-3.39c-1.7,0-2.735.657-2.735.946s1.033.943,2.735.943,2.735-.655,2.735-.943S35.633,6.922,33.856,6.922Z"/>
          <path id="Path_18-2" data-name="Path 18" class="cls-1" d="M33.856,14.964c-2.415,0-4.235-1.051-4.235-2.445V7.868a.75.75,0,0,1,1.5,0v4.651c0,.289,1.033.945,2.735.945,1.776,0,2.735-.671,2.735-.945V7.868a.75.75,0,0,1,1.5,0v4.651C38.092,13.913,36.271,14.964,33.856,14.964Z"/>
        </g>
        <g id="Group_38-2" data-name="Group 38">
          <path id="Path_19-2" data-name="Path 19" class="cls-1" d="M14.367,10.329c-2.414,0-4.235-1.05-4.235-2.443s1.821-2.445,4.235-2.445S18.6,6.492,18.6,7.886,16.781,10.329,14.367,10.329Zm0-3.388c-1.776,0-2.735.671-2.735.945s1.033.943,2.735.943S17.1,8.174,17.1,7.886,16.143,6.941,14.367,6.941Z"/>
          <path id="Path_20-2" data-name="Path 20" class="cls-1" d="M14.367,14.982c-2.414,0-4.235-1.051-4.235-2.445V7.886a.75.75,0,0,1,1.5,0v4.651c0,.274.959.945,2.735.945s2.734-.671,2.734-.945V7.886a.75.75,0,0,1,1.5,0v4.651C18.6,13.931,16.781,14.982,14.367,14.982Z"/>
        </g>
        <g id="Group_39-2" data-name="Group 39">
          <path id="Path_21-2" data-name="Path 21" class="cls-1" d="M24.25,4.889c-2.415,0-4.236-1.05-4.236-2.443S21.835,0,24.25,0s4.234,1.051,4.234,2.446S26.666,4.889,24.25,4.889Zm0-3.389c-1.7,0-2.736.657-2.736.946s1.034.943,2.736.943,2.734-.655,2.734-.943S26.027,1.5,24.25,1.5Z"/>
          <path id="Path_22-2" data-name="Path 22" class="cls-1" d="M24.25,9.542c-2.415,0-4.236-1.051-4.236-2.445V2.446a.75.75,0,0,1,1.5,0V7.1c0,.289,1.034.945,2.736.945s2.734-.656,2.734-.945V2.446a.75.75,0,0,1,1.5,0V7.1C28.485,8.491,26.666,9.542,24.25,9.542Z"/>
        </g>
        <g id="Group_40-2" data-name="Group 40">
          <path id="Path_24" data-name="Path 24" class="cls-1" d="M23.9,48.011a1,1,0,0,1-1-1V24.106a1,1,0,0,1,.512-.873L42.632,12.474a1,1,0,0,1,1.488.873L44.1,36.234a1,1,0,0,1-.511.871l-19.2,10.778A.988.988,0,0,1,23.9,48.011Zm1-23.319V45.3l17.2-9.654.016-20.6Z"/>
          <path id="Path_25" data-name="Path 25" class="cls-1" d="M42.912,14.223a1.009,1.009,0,0,1-.477-.121l-5.229-2.84A1,1,0,0,1,38.161,9.5l5.229,2.84a1,1,0,0,1-.478,1.878Z"/>
          <path id="Path_26-2" data-name="Path 26" class="cls-1" d="M30.6,7.714a.993.993,0,0,1-.458-.112L27.655,6.317a1,1,0,1,1,.918-1.776L31.06,5.826a1,1,0,0,1-.46,1.888Z"/>
        </g>
      </g>
    </g>
  </g>
</svg>
