<svg xmlns="http://www.w3.org/2000/svg" width="155.691" height="159.2" viewBox="0 0 155.691 159.2">
  <g id="secure" transform="translate(-299.914 -131.3)">
    <ellipse id="Ellipse_1" data-name="Ellipse 1" cx="74.9" cy="12.8" rx="74.9" ry="12.8" transform="translate(301.9 264.9)" fill="#d2ebff" opacity="0.56"/>
    <path id="Path_2" data-name="Path 2" d="M370,270.1c-26.3-5.5-46.3-25-57.9-56.2a157.851,157.851,0,0,1-9.4-43.7l-.5-8.9,70.2-24.8,70.2,24.8-.5,8.9a162.941,162.941,0,0,1-9.4,43.7c-11.6,31.2-31.6,50.6-57.9,56.2l-2.5.5Z" fill="#89caf7"/>
    <path id="Path_3" data-name="Path 3" d="M428.1,170.9l-55.6-19.7h0l-55.6,19.7s3.8,74.5,55.6,85.4h0C424.3,245.4,428.1,170.9,428.1,170.9Z" fill="#d2ebff"/>
    <g id="Group_10" data-name="Group 10">
      <path id="Path_4" data-name="Path 4" d="M372.3,248.7l25.5-3.6h22.4l20.1,3.9-34.5,17.4Z" fill="#073a93"/>
      <path id="Path_5" data-name="Path 5" d="M419.1,267.1s-45.1-24.8-50.4-16.7c-7.7,11.7,4.1,17.6,45.9,28.9Z" fill="#1f487e"/>
      <g id="Group_6" data-name="Group 6">
        <path id="Path_6" data-name="Path 6" d="M431.6,279.5h0a5.3,5.3,0,0,0-2.9-6.9l-10.4-4.3-4,9.8,10.4,4.3A5.388,5.388,0,0,0,431.6,279.5Z" fill="#1858b5"/>
        <path id="Path_7" data-name="Path 7" d="M417.6,269.8l7.9,3.3a3.585,3.585,0,1,1-2.8,6.6l-7.9-3.3Z" fill="#489bff"/>
        <path id="Path_8" data-name="Path 8" d="M414.9,276.4l10.4,4.3a5.268,5.268,0,0,0,6.5-2.1,3.179,3.179,0,0,1-.3.9,5.3,5.3,0,0,1-6.9,2.9l-10.4-4.3Z" fill="#063272" opacity="0.45"/>
        <path id="Path_9" data-name="Path 9" d="M418.4,276.5l1.7-4a.365.365,0,0,1,.5-.2h0a.365.365,0,0,1,.2.5l-1.7,4a.365.365,0,0,1-.5.2h0C418.4,277,418.3,276.7,418.4,276.5Z" fill="#e6e6e6"/>
        <path id="Path_10" data-name="Path 10" d="M420.8,277.5l1.7-4a.365.365,0,0,1,.5-.2h0a.365.365,0,0,1,.2.5l-1.7,4a.365.365,0,0,1-.5.2h0C420.8,278,420.7,277.7,420.8,277.5Z" fill="#e6e6e6"/>
        <path id="Path_11" data-name="Path 11" d="M423.5,278.7l1.7-4a.365.365,0,0,1,.5-.2h0a.365.365,0,0,1,.2.5l-1.7,4a.365.365,0,0,1-.5.2h0A.365.365,0,0,1,423.5,278.7Z" fill="#e6e6e6"/>
      </g>
      <path id="Path_12" data-name="Path 12" d="M435.5,233.6c-.7-2.4-4.1-6.4-7.2-14.7-3.2-8.6-16.8-9.5-16.8-9.5l-5.3,2.8-5.3-2.8s-13.6.9-16.8,9.5c-3.1,8.3-6.5,12.3-7.2,14.7s3.1,17.8,13.8,20h31C432.4,251.4,436.2,235.9,435.5,233.6Z" fill="#489bff"/>
      <g id="Group_8" data-name="Group 8">
        <g id="XMLID_30_">
          <path id="Path_13" data-name="Path 13" d="M412.1,209.4v4.2s-1,4.7-5.6,5.5a7.125,7.125,0,0,1-5.5-5.5v-4.2Z" fill="#f49290"/>
        </g>
        <g id="Group_7" data-name="Group 7">
          <path id="XMLID_29_" d="M395.9,201.1s-1.6-9.9,2.2-11.1c1-.3.3-3.6,6-3.6,7.8-.1,14-1.1,12.9,14.9Z" fill="#1f487e"/>
          <circle id="Ellipse_2" data-name="Ellipse 2" cx="2.7" cy="2.7" r="2.7" transform="translate(395.5 199.5)" fill="#ffb5b1"/>
          <circle id="Ellipse_3" data-name="Ellipse 3" cx="2.7" cy="2.7" r="2.7" transform="translate(411.9 199.5)" fill="#ffb5b1"/>
          <path id="Path_14" data-name="Path 14" d="M415.5,197.6h0a4.292,4.292,0,0,1-2.7-3.6l-1.2.3a17.9,17.9,0,0,1-10-.1l-.9-.2a4.523,4.523,0,0,1-2.8,3.6h0l-.1,4.4a14.906,14.906,0,0,0,2.8,8,7.672,7.672,0,0,0,6.1,3.1,7.4,7.4,0,0,0,6.1-3.1,14.906,14.906,0,0,0,2.8-8l-.1-4.4Z" fill="#ffb5b1"/>
        </g>
      </g>
      <path id="Path_15" data-name="Path 15" d="M420.7,233.8H392.3a2.9,2.9,0,0,0-2.9,2.9v17.1a2.9,2.9,0,0,0,2.9,2.9h28.4a2.9,2.9,0,0,0,2.9-2.9V236.7A2.9,2.9,0,0,0,420.7,233.8Z" fill="#d2ebff"/>
      <circle id="Ellipse_4" data-name="Ellipse 4" cx="3.5" cy="3.5" r="3.5" transform="translate(402.9 241.5)" fill="#89caf7"/>
      <path id="Path_16" data-name="Path 16" d="M392.4,267.1s45.1-24.8,50.4-16.7c7.7,11.7-4.1,17.6-45.9,28.9Z" fill="#1f487e"/>
      <g id="Group_9" data-name="Group 9">
        <path id="Path_17" data-name="Path 17" d="M379.9,279.5h0a5.3,5.3,0,0,1,2.9-6.9l10.4-4.3,4,9.8-10.4,4.3A5.426,5.426,0,0,1,379.9,279.5Z" fill="#1858b5"/>
        <path id="Path_18" data-name="Path 18" d="M396.6,276.4l-7.9,3.3a3.585,3.585,0,0,1-2.8-6.6l7.9-3.3Z" fill="#489bff"/>
        <path id="Path_19" data-name="Path 19" d="M396.6,276.4l-10.4,4.3a5.268,5.268,0,0,1-6.5-2.1,3.179,3.179,0,0,0,.3.9,5.3,5.3,0,0,0,6.9,2.9l10.4-4.3Z" fill="#063272" opacity="0.45"/>
        <path id="Path_20" data-name="Path 20" d="M393.1,276.5l-1.7-4a.365.365,0,0,0-.5-.2h0a.365.365,0,0,0-.2.5l1.7,4a.365.365,0,0,0,.5.2h0C393.1,277,393.2,276.7,393.1,276.5Z" fill="#e6e6e6"/>
        <path id="Path_21" data-name="Path 21" d="M390.7,277.5l-1.7-4a.365.365,0,0,0-.5-.2h0a.365.365,0,0,0-.2.5l1.7,4a.365.365,0,0,0,.5.2h0C390.7,278,390.8,277.7,390.7,277.5Z" fill="#e6e6e6"/>
        <path id="Path_22" data-name="Path 22" d="M388,278.7l-1.7-4a.365.365,0,0,0-.5-.2h0a.365.365,0,0,0-.2.5l1.7,4a.365.365,0,0,0,.5.2h0A.365.365,0,0,0,388,278.7Z" fill="#e6e6e6"/>
      </g>
    </g>
    <g id="Group_15" data-name="Group 15">
      <g id="Group_13" data-name="Group 13">
        <g id="Group_11" data-name="Group 11">
          <path id="Path_23" data-name="Path 23" d="M323.5,249s-11.9-19.1-8.3-21.8c3.7-2.8,7.3,8.5,9.2,6.7s-6.6-17.8-2.6-21.3,3.7,8.3,7.1,10.4c3.4,2.2-1.8-16,2.2-18.8,4.1-2.8,6,6.2,6,6.2s4.5-18,10.6-14.4c6.1,3.5-9.3,21.6-5.7,21s7.3-6.7,10.5-2.6c3.1,4.1-17.4,14.6-14.1,14.3s9.1-4.3,10.1-.7-16.6,10.2-14.8,11.4c1.8,1.3,11.1-5.9,12.5-.6C347.8,244,327.2,252.4,323.5,249Z" fill="#47b53b"/>
          <path id="Path_24" data-name="Path 24" d="M322.1,256.5a62.254,62.254,0,0,0,5.5-12c.8-2.2,1.4-4.5,2-6.8l.9-3a144.207,144.207,0,0,1,13.8-32.3l.2.1a146.2,146.2,0,0,0-13.8,32.3l-.9,3c-.6,2.2-1.3,4.5-2,6.8a54.86,54.86,0,0,1-5.6,12Z" fill="#d2ebff"/>
          <path id="Path_25" data-name="Path 25" d="M335.1,221.2h0a62.778,62.778,0,0,1-2.8-12.7c0-.1,0-.1.1-.1s.1,0,.1.1a60.209,60.209,0,0,0,2.7,12.6c0,.1,0,.1-.1.2C335.2,221.2,335.2,221.2,335.1,221.2Z" fill="#d2ebff"/>
          <path id="Path_26" data-name="Path 26" d="M333.5,226.1h0c-.1-.1-.1-.2,0-.2a101.432,101.432,0,0,1,11.6-7.7,12.234,12.234,0,0,1,2.4-1c.1,0,.1,0,.2.1,0,.1,0,.1-.1.2a10.143,10.143,0,0,0-2.4,1,101.432,101.432,0,0,0-11.6,7.7A.1.1,0,0,1,333.5,226.1Z" fill="#d2ebff"/>
          <path id="Path_27" data-name="Path 27" d="M330.8,234.3h0a52.257,52.257,0,0,1-5-8.9,65.924,65.924,0,0,1-2.4-7.1c0-.1,0-.1.1-.2.1,0,.1,0,.2.1a59.271,59.271,0,0,0,2.4,7.1,54.191,54.191,0,0,0,4.9,8.8v.2Z" fill="#d2ebff"/>
          <path id="Path_28" data-name="Path 28" d="M330.7,234.4a.349.349,0,0,1-.1-.2c0-.1.1-.1.2-.1a2.437,2.437,0,0,0,1.2,0,17.015,17.015,0,0,0,3.2-1c.2-.1.4-.1.6-.2,3.1-1.1,6.2-2,9.3-2.8.1,0,.1,0,.2.1,0,.1,0,.1-.1.2-3.1.8-6.3,1.7-9.3,2.8-.2.1-.4.1-.6.2a17.015,17.015,0,0,1-3.2,1,2.228,2.228,0,0,1-1.4,0Z" fill="#d2ebff"/>
          <path id="Path_29" data-name="Path 29" d="M327.5,245.1c-3.6-2.5-7.7-9.1-10.1-14,0-.1,0-.1.1-.2.1,0,.1,0,.2.1,2.4,4.9,6.5,11.5,10,13.9.1,0,.1.1,0,.2C327.6,245.1,327.5,245.2,327.5,245.1Z" fill="#d2ebff"/>
          <path id="Path_30" data-name="Path 30" d="M327.7,245.2h0c-.2-.1-.2-.2-.1-.3,0-.1.1-.1.2,0a2.3,2.3,0,0,0,2,.1l13-3.6c.1,0,.1,0,.2.1,0,.1,0,.1-.1.2l-13,3.6A2.763,2.763,0,0,1,327.7,245.2Z" fill="#d2ebff"/>
        </g>
        <g id="Group_12" data-name="Group 12">
          <path id="Path_31" data-name="Path 31" d="M322,248.7s-20.7-9-19.2-13.3c1.5-4.4,10.8,2.8,11.4.3.5-2.6-15.6-11-14.2-16.1,1.3-5.1,7.7,4.7,11.8,4.6,4-.1-10.6-12.1-8.8-16.8,1.8-4.6,8.5,1.7,8.5,1.7s-6.5-17.4.5-17.9,4.6,23.1,7.2,20.5,2.2-9.7,7.1-8.1-6.1,21.9-3.5,19.8,5.1-8.8,7.9-6.3c2.9,2.4-7.9,17.9-5.7,17.9s5.8-11.1,10-7.6C339.1,230.8,326.9,249.4,322,248.7Z" fill="#7bdf70"/>
          <path id="Path_32" data-name="Path 32" d="M325,255.6a65.461,65.461,0,0,0-2.2-13c-.6-2.3-1.4-4.5-2.2-6.7-.3-1-.7-2-1-3a145.633,145.633,0,0,1-6.9-34.5h.3a150.8,150.8,0,0,0,6.9,34.5c.3,1,.7,2,1,3,.7,2.2,1.5,4.5,2.2,6.7a65.415,65.415,0,0,1,2.3,13.1Z" fill="#d2ebff"/>
          <path id="Path_33" data-name="Path 33" d="M315.7,219.1h0a61.806,61.806,0,0,1-9.5-8.9V210h.2a56.629,56.629,0,0,0,9.4,8.9c.1,0,.1.1,0,.2Z" fill="#d2ebff"/>
          <path id="Path_34" data-name="Path 34" d="M317.1,224.2h0c-.1,0-.2-.1-.1-.2a110.074,110.074,0,0,1,5.2-13,8.258,8.258,0,0,1,1.4-2.2c0-.1.1-.1.2,0,.1,0,.1.1,0,.2a10.232,10.232,0,0,0-1.4,2.2,103.618,103.618,0,0,0-5.2,13C317.3,224.1,317.2,224.2,317.1,224.2Z" fill="#d2ebff"/>
          <path id="Path_35" data-name="Path 35" d="M319.6,232.4h0a55.21,55.21,0,0,1-9.2-4.5c-2.1-1.4-4.1-3-6-4.5-.1,0-.1-.1,0-.2,0-.1.1-.1.2,0a52.149,52.149,0,0,0,6,4.5,58.593,58.593,0,0,0,9.1,4.5c.1,0,.1.1.1.2Z" fill="#d2ebff"/>
          <path id="Path_36" data-name="Path 36" d="M319.6,232.5c-.1,0-.1,0-.1-.1s0-.1.1-.2a2.286,2.286,0,0,0,1-.7,26.506,26.506,0,0,0,2.1-2.6,1.756,1.756,0,0,1,.4-.5,92.148,92.148,0,0,1,6.1-7.6c0-.1.1-.1.2,0,.1,0,.1.1,0,.2a92.143,92.143,0,0,0-6.1,7.6,1.756,1.756,0,0,1-.4.5,17.826,17.826,0,0,1-2.1,2.7,2.925,2.925,0,0,1-1.2.7Z" fill="#d2ebff"/>
          <path id="Path_37" data-name="Path 37" d="M323,243.2c-4.3,0-11.5-3.1-16.3-5.8-.1,0-.1-.1-.1-.2s.1-.1.2-.1c4.8,2.7,11.8,5.8,16.1,5.8a.1.1,0,0,1,.1.1Z" fill="#d2ebff"/>
          <path id="Path_38" data-name="Path 38" d="M323.2,243.2h-.1a.1.1,0,0,1,0-.2c.6.1,1.2-.5,1.7-1.1l8.7-10.3c0-.1.1-.1.2,0,.1,0,.1.1,0,.2L325,242A2.663,2.663,0,0,1,323.2,243.2Z" fill="#d2ebff"/>
        </g>
      </g>
      <g id="Group_14" data-name="Group 14">
        <path id="Path_39" data-name="Path 39" d="M312.8,251.9l3.3,20.4a6,6,0,0,0,5.9,5h10.1a6,6,0,0,0,5.9-5l3.3-20.4Z" fill="#d2ebff"/>
        <path id="Path_40" data-name="Path 40" d="M341.3,251.9H312.8l.5,2.8h22l-2.8,17.6a6,6,0,0,1-5.9,5h5.6a6,6,0,0,0,5.9-5l2.8-17.6h0Z" fill="#accfe5"/>
        <path id="Path_41" data-name="Path 41" d="M341.6,246H312.5a3.009,3.009,0,0,0-3,3h0a3.009,3.009,0,0,0,3,3h29.1a3.009,3.009,0,0,0,3-3h0A3.009,3.009,0,0,0,341.6,246Z" fill="#d2ebff"/>
      </g>
    </g>
    <g id="Group_18" data-name="Group 18">
      <path id="Path_42" data-name="Path 42" d="M452.6,160.8H394a3.009,3.009,0,0,0-3,3v13.9a3.009,3.009,0,0,0,3,3h58.6a3.009,3.009,0,0,0,3-3V163.8A2.888,2.888,0,0,0,452.6,160.8Z" fill="#7bdf70"/>
      <g id="Group_16" data-name="Group 16">
        <path id="Path_43" data-name="Path 43" d="M405,177.7h-8.1a1.324,1.324,0,0,1-1.3-1.3V171a1.324,1.324,0,0,1,1.3-1.3H405a1.324,1.324,0,0,1,1.3,1.3v5.5A1.24,1.24,0,0,1,405,177.7Z" fill="#fff"/>
        <path id="Path_44" data-name="Path 44" d="M404.6,168.8h-1v-1.6a2.7,2.7,0,0,0-5.4,0v1.6h-1v-1.6a3.7,3.7,0,0,1,7.4,0Z" fill="#fff"/>
        <path id="Path_45" data-name="Path 45" d="M402.1,172.7a1.1,1.1,0,1,0-1.6,1l-.4,2.2H402l-.4-2.2A1.389,1.389,0,0,0,402.1,172.7Z" fill="#7bdf70"/>
      </g>
      <g id="Group_17" data-name="Group 17">
        <circle id="Ellipse_5" data-name="Ellipse 5" cx="1.8" cy="1.8" r="1.8" transform="translate(416.2 169.5)" fill="#fff"/>
        <circle id="Ellipse_6" data-name="Ellipse 6" cx="1.8" cy="1.8" r="1.8" transform="translate(423.1 169.5)" fill="#fff"/>
        <circle id="Ellipse_7" data-name="Ellipse 7" cx="1.8" cy="1.8" r="1.8" transform="translate(430.1 169.5)" fill="#fff"/>
        <circle id="Ellipse_8" data-name="Ellipse 8" cx="1.8" cy="1.8" r="1.8" transform="translate(437.1 169.5)" fill="#fff"/>
        <circle id="Ellipse_9" data-name="Ellipse 9" cx="1.8" cy="1.8" r="1.8" transform="translate(444.1 169.5)" fill="#fff"/>
      </g>
    </g>
    <g id="Group_20" data-name="Group 20">
      <path id="Path_46" data-name="Path 46" d="M359.5,134.4v24.3a3.116,3.116,0,0,1-3.1,3.1H311.9a3.116,3.116,0,0,1-3.1-3.1V134.4a3.116,3.116,0,0,1,3.1-3.1h44.5A3.116,3.116,0,0,1,359.5,134.4Z" fill="#489bff"/>
      <rect id="Rectangle_4" data-name="Rectangle 4" width="50.7" height="6.9" transform="translate(308.8 139.9)" fill="#7bdf70"/>
      <g id="Group_19" data-name="Group 19">
        <path id="Path_47" data-name="Path 47" d="M355.6,150.7H343a1.11,1.11,0,0,0-1.1,1.1h0a1.11,1.11,0,0,0,1.1,1.1h12.6a1.11,1.11,0,0,0,1.1-1.1h0A1.182,1.182,0,0,0,355.6,150.7Z" fill="#fff"/>
        <path id="Path_48" data-name="Path 48" d="M355.6,155.2h-5.7a1.11,1.11,0,0,0-1.1,1.1h0a1.11,1.11,0,0,0,1.1,1.1h5.7a1.11,1.11,0,0,0,1.1-1.1h0A1.11,1.11,0,0,0,355.6,155.2Z" fill="#fff"/>
      </g>
    </g>
  </g>
</svg>
