<svg xmlns="http://www.w3.org/2000/svg" xmlns:xlink="http://www.w3.org/1999/xlink" width="235.2" height="234.24" viewBox="0 0 235.2 234.24">
  <defs>
    <linearGradient id="linear-gradient" x1="0.554" y1="0.57" x2="-0.238" y2="-0.488" gradientUnits="objectBoundingBox">
      <stop offset="0" stop-color="#59bdef"/>
      <stop offset="1" stop-color="#7bdaff"/>
    </linearGradient>
    <linearGradient id="linear-gradient-2" x1="-0.002" y1="0.499" x2="1.002" y2="0.499" gradientUnits="objectBoundingBox">
      <stop offset="0" stop-color="#2573ba"/>
      <stop offset="1" stop-color="#0063ad"/>
    </linearGradient>
    <linearGradient id="linear-gradient-3" x1="-0.001" y1="0.499" x2="0.999" y2="0.499" gradientUnits="objectBoundingBox">
      <stop offset="0" stop-color="#3a9bd5"/>
      <stop offset="1" stop-color="#2573ba"/>
    </linearGradient>
    <linearGradient id="linear-gradient-4" x1="-0.005" y1="0.503" x2="1.004" y2="0.503" xlink:href="#linear-gradient-2"/>
    <linearGradient id="linear-gradient-5" x1="0.005" y1="0.504" x2="1.002" y2="0.504" xlink:href="#linear-gradient-2"/>
    <linearGradient id="linear-gradient-6" x1="0.004" y1="0.499" x2="1.001" y2="0.499" xlink:href="#linear-gradient-2"/>
    <linearGradient id="linear-gradient-7" x1="0.001" y1="0.5" x2="2.598" y2="0.5" gradientUnits="objectBoundingBox">
      <stop offset="0" stop-color="#3a9bd5"/>
      <stop offset="0.522" stop-color="#3088c8"/>
      <stop offset="1" stop-color="#297bbf"/>
    </linearGradient>
    <linearGradient id="linear-gradient-8" x1="-1.775" y1="3.037" x2="-0.169" y2="3.343" xlink:href="#linear-gradient"/>
    <radialGradient id="radial-gradient" cx="104.492" cy="-1356.916" r="23.245" gradientTransform="matrix(0.517, -0.651, 0.651, 0.517, 865.956, -901.633)" gradientUnits="userSpaceOnUse">
      <stop offset="0" stop-color="#fce586"/>
      <stop offset="0.227" stop-color="#fcdb7b"/>
      <stop offset="0.616" stop-color="#fcd06f"/>
      <stop offset="1" stop-color="#fccc6b"/>
    </radialGradient>
    <radialGradient id="radial-gradient-2" cx="126.323" cy="-1350.183" r="55.358" gradientTransform="matrix(0.517, -0.65, 0.65, 0.517, 868.933, -885.201)" xlink:href="#radial-gradient"/>
    <linearGradient id="linear-gradient-9" x1="0.001" y1="0.5" x2="1.001" y2="0.5" gradientUnits="objectBoundingBox">
      <stop offset="0" stop-color="#7bdaff"/>
      <stop offset="1" stop-color="#59bdef"/>
    </linearGradient>
    <radialGradient id="radial-gradient-3" cx="-176.625" cy="-621.868" r="33.353" gradientTransform="matrix(0.554, -0.17, 0.17, 0.554, -88.133, -486.292)" xlink:href="#radial-gradient"/>
    <radialGradient id="radial-gradient-4" cx="-166.653" cy="-613.233" r="79.781" gradientTransform="matrix(0.551, -0.169, 0.169, 0.551, -88.267, -483.505)" xlink:href="#radial-gradient"/>
    <radialGradient id="radial-gradient-5" cx="-180.64" cy="-618.985" r="33.307" gradientTransform="matrix(0.555, -0.17, 0.17, 0.555, -91.382, -484.017)" xlink:href="#radial-gradient"/>
    <radialGradient id="radial-gradient-6" cx="-171.966" cy="-611.007" r="79.781" gradientTransform="matrix(0.551, -0.169, 0.169, 0.551, -92.544, -482.295)" xlink:href="#radial-gradient"/>
    <radialGradient id="radial-gradient-7" cx="-188.805" cy="-654.11" r="33.307" gradientTransform="matrix(0.555, -0.17, 0.17, 0.555, -94.195, -511.343)" xlink:href="#radial-gradient"/>
    <radialGradient id="radial-gradient-8" cx="-176.889" cy="-644.643" r="79.518" gradientTransform="matrix(0.553, -0.17, 0.17, 0.553, -92.879, -507.158)" xlink:href="#radial-gradient"/>
    <radialGradient id="radial-gradient-9" cx="-154.267" cy="-638.076" r="33.353" gradientTransform="matrix(0.554, -0.17, 0.17, 0.554, -69.589, -496.527)" xlink:href="#radial-gradient"/>
    <radialGradient id="radial-gradient-10" cx="-144.524" cy="-629.786" r="79.781" gradientTransform="matrix(0.551, -0.169, 0.169, 0.551, -69.769, -494.072)" xlink:href="#radial-gradient"/>
    <radialGradient id="radial-gradient-11" cx="-175.141" cy="-643.103" r="33.4" gradientTransform="matrix(0.553, -0.17, 0.17, 0.553, -85.023, -502.77)" xlink:href="#radial-gradient"/>
    <radialGradient id="radial-gradient-12" cx="-163.776" cy="-634.234" r="79.781" gradientTransform="matrix(0.551, -0.169, 0.169, 0.551, -84.019, -499.211)" xlink:href="#radial-gradient"/>
    <radialGradient id="radial-gradient-13" cx="-181.485" cy="-642.66" r="33.4" gradientTransform="matrix(0.553, -0.17, 0.17, 0.553, -89.888, -503.019)" xlink:href="#radial-gradient"/>
    <radialGradient id="radial-gradient-14" cx="-170.175" cy="-633.508" r="79.781" gradientTransform="matrix(0.551, -0.169, 0.169, 0.551, -88.979, -499.279)" xlink:href="#radial-gradient"/>
    <radialGradient id="radial-gradient-15" cx="-184.672" cy="-636.608" r="33.307" gradientTransform="matrix(0.555, -0.17, 0.17, 0.555, -92.748, -497.721)" xlink:href="#radial-gradient"/>
    <radialGradient id="radial-gradient-16" cx="-172.604" cy="-627.116" r="79.518" gradientTransform="matrix(0.553, -0.17, 0.17, 0.553, -91.323, -493.463)" xlink:href="#radial-gradient"/>
    <radialGradient id="radial-gradient-17" cx="-258.61" cy="-360.184" r="31.54" gradientTransform="matrix(0.61, -0.056, 0.056, 0.61, -211.453, -281.734)" xlink:href="#radial-gradient"/>
    <radialGradient id="radial-gradient-18" cx="-240.728" cy="-341.976" r="74.579" gradientTransform="matrix(0.614, -0.057, 0.057, 0.614, -203.395, -272.093)" xlink:href="#radial-gradient"/>
    <radialGradient id="radial-gradient-19" cx="-254.123" cy="250.236" r="25.062" gradientTransform="matrix(0.753, 0.166, -0.166, 0.753, -144.04, 111.372)" xlink:href="#radial-gradient"/>
    <radialGradient id="radial-gradient-20" cx="-250.456" cy="270.414" r="59.501" gradientTransform="matrix(0.755, 0.166, -0.166, 0.755, -139.305, 115.625)" xlink:href="#radial-gradient"/>
    <radialGradient id="radial-gradient-21" cx="216.664" cy="-1279.079" r="25.281" gradientTransform="matrix(0.525, -0.556, 0.556, 0.525, 768.734, -797.781)" xlink:href="#radial-gradient"/>
    <radialGradient id="radial-gradient-22" cx="247.366" cy="-1275.82" r="59.78" gradientTransform="matrix(0.528, -0.559, 0.559, 0.528, 784.675, -775.325)" xlink:href="#radial-gradient"/>
    <linearGradient id="linear-gradient-10" x1="-14.285" y1="1.875" x2="-12.855" y2="2.233" gradientUnits="objectBoundingBox">
      <stop offset="0" stop-color="#36c583"/>
      <stop offset="0.907" stop-color="#1b5b8b"/>
      <stop offset="1" stop-color="#0063ad"/>
    </linearGradient>
    <linearGradient id="linear-gradient-11" x1="-27.968" y1="0.495" x2="-26.967" y2="0.495" gradientUnits="objectBoundingBox">
      <stop offset="0" stop-color="#0063ad"/>
      <stop offset="1" stop-color="#2573ba"/>
    </linearGradient>
    <linearGradient id="linear-gradient-12" x1="-14.717" y1="1.951" x2="-13.562" y2="1.951" xlink:href="#linear-gradient-9"/>
  </defs>
  <g id="report2" transform="translate(-267.8 -86.66)">
    <g id="Group_2088" data-name="Group 2088">
      <g id="Group_2082" data-name="Group 2082">
        <path id="Path_2020" data-name="Path 2020" d="M311.6,213.7,292,202.4l15.6-9,19.5,11.3Z" fill="#041860" opacity="0.6"/>
        <path id="Path_2021" data-name="Path 2021" d="M312.3,218l-27.7-16,22.2-12.8,27.7,16ZM286,202l26.4,15.2,20.8-12L306.8,190Z" fill="#16c172"/>
        <path id="Path_2022" data-name="Path 2022" d="M311.6,187.6,292,176.3l15.6-9,19.5,11.3Z" fill="url(#linear-gradient)"/>
        <path id="Path_2023" data-name="Path 2023" d="M327.1,190.7V178.6l-15.5,9v12.1Z" fill="url(#linear-gradient-2)"/>
        <path id="Path_2024" data-name="Path 2024" d="M292,176.3v12.1l19.6,11.3V187.6Z" fill="url(#linear-gradient-3)"/>
      </g>
      <g id="Group_2087" data-name="Group 2087">
        <g id="Group_2083" data-name="Group 2083">
          <path id="Path_2025" data-name="Path 2025" d="M304,173.4l-8.4,4.9v2.6l2.5,1.5v-2.6l8.4-4.9Z" fill="#fff"/>
          <path id="Path_2026" data-name="Path 2026" d="M309.4,176.5l-8.5,4.9V184l2.6,1.5v-2.6l8.4-4.9Z" fill="#fff"/>
          <path id="Path_2027" data-name="Path 2027" d="M314.8,179.6l-8.5,4.9v2.7l2.5,1.4V186l8.5-4.9Z" fill="#fff"/>
        </g>
        <g id="Group_2084" data-name="Group 2084">
          <path id="Path_2028" data-name="Path 2028" d="M304,173.4v1.1l1.6.9.9-.5Z" fill="#a9ebff"/>
          <path id="Path_2029" data-name="Path 2029" d="M296.5,180.4l-.9.5,2.5,1.5v-1.1Z" fill="#a9ebff"/>
          <path id="Path_2030" data-name="Path 2030" d="M304,173.4l-8.4,4.9v2.6l.9-.5v-1.6l7.5-4.3Z" fill="url(#linear-gradient-4)"/>
        </g>
        <g id="Group_2085" data-name="Group 2085">
          <path id="Path_2031" data-name="Path 2031" d="M309.4,176.5v1.1l1.6.9.9-.5Z" fill="#a9ebff"/>
          <path id="Path_2032" data-name="Path 2032" d="M301.9,183.5l-1,.5,2.6,1.5v-1.1Z" fill="#a9ebff"/>
          <path id="Path_2033" data-name="Path 2033" d="M309.4,176.5l-8.5,4.9V184l1-.5v-1.6l7.5-4.3Z" fill="url(#linear-gradient-5)"/>
        </g>
        <g id="Group_2086" data-name="Group 2086">
          <path id="Path_2034" data-name="Path 2034" d="M314.8,179.6v1.1l1.6.9.9-.5Z" fill="#a9ebff"/>
          <path id="Path_2035" data-name="Path 2035" d="M307.2,186.6l-.9.6,2.5,1.4v-1.1Z" fill="#a9ebff"/>
          <path id="Path_2036" data-name="Path 2036" d="M314.8,179.6l-8.5,4.9v2.7l.9-.6v-1.5l7.6-4.4Z" fill="url(#linear-gradient-6)"/>
        </g>
      </g>
    </g>
    <g id="Group_2105" data-name="Group 2105">
      <path id="Path_2037" data-name="Path 2037" d="M413.3,320.9c-23,0-45.9-5-63.4-15.1-17-9.8-26.4-22.9-26.4-36.8s9.4-27,26.4-36.8c35-20.2,91.9-20.2,126.8,0C493.7,242,503,255,503,269c0,13.9-9.4,27-26.4,36.8h0C459.2,315.9,436.2,320.9,413.3,320.9Zm-.1-103.2c-22.8,0-45.7,5-63.1,15.1-16.8,9.7-26,22.6-26,36.2,0,13.7,9.2,26.5,26,36.2,34.8,20.1,91.4,20.1,126.2,0h0c16.8-9.7,26-22.6,26-36.2,0-13.7-9.2-26.5-26-36.2C458.9,222.7,436.1,217.7,413.2,217.7Z" fill="#16c172"/>
      <path id="Path_2038" data-name="Path 2038" d="M458.6,295.1c-25,14.5-65.6,14.5-90.7,0-25-14.5-25-37.9,0-52.4s65.6-14.5,90.7,0C483.6,257.2,483.6,280.7,458.6,295.1Z" fill="#13247a" opacity="0.5"/>
      <g id="Group_2090" data-name="Group 2090">
        <path id="Path_2039" data-name="Path 2039" d="M454.1,125.1,388.4,87.2a2.9,2.9,0,0,0-2.8-.3l-4.5,2.6,2.9,1.8V245.1c0,3.2,1.9,6.9,4.3,8.3l64.9,37.5-.9,3.3,4.5-2.6h0c.9-.5,1.5-1.7,1.5-3.5V133.4C458.4,130.2,456.5,126.5,454.1,125.1Z" fill="url(#linear-gradient-7)"/>
        <path id="Path_2040" data-name="Path 2040" d="M449.5,294l-65.6-38c-2.4-1.4-4.3-5.1-4.3-8.3V93.1c0-3.2,1.9-4.6,4.3-3.3l65.7,37.9c2.4,1.4,4.3,5.1,4.3,8.3V290.7C453.9,293.9,451.9,295.4,449.5,294Z" fill="url(#linear-gradient-8)"/>
        <path id="Path_2041" data-name="Path 2041" d="M453.9,290.8l-74.3-42.9V93l74.3,42.9Z" fill="#0f65b2"/>
        <g id="Group_2089" data-name="Group 2089">
          <path id="Path_2042" data-name="Path 2042" d="M442,293.8l-66.3-38.3a7.98,7.98,0,0,1-4-7V102.9a2.685,2.685,0,0,1,4-2.3L442,138.9a7.98,7.98,0,0,1,4,7V291.6A2.7,2.7,0,0,1,442,293.8Z" fill="#fff" opacity="0.4"/>
          <path id="Path_2043" data-name="Path 2043" d="M443.3,294.4a2.822,2.822,0,0,1-1.5-.4l-66.3-38.3a8.4,8.4,0,0,1-4.2-7.2V102.9a2.648,2.648,0,0,1,1.5-2.5,2.991,2.991,0,0,1,2.9,0L442,138.7a8.4,8.4,0,0,1,4.2,7.2V291.6a2.648,2.648,0,0,1-1.5,2.5A3.194,3.194,0,0,1,443.3,294.4Zm-69-193.9a2.663,2.663,0,0,0-1.2.3,2.4,2.4,0,0,0-1.2,2V248.5a7.731,7.731,0,0,0,3.9,6.7l66.3,38.3a2.548,2.548,0,0,0,2.4,0,2.4,2.4,0,0,0,1.2-2V145.8a7.731,7.731,0,0,0-3.9-6.7l-66.3-38.3A2.663,2.663,0,0,0,374.3,100.5Z" fill="#fff"/>
        </g>
        <path id="Path_2044" data-name="Path 2044" d="M421.6,115.3l-9.8-5.7a1.559,1.559,0,0,1-.6-1.2h0a.46.46,0,0,1,.6-.5l9.8,5.7a1.559,1.559,0,0,1,.6,1.2h0C422.2,115.3,421.9,115.5,421.6,115.3Z" fill="#0063ad"/>
      </g>
      <path id="Path_2045" data-name="Path 2045" d="M425.6,203.2c1.3.8,2.4,0,2.4-1.8V147.6a6.05,6.05,0,0,0-2.4-4.7l-53.8-31.1a12.252,12.252,0,0,0-.2,1.9V172Z" fill="#041860" opacity="0.2"/>
      <g id="Group_2091" data-name="Group 2091">
        <path id="Path_2046" data-name="Path 2046" d="M385.2,183.3v1.3a8.183,8.183,0,0,0-4.3-.6c-6.1.4-13.2,5.3-15.8,10.8a8.59,8.59,0,0,0-1,4.2l-1.2-.4,1.3,2h0c1.1,1.7,3.3,2.7,6.4,2.4,6.1-.4,13.2-5.3,15.8-10.8,1.3-2.7,1.3-5.1.2-6.8h0Z" fill="#f4a856"/>
        <path id="Path_2047" data-name="Path 2047" d="M385.1,190.1c-2.7,5.5-9.7,10.3-15.8,10.8-6.1.4-8.9-3.6-6.2-9.1s9.7-10.3,15.8-10.8S387.7,184.6,385.1,190.1Z" fill="#fccc6b"/>
        <path id="Path_2048" data-name="Path 2048" d="M385.1,190.1c-2.7,5.5-9.7,10.3-15.8,10.8-6.1.4-8.9-3.6-6.2-9.1s9.7-10.3,15.8-10.8S387.7,184.6,385.1,190.1Z" fill="url(#radial-gradient)"/>
        <path id="Path_2049" data-name="Path 2049" d="M377.9,196.4a16.418,16.418,0,0,1-7.9,3c-2.5.2-4.5-.5-5.5-2s-1-3.6.1-5.8c2.2-4.6,8.2-8.7,13.4-9.1,2.5-.2,4.5.5,5.5,2s1,3.6-.1,5.8A17.615,17.615,0,0,1,377.9,196.4Zm-7.6-10.8a15.681,15.681,0,0,0-5.5,6c-1.1,2.2-1.1,4.2-.2,5.6,1,1.4,2.8,2.1,5.3,1.9,5.1-.4,11-4.4,13.2-9,1.1-2.2,1.1-4.2.2-5.6-1-1.4-2.8-2.1-5.3-1.9A17.206,17.206,0,0,0,370.3,185.6Z" fill="#f4a856"/>
        <path id="Path_2050" data-name="Path 2050" d="M383.3,190.2c-2.2,4.6-8.2,8.7-13.3,9-5.1.4-7.4-3.1-5.2-7.7s8.2-8.7,13.3-9S385.5,185.6,383.3,190.2Z" fill="url(#radial-gradient-2)"/>
        <path id="Path_2051" data-name="Path 2051" d="M365.1,192c2.2-4.6,8.2-8.7,13.3-9,2.4-.2,4.2.5,5.2,1.7-.9-1.5-2.8-2.4-5.5-2.2-5.1.4-11.1,4.4-13.3,9-1.2,2.4-1.1,4.5,0,5.9C364,196.1,364,194.2,365.1,192Z" fill="#f4a856"/>
        <path id="Path_2052" data-name="Path 2052" d="M384.8,189.7c-2.7,5.5-9.7,10.3-15.8,10.8-2.9.2-5.1-.6-6.2-2.1,1.1,1.8,3.3,2.8,6.5,2.6,6.1-.4,13.2-5.3,15.8-10.8,1.4-2.9,1.3-5.3,0-7C386.1,184.7,386,187,384.8,189.7Z" fill="#fce586"/>
      </g>
      <path id="Path_2053" data-name="Path 2053" d="M383.2,196.6a14.92,14.92,0,0,0,3.2-4.5c1.3-2.7,1.3-5.1.2-6.8l-1.4-2a.1.1,0,0,0-.1-.1l-.1-.1h0c-1.2-1.5-3.3-2.4-6.3-2.2a20.583,20.583,0,0,0-10.3,4.3l11,11.4h3.8Z" fill="#f4a856"/>
      <g id="Group_2094" data-name="Group 2094">
        <path id="Path_2054" data-name="Path 2054" d="M418.7,147.4l-78.1-45.1a1.364,1.364,0,0,0-1.6-.1h0l-1.2.7a1.338,1.338,0,0,1,.5.1,3.729,3.729,0,0,0-.2,1.2V158a6.05,6.05,0,0,0,2.4,4.7l78.1,45.1c.1.1.3.1.4.2v.6l1.2-.7h0a2.222,2.222,0,0,0,.8-2V152A5.37,5.37,0,0,0,418.7,147.4Z" fill="#fff"/>
        <path id="Path_2055" data-name="Path 2055" d="M417.5,208.3l-78.1-45.1a6.05,6.05,0,0,1-2.4-4.7V104.7c0-1.8,1.1-2.6,2.4-1.8L417.5,148a6.05,6.05,0,0,1,2.4,4.7v53.8C420,208.3,418.9,209.1,417.5,208.3Z" fill="url(#linear-gradient-9)"/>
        <g id="Group_2092" data-name="Group 2092">
          <path id="Path_2056" data-name="Path 2056" d="M394.3,150.8v-7.7l1.6.9a5.545,5.545,0,0,1,.8.6,4.349,4.349,0,0,1,.6.7,2.01,2.01,0,0,1,.4.8,3.4,3.4,0,0,1,.1,1c0,.9-.3,1.3-1,1a3.126,3.126,0,0,1,.9,1.1,3.339,3.339,0,0,1,.3,1.5,1.668,1.668,0,0,1-.5,1.4c-.3.2-.8.1-1.4-.2Zm1.2-3.8.4.2c.4.2.6.3.7.2a1.292,1.292,0,0,0,.2-.8,1.268,1.268,0,0,0-.1-.6.52.52,0,0,0-.2-.4l-.3-.3a2.186,2.186,0,0,0-.5-.3l-.2-.1Zm0,3.5.4.3c.4.2.6.3.8.1a1.292,1.292,0,0,0,.2-.8,3.087,3.087,0,0,0-.2-1.1,2.047,2.047,0,0,0-.8-.8l-.4-.2Z" fill="#fff"/>
          <path id="Path_2057" data-name="Path 2057" d="M398.5,153.3l1.4-6.9,1.3.7,1.3,8.5-1.1-.7-.3-1.9-1.2-.7-.3,1.6Zm1.5-1.8.9.5-.4-3.4Z" fill="#fff"/>
          <path id="Path_2058" data-name="Path 2058" d="M403.1,155.9v-7.7l.8.5,1.6,5.3v-4.3l1,.6V158l-.8-.5-1.6-5.5v4.6Z" fill="#fff"/>
          <path id="Path_2059" data-name="Path 2059" d="M407.6,158.5v-7.7l1.2.7v3.3l1.3-2.6,1.2.7-1.3,2.7,1.4,5.1-1.2-.7-1.1-4.3-.2.4v3.1Z" fill="#fff"/>
        </g>
        <g id="Group_2093" data-name="Group 2093">
          <path id="Path_2060" data-name="Path 2060" d="M358.6,163.1l-14.8-8.5v-2l14.8,8.5Z" fill="#fff"/>
          <path id="Path_2061" data-name="Path 2061" d="M376.8,173.6,362,165.1v-2l14.8,8.6Z" fill="#fff"/>
          <path id="Path_2062" data-name="Path 2062" d="M395,184.2l-14.8-8.6v-2l14.8,8.6Z" fill="#fff"/>
          <path id="Path_2063" data-name="Path 2063" d="M413.2,194.7l-14.8-8.6v-2l14.8,8.6Z" fill="#fff"/>
        </g>
        <path id="Path_2064" data-name="Path 2064" d="M417.5,148l-78-45c-1.3-.8-2.4,0-2.4,1.8v53.8a3.4,3.4,0,0,0,.1,1c4.2-3,21-12.3,53.3,5.5,11.7,6.5,21.6,5.6,29.5,1.4V152.7A5.853,5.853,0,0,0,417.5,148Z" fill="#fff" opacity="0.2"/>
        <path id="Path_2065" data-name="Path 2065" d="M369.4,145.3a76.561,76.561,0,0,0,27.7-9L339.5,103c-1.3-.8-2.4,0-2.4,1.8v51.5C342.8,151.7,352.7,147.5,369.4,145.3Z" fill="#fff" opacity="0.2"/>
      </g>
      <g id="Group_2095" data-name="Group 2095">
        <path id="Path_2066" data-name="Path 2066" d="M387.1,275.5l-.7,1.1a8.5,8.5,0,0,0-3.2-3c-5.3-3.1-13.8-3.1-19.1-.1a8.291,8.291,0,0,0-3.2,2.9l-.8-1v2.4h0c-.1,2,1.2,4.1,3.9,5.7,5.3,3.1,13.8,3.1,19.1.1,2.6-1.5,4-3.5,4-5.5h0Z" fill="#f4a856"/>
        <path id="Path_2067" data-name="Path 2067" d="M383.1,281c-5.3,3-13.9,3-19.1-.1-5.3-3.1-5.2-8,0-11.1,5.3-3,13.9-3,19.1.1C388.5,273,388.4,277.9,383.1,281Z" fill="#fccc6b"/>
        <path id="Path_2068" data-name="Path 2068" d="M383.1,281c-5.3,3-13.9,3-19.1-.1-5.3-3.1-5.2-8,0-11.1,5.3-3,13.9-3,19.1.1C388.5,273,388.4,277.9,383.1,281Z" fill="url(#radial-gradient-3)"/>
        <path id="Path_2069" data-name="Path 2069" d="M373.7,282.1a16.87,16.87,0,0,1-8.2-2c-2.2-1.3-3.4-3-3.4-4.8s1.2-3.5,3.4-4.7c4.5-2.6,11.7-2.5,16.2.1,2.2,1.3,3.4,3,3.4,4.8s-1.2,3.5-3.4,4.7A17.181,17.181,0,0,1,373.7,282.1Zm-.2-13.1a15.664,15.664,0,0,0-7.9,1.9c-2.1,1.2-3.3,2.8-3.3,4.5s1.1,3.3,3.2,4.6c4.4,2.6,11.5,2.6,16,.1,2.1-1.2,3.3-2.8,3.3-4.5s-1.1-3.3-3.2-4.6A15.229,15.229,0,0,0,373.5,269Z" fill="#f4a856"/>
        <path id="Path_2070" data-name="Path 2070" d="M381.6,280.1c-4.4,2.5-11.6,2.5-16.1-.1-4.4-2.6-4.4-6.7,0-9.3,4.4-2.5,11.6-2.5,16.1.1S386.1,277.5,381.6,280.1Z" fill="url(#radial-gradient-4)"/>
        <path id="Path_2071" data-name="Path 2071" d="M365.6,271.3c4.4-2.5,11.6-2.5,16.1.1,2.1,1.2,3.2,2.8,3.3,4.4.1-1.8-1-3.6-3.3-4.9-4.4-2.6-11.6-2.6-16.1-.1-2.3,1.3-3.5,3.1-3.3,4.9C362.4,274,363.5,272.5,365.6,271.3Z" fill="#f4a856"/>
        <path id="Path_2072" data-name="Path 2072" d="M383.1,280.4c-5.3,3-13.9,3-19.1-.1-2.5-1.5-3.8-3.4-3.9-5.3-.1,2.1,1.2,4.2,3.9,5.8,5.3,3.1,13.8,3.1,19.1.1,2.8-1.6,4.1-3.7,4-5.8C387,277.1,385.7,279,383.1,280.4Z" fill="#fce586"/>
      </g>
      <g id="Group_2096" data-name="Group 2096">
        <path id="Path_2073" data-name="Path 2073" d="M389.5,272.1l-.7,1.1a8.5,8.5,0,0,0-3.2-3c-5.3-3.1-13.8-3.1-19.1-.1a8.291,8.291,0,0,0-3.2,2.9l-.8-1v2.4h0c-.1,2,1.2,4.1,3.9,5.7,5.3,3.1,13.8,3.1,19.1.1,2.6-1.5,4-3.5,4-5.5h0Z" fill="#f4a856"/>
        <path id="Path_2074" data-name="Path 2074" d="M385.5,277.6c-5.3,3-13.9,3-19.1-.1-5.3-3.1-5.2-8,0-11.1,5.3-3,13.9-3,19.1.1C390.8,269.7,390.8,274.6,385.5,277.6Z" fill="#fccc6b"/>
        <path id="Path_2075" data-name="Path 2075" d="M385.5,277.6c-5.3,3-13.9,3-19.1-.1-5.3-3.1-5.2-8,0-11.1,5.3-3,13.9-3,19.1.1C390.8,269.7,390.8,274.6,385.5,277.6Z" fill="url(#radial-gradient-5)"/>
        <path id="Path_2076" data-name="Path 2076" d="M376,278.7a16.87,16.87,0,0,1-8.2-2c-2.2-1.3-3.4-3-3.4-4.8s1.2-3.5,3.4-4.7c4.5-2.6,11.7-2.5,16.2.1,2.2,1.3,3.4,3,3.4,4.8s-1.2,3.5-3.4,4.7A16.047,16.047,0,0,1,376,278.7Zm-.1-13.1a15.664,15.664,0,0,0-7.9,1.9c-2.1,1.2-3.3,2.8-3.3,4.5s1.1,3.3,3.2,4.6c4.4,2.6,11.5,2.6,16,.1,2.1-1.2,3.3-2.8,3.3-4.5s-1.1-3.3-3.2-4.6A16.758,16.758,0,0,0,375.9,265.6Z" fill="#f4a856"/>
        <path id="Path_2077" data-name="Path 2077" d="M383.9,276.8c-4.4,2.5-11.6,2.5-16.1-.1-4.4-2.6-4.4-6.7,0-9.3,4.4-2.5,11.6-2.5,16.1.1S388.4,274.2,383.9,276.8Z" fill="url(#radial-gradient-6)"/>
        <path id="Path_2078" data-name="Path 2078" d="M367.9,267.9c4.4-2.5,11.6-2.5,16.1.1,2.1,1.2,3.2,2.8,3.3,4.4.1-1.8-1-3.6-3.3-4.9-4.4-2.6-11.6-2.6-16.1-.1-2.3,1.3-3.5,3.1-3.3,4.9C364.7,270.7,365.8,269.1,367.9,267.9Z" fill="#f4a856"/>
        <path id="Path_2079" data-name="Path 2079" d="M385.5,277.1c-5.3,3-13.9,3-19.1-.1-2.5-1.5-3.8-3.4-3.9-5.3-.1,2.1,1.2,4.2,3.9,5.8,5.3,3.1,13.8,3.1,19.1.1,2.8-1.6,4.1-3.7,4-5.8C389.3,273.8,388,275.7,385.5,277.1Z" fill="#fce586"/>
      </g>
      <g id="Group_2097" data-name="Group 2097">
        <path id="Path_2080" data-name="Path 2080" d="M407.3,288.6l-.7,1.1a8.5,8.5,0,0,0-3.2-3c-5.3-3.1-13.8-3.1-19.1-.1a8.291,8.291,0,0,0-3.2,2.9l-.8-1v2.4h0c-.1,2,1.2,4.1,3.9,5.7,5.3,3.1,13.8,3.1,19.1.1,2.6-1.5,4-3.5,4-5.5h0Z" fill="#f4a856"/>
        <path id="Path_2081" data-name="Path 2081" d="M403.3,294.1c-5.3,3-13.9,3-19.1-.1-5.3-3.1-5.2-8,0-11.1,5.3-3,13.9-3,19.1.1C408.6,286.2,408.6,291.1,403.3,294.1Z" fill="#fccc6b"/>
        <path id="Path_2082" data-name="Path 2082" d="M403.3,294.1c-5.3,3-13.9,3-19.1-.1-5.3-3.1-5.2-8,0-11.1,5.3-3,13.9-3,19.1.1C408.6,286.2,408.6,291.1,403.3,294.1Z" fill="url(#radial-gradient-7)"/>
        <path id="Path_2083" data-name="Path 2083" d="M393.8,295.2a16.87,16.87,0,0,1-8.2-2c-2.2-1.3-3.4-3-3.4-4.8s1.2-3.5,3.4-4.7c4.5-2.6,11.7-2.5,16.2.1,2.2,1.3,3.4,3,3.4,4.8s-1.2,3.5-3.4,4.7A16.047,16.047,0,0,1,393.8,295.2Zm-.1-13.1a15.664,15.664,0,0,0-7.9,1.9c-2.1,1.2-3.3,2.8-3.3,4.5s1.1,3.3,3.2,4.6c4.4,2.6,11.5,2.6,16,.1,2.1-1.2,3.3-2.8,3.3-4.5s-1.1-3.3-3.2-4.6A16.758,16.758,0,0,0,393.7,282.1Z" fill="#f4a856"/>
        <path id="Path_2084" data-name="Path 2084" d="M401.8,293.2c-4.4,2.5-11.6,2.5-16.1-.1-4.4-2.6-4.4-6.7,0-9.3,4.4-2.5,11.6-2.5,16.1.1C406.2,286.5,406.2,290.7,401.8,293.2Z" fill="url(#radial-gradient-8)"/>
        <path id="Path_2085" data-name="Path 2085" d="M385.7,284.4c4.4-2.5,11.6-2.5,16.1.1,2.1,1.2,3.2,2.8,3.3,4.4.1-1.8-1-3.6-3.3-4.9-4.4-2.6-11.6-2.6-16.1-.1-2.3,1.3-3.5,3.1-3.3,4.9C382.5,287.2,383.6,285.6,385.7,284.4Z" fill="#f4a856"/>
        <path id="Path_2086" data-name="Path 2086" d="M403.3,293.6c-5.3,3-13.9,3-19.1-.1-2.5-1.5-3.8-3.4-3.9-5.3-.1,2.1,1.2,4.2,3.9,5.8,5.3,3.1,13.8,3.1,19.1.1,2.8-1.6,4.1-3.7,4-5.8C407.2,290.3,405.8,292.2,403.3,293.6Z" fill="#fce586"/>
      </g>
      <g id="Group_2098" data-name="Group 2098">
        <path id="Path_2087" data-name="Path 2087" d="M380.2,293.3l-.7,1.1a8.5,8.5,0,0,0-3.2-3c-5.3-3.1-13.8-3.1-19.1-.1a8.291,8.291,0,0,0-3.2,2.9l-.8-1v2.4h0c-.1,2,1.2,4.1,3.9,5.7,5.3,3.1,13.8,3.1,19.1.1,2.6-1.5,4-3.5,4-5.5h0Z" fill="#f4a856"/>
        <path id="Path_2088" data-name="Path 2088" d="M376.2,298.8c-5.3,3-13.9,3-19.1-.1-5.3-3.1-5.2-8,0-11.1,5.3-3,13.9-3,19.1.1C381.6,290.8,381.5,295.8,376.2,298.8Z" fill="#fccc6b"/>
        <path id="Path_2089" data-name="Path 2089" d="M376.2,298.8c-5.3,3-13.9,3-19.1-.1-5.3-3.1-5.2-8,0-11.1,5.3-3,13.9-3,19.1.1C381.6,290.8,381.5,295.8,376.2,298.8Z" fill="url(#radial-gradient-9)"/>
        <path id="Path_2090" data-name="Path 2090" d="M366.8,299.9a16.87,16.87,0,0,1-8.2-2c-2.2-1.3-3.4-3-3.4-4.8s1.2-3.5,3.4-4.7c4.5-2.6,11.7-2.5,16.2.1,2.2,1.3,3.4,3,3.4,4.8s-1.2,3.5-3.4,4.7A16.311,16.311,0,0,1,366.8,299.9Zm-.2-13.1a15.664,15.664,0,0,0-7.9,1.9c-2.1,1.2-3.3,2.8-3.3,4.5s1.1,3.3,3.2,4.6c4.4,2.6,11.5,2.6,16,.1,2.1-1.2,3.3-2.8,3.3-4.5s-1.1-3.3-3.3-4.6A15.823,15.823,0,0,0,366.6,286.8Z" fill="#f4a856"/>
        <path id="Path_2091" data-name="Path 2091" d="M374.7,297.9c-4.4,2.5-11.6,2.5-16.1-.1-4.4-2.6-4.4-6.7,0-9.3,4.4-2.5,11.6-2.5,16.1.1S379.2,295.4,374.7,297.9Z" fill="url(#radial-gradient-10)"/>
        <path id="Path_2092" data-name="Path 2092" d="M358.7,289.1c4.4-2.5,11.6-2.5,16.1.1,2.1,1.2,3.2,2.8,3.3,4.4.1-1.8-1-3.6-3.3-4.9-4.4-2.6-11.6-2.6-16.1-.1-2.3,1.3-3.5,3.1-3.3,4.9C355.5,291.9,356.6,290.3,358.7,289.1Z" fill="#f4a856"/>
        <path id="Path_2093" data-name="Path 2093" d="M376.2,298.3c-5.3,3-13.9,3-19.1-.1-2.5-1.5-3.8-3.4-3.9-5.3-.1,2.1,1.2,4.2,3.9,5.8,5.3,3.1,13.8,3.1,19.1.1,2.8-1.6,4.1-3.7,4-5.8C380.1,295,378.8,296.9,376.2,298.3Z" fill="#fce586"/>
      </g>
      <g id="Group_2099" data-name="Group 2099">
        <path id="Path_2094" data-name="Path 2094" d="M393,288.3l-.7,1.1a8.5,8.5,0,0,0-3.2-3c-5.3-3.1-13.8-3.1-19.1-.1a8.291,8.291,0,0,0-3.2,2.9l-.8-1v2.4h0c-.1,2,1.2,4.1,3.9,5.7,5.3,3.1,13.8,3.1,19.1.1,2.6-1.5,4-3.5,4-5.5h0Z" fill="#f4a856"/>
        <path id="Path_2095" data-name="Path 2095" d="M389,293.8c-5.3,3-13.9,3-19.1-.1-5.3-3.1-5.3-8,0-11.1,5.3-3,13.9-3,19.1.1C394.4,285.9,394.3,290.8,389,293.8Z" fill="#fccc6b"/>
        <path id="Path_2096" data-name="Path 2096" d="M389,293.8c-5.3,3-13.9,3-19.1-.1-5.3-3.1-5.3-8,0-11.1,5.3-3,13.9-3,19.1.1C394.4,285.9,394.3,290.8,389,293.8Z" fill="url(#radial-gradient-11)"/>
        <path id="Path_2097" data-name="Path 2097" d="M379.6,294.9a16.87,16.87,0,0,1-8.2-2c-2.2-1.3-3.4-3-3.4-4.8s1.2-3.5,3.4-4.7c4.5-2.6,11.7-2.5,16.2.1,2.2,1.3,3.4,3,3.4,4.8s-1.2,3.5-3.4,4.7A16.047,16.047,0,0,1,379.6,294.9Zm-.2-13.1a15.664,15.664,0,0,0-7.9,1.9c-2.1,1.2-3.3,2.8-3.3,4.5s1.1,3.3,3.2,4.6c4.4,2.6,11.5,2.6,16,.1,2.1-1.2,3.3-2.8,3.3-4.5s-1.1-3.3-3.2-4.6A16.206,16.206,0,0,0,379.4,281.8Z" fill="#f4a856"/>
        <path id="Path_2098" data-name="Path 2098" d="M387.5,293c-4.4,2.5-11.6,2.5-16.1-.1-4.4-2.6-4.4-6.7,0-9.3,4.4-2.5,11.6-2.5,16.1.1S392,290.4,387.5,293Z" fill="url(#radial-gradient-12)"/>
        <path id="Path_2099" data-name="Path 2099" d="M371.5,284.1c4.4-2.5,11.6-2.5,16.1.1,2.1,1.2,3.2,2.8,3.3,4.4.1-1.8-1-3.6-3.3-4.9-4.4-2.6-11.6-2.6-16.1-.1-2.3,1.3-3.5,3.1-3.3,4.9C368.3,286.9,369.4,285.3,371.5,284.1Z" fill="#f4a856"/>
        <path id="Path_2100" data-name="Path 2100" d="M389,293.3c-5.3,3-13.9,3-19.1-.1-2.5-1.5-3.8-3.4-3.9-5.3-.1,2.1,1.2,4.2,3.9,5.8,5.3,3.1,13.8,3.1,19.1.1,2.8-1.6,4.1-3.7,4-5.8C392.9,290,391.6,291.9,389,293.3Z" fill="#fce586"/>
      </g>
      <g id="Group_2100" data-name="Group 2100">
        <path id="Path_2101" data-name="Path 2101" d="M396.5,285.6l-.7,1.1a8.5,8.5,0,0,0-3.2-3c-5.3-3.1-13.8-3.1-19.1-.1a8.291,8.291,0,0,0-3.2,2.9l-.8-1v2.4h0c-.1,2,1.2,4.1,3.9,5.7,5.3,3.1,13.8,3.1,19.1.1,2.6-1.5,4-3.5,4-5.5h0Z" fill="#f4a856"/>
        <path id="Path_2102" data-name="Path 2102" d="M392.5,291.1c-5.3,3-13.9,3-19.1-.1-5.3-3.1-5.3-8,0-11.1,5.3-3,13.9-3,19.1.1C397.9,283.2,397.8,288.1,392.5,291.1Z" fill="#fccc6b"/>
        <path id="Path_2103" data-name="Path 2103" d="M392.5,291.1c-5.3,3-13.9,3-19.1-.1-5.3-3.1-5.3-8,0-11.1,5.3-3,13.9-3,19.1.1C397.9,283.2,397.8,288.1,392.5,291.1Z" fill="url(#radial-gradient-13)"/>
        <path id="Path_2104" data-name="Path 2104" d="M383.1,292.2a16.87,16.87,0,0,1-8.2-2c-2.2-1.3-3.4-3-3.4-4.8s1.2-3.5,3.4-4.7c4.5-2.6,11.7-2.5,16.2.1,2.2,1.3,3.4,3,3.4,4.8s-1.2,3.5-3.4,4.7A16.047,16.047,0,0,1,383.1,292.2Zm-.2-13.1A15.664,15.664,0,0,0,375,281c-2.1,1.2-3.3,2.8-3.3,4.5s1.1,3.3,3.2,4.6c4.4,2.6,11.5,2.6,16,.1,2.1-1.2,3.3-2.8,3.3-4.5s-1.1-3.3-3.2-4.6A16.2,16.2,0,0,0,382.9,279.1Z" fill="#f4a856"/>
        <path id="Path_2105" data-name="Path 2105" d="M391,290.2c-4.4,2.5-11.6,2.5-16.1-.1-4.4-2.6-4.4-6.7,0-9.3,4.4-2.5,11.6-2.5,16.1.1C395.5,283.6,395.5,287.7,391,290.2Z" fill="url(#radial-gradient-14)"/>
        <path id="Path_2106" data-name="Path 2106" d="M375,281.4c4.4-2.5,11.6-2.5,16.1.1,2.1,1.2,3.2,2.8,3.3,4.4.1-1.8-1-3.6-3.3-4.9-4.4-2.6-11.6-2.6-16.1-.1-2.3,1.3-3.5,3.1-3.3,4.9C371.8,284.2,372.9,282.6,375,281.4Z" fill="#f4a856"/>
        <path id="Path_2107" data-name="Path 2107" d="M392.5,290.6c-5.3,3-13.9,3-19.1-.1-2.5-1.5-3.8-3.4-3.9-5.3-.1,2.1,1.2,4.2,3.9,5.8,5.3,3.1,13.8,3.1,19.1.1,2.8-1.6,4.1-3.7,4-5.8C396.4,287.3,395.1,289.2,392.5,290.6Z" fill="#fce586"/>
      </g>
      <g id="Group_2101" data-name="Group 2101">
        <path id="Path_2108" data-name="Path 2108" d="M398.4,280.4l-.7,1.1a8.5,8.5,0,0,0-3.2-3c-5.3-3.1-13.8-3.1-19.1-.1a8.291,8.291,0,0,0-3.2,2.9l-.8-1v2.4h0c-.1,2,1.2,4.1,3.9,5.7,5.3,3.1,13.8,3.1,19.1.1,2.6-1.5,4-3.5,4-5.5h0Z" fill="#f4a856"/>
        <path id="Path_2109" data-name="Path 2109" d="M394.4,285.9c-5.3,3-13.9,3-19.1-.1-5.3-3.1-5.2-8,0-11.1,5.3-3,13.9-3,19.1.1C399.7,278,399.7,282.9,394.4,285.9Z" fill="#fccc6b"/>
        <path id="Path_2110" data-name="Path 2110" d="M394.4,285.9c-5.3,3-13.9,3-19.1-.1-5.3-3.1-5.2-8,0-11.1,5.3-3,13.9-3,19.1.1C399.7,278,399.7,282.9,394.4,285.9Z" fill="url(#radial-gradient-15)"/>
        <path id="Path_2111" data-name="Path 2111" d="M384.9,287a16.87,16.87,0,0,1-8.2-2c-2.2-1.3-3.4-3-3.4-4.8s1.2-3.5,3.4-4.7c4.5-2.6,11.7-2.5,16.2.1,2.2,1.3,3.4,3,3.4,4.8s-1.2,3.5-3.4,4.7A16.047,16.047,0,0,1,384.9,287Zm-.1-13.1a15.664,15.664,0,0,0-7.9,1.9c-2.1,1.2-3.3,2.8-3.3,4.5s1.1,3.3,3.2,4.6c4.4,2.6,11.5,2.6,16,.1,2.1-1.2,3.3-2.8,3.3-4.5s-1.1-3.3-3.2-4.6A16.758,16.758,0,0,0,384.8,273.9Z" fill="#f4a856"/>
        <path id="Path_2112" data-name="Path 2112" d="M392.9,285c-4.4,2.5-11.6,2.5-16.1-.1-4.4-2.6-4.4-6.7,0-9.3,4.4-2.5,11.6-2.5,16.1.1C397.3,278.3,397.3,282.5,392.9,285Z" fill="url(#radial-gradient-16)"/>
        <path id="Path_2113" data-name="Path 2113" d="M376.8,276.2c4.4-2.5,11.6-2.5,16.1.1,2.1,1.2,3.2,2.8,3.3,4.4.1-1.8-1-3.6-3.3-4.9-4.4-2.6-11.6-2.6-16.1-.1-2.3,1.3-3.5,3.1-3.3,4.9C373.6,279,374.7,277.4,376.8,276.2Z" fill="#f4a856"/>
        <path id="Path_2114" data-name="Path 2114" d="M394.4,285.4c-5.3,3-13.9,3-19.1-.1-2.5-1.5-3.8-3.4-3.9-5.3-.1,2.1,1.2,4.2,3.9,5.8,5.3,3.1,13.8,3.1,19.1.1,2.8-1.6,4.1-3.7,4-5.8C398.3,282.1,396.9,284,394.4,285.4Z" fill="#fce586"/>
      </g>
      <g id="Group_2102" data-name="Group 2102">
        <path id="Path_2115" data-name="Path 2115" d="M407.7,282.6l-1,.9a8.736,8.736,0,0,0-2.5-3.6c-4.5-4.1-12.9-5.9-18.7-4a8.9,8.9,0,0,0-3.7,2.2l-.6-1.2-.5,2.3h0c-.5,2,.4,4.3,2.7,6.3,4.5,4.1,12.9,5.9,18.7,4,2.9-.9,4.6-2.6,5-4.6h0Z" fill="#f4a856"/>
        <path id="Path_2116" data-name="Path 2116" d="M402.7,287.2c-5.8,1.9-14.2.1-18.7-4s-3.5-8.9,2.3-10.8,14.2-.1,18.7,4C409.5,280.4,408.5,285.3,402.7,287.2Z" fill="#fccc6b"/>
        <path id="Path_2117" data-name="Path 2117" d="M402.7,287.2c-5.8,1.9-14.2.1-18.7-4s-3.5-8.9,2.3-10.8,14.2-.1,18.7,4C409.5,280.4,408.5,285.3,402.7,287.2Z" fill="url(#radial-gradient-17)"/>
        <path id="Path_2118" data-name="Path 2118" d="M393.2,286.3a16.818,16.818,0,0,1-7.6-3.6c-1.9-1.7-2.7-3.6-2.3-5.3.4-1.8,1.9-3.1,4.3-3.9,4.9-1.6,12-.1,15.8,3.4,1.9,1.7,2.7,3.6,2.3,5.3-.4,1.8-1.9,3.1-4.3,3.9A16.16,16.16,0,0,1,393.2,286.3Zm2.6-12.9a15.773,15.773,0,0,0-8.1.2c-2.3.7-3.8,2.1-4.1,3.8-.4,1.7.4,3.5,2.2,5.1,3.8,3.4,10.8,4.9,15.6,3.3,2.3-.7,3.8-2.1,4.1-3.8.4-1.7-.4-3.5-2.2-5.1A18.567,18.567,0,0,0,395.8,273.4Z" fill="#f4a856"/>
        <path id="Path_2119" data-name="Path 2119" d="M401.4,286c-4.9,1.6-11.9.1-15.7-3.4-3.8-3.4-2.9-7.5,1.9-9.1,4.9-1.6,11.9-.1,15.7,3.4C407.1,280.3,406.3,284.4,401.4,286Z" fill="url(#radial-gradient-18)"/>
        <path id="Path_2120" data-name="Path 2120" d="M387.5,274.1c4.9-1.6,11.9-.1,15.7,3.4,1.8,1.6,2.6,3.4,2.3,5,.5-1.7-.2-3.7-2.2-5.5-3.8-3.4-10.8-4.9-15.7-3.4-2.6.8-4,2.4-4.3,4.1C383.8,276.1,385.2,274.8,387.5,274.1Z" fill="#f4a856"/>
        <path id="Path_2121" data-name="Path 2121" d="M402.8,286.7c-5.8,1.9-14.2.1-18.7-4-2.2-2-3.1-4.1-2.8-6-.6,2,.3,4.3,2.7,6.5,4.5,4.1,12.9,5.9,18.7,4,3-1,4.8-2.8,5.1-4.8C407.3,284.2,405.6,285.8,402.8,286.7Z" fill="#fce586"/>
      </g>
      <g id="Group_2103" data-name="Group 2103">
        <path id="Path_2122" data-name="Path 2122" d="M387.1,225.6l-1.2.6a9.223,9.223,0,0,0-1.3-4.2c-3.1-5.3-10.5-9.5-16.6-9.5a8.712,8.712,0,0,0-4.2.9l-.2-1.3-1.2,2.1h0c-1.1,1.7-.9,4.2.6,6.9,3.1,5.3,10.5,9.5,16.6,9.5,3.1,0,5.2-1.1,6.2-2.8h0Z" fill="#f4a856"/>
        <path id="Path_2123" data-name="Path 2123" d="M380.9,228.5c-6.1,0-13.5-4.2-16.6-9.5s-.6-9.6,5.5-9.6,13.5,4.2,16.6,9.5C389.5,224.1,387,228.4,380.9,228.5Z" fill="#fccc6b"/>
        <path id="Path_2124" data-name="Path 2124" d="M380.9,228.5c-6.1,0-13.5-4.2-16.6-9.5s-.6-9.6,5.5-9.6,13.5,4.2,16.6,9.5C389.5,224.1,387,228.4,380.9,228.5Z" fill="url(#radial-gradient-19)"/>
        <path id="Path_2125" data-name="Path 2125" d="M372.1,224.7A16.84,16.84,0,0,1,366,219c-1.3-2.2-1.5-4.2-.6-5.8s2.8-2.4,5.3-2.4c5.2,0,11.5,3.6,14,8,1.3,2.2,1.5,4.2.6,5.8s-2.8,2.4-5.3,2.4A15.917,15.917,0,0,1,372.1,224.7Zm6.4-11.4a16.646,16.646,0,0,0-7.8-2.3c-2.4,0-4.2.8-5.1,2.3-.8,1.5-.6,3.5.6,5.6,2.6,4.4,8.8,7.9,13.9,7.9,2.4,0,4.2-.8,5.1-2.3.8-1.5.6-3.5-.6-5.6A17.384,17.384,0,0,0,378.5,213.3Z" fill="#f4a856"/>
        <path id="Path_2126" data-name="Path 2126" d="M380,226.9c-5.1,0-11.4-3.5-14-8-2.6-4.4-.5-8,4.6-8.1,5.1,0,11.4,3.5,14,8S385.1,226.9,380,226.9Z" fill="url(#radial-gradient-20)"/>
        <path id="Path_2127" data-name="Path 2127" d="M370.4,211.4c5.1,0,11.4,3.5,14,8,1.2,2.1,1.4,4,.7,5.4,1-1.5.9-3.6-.4-5.9a17.917,17.917,0,0,0-14-8c-2.7,0-4.5,1-5.3,2.6C366.2,212.2,368,211.4,370.4,211.4Z" fill="#f4a856"/>
        <path id="Path_2128" data-name="Path 2128" d="M381.2,228c-6.1,0-13.5-4.2-16.6-9.5-1.5-2.5-1.7-4.8-.8-6.5-1.1,1.8-1,4.2.6,7,3.1,5.3,10.5,9.5,16.6,9.5,3.2,0,5.4-1.2,6.3-3.1C386.2,227,384.1,228,381.2,228Z" fill="#fce586"/>
      </g>
      <g id="Group_2104" data-name="Group 2104">
        <path id="Path_2129" data-name="Path 2129" d="M384.5,249.3l-.1,1.3a8.811,8.811,0,0,0-4.3-1c-6.1-.1-13.6,4.1-16.7,9.4a9.113,9.113,0,0,0-1.4,4.1l-1.2-.5,1.2,2.1h0c1,1.8,3.1,2.9,6.2,3,6.1.1,13.6-4.1,16.7-9.4,1.6-2.6,1.7-5,.8-6.8h0Z" fill="#f4a856"/>
        <path id="Path_2130" data-name="Path 2130" d="M383.7,256.1c-3.1,5.2-10.6,9.4-16.7,9.4-6.1-.1-8.5-4.4-5.4-9.6s10.6-9.4,16.7-9.4S386.9,250.8,383.7,256.1Z" fill="#fccc6b"/>
        <path id="Path_2131" data-name="Path 2131" d="M383.7,256.1c-3.1,5.2-10.6,9.4-16.7,9.4-6.1-.1-8.5-4.4-5.4-9.6s10.6-9.4,16.7-9.4S386.9,250.8,383.7,256.1Z" fill="url(#radial-gradient-21)"/>
        <path id="Path_2132" data-name="Path 2132" d="M376,261.7a16.628,16.628,0,0,1-8.1,2.3c-2.5,0-4.4-.9-5.3-2.5s-.7-3.6.6-5.8c2.6-4.4,9-8,14.1-7.9,2.5,0,4.4.9,5.3,2.5s.7,3.6-.6,5.8A15.511,15.511,0,0,1,376,261.7Zm-6.5-11.4a15.74,15.74,0,0,0-5.9,5.5c-1.2,2.1-1.5,4.1-.6,5.6.8,1.5,2.6,2.3,5.1,2.4,5.1.1,11.3-3.4,13.9-7.8,1.2-2.1,1.5-4.1.6-5.6-.8-1.5-2.6-2.3-5.1-2.4A17.067,17.067,0,0,0,369.5,250.3Z" fill="#f4a856"/>
        <path id="Path_2133" data-name="Path 2133" d="M382,256c-2.6,4.4-8.9,7.9-14,7.9-5.1-.1-7.2-3.7-4.5-8.1,2.6-4.4,8.9-7.9,14-7.9C382.5,248,384.6,251.6,382,256Z" fill="url(#radial-gradient-22)"/>
        <path id="Path_2134" data-name="Path 2134" d="M363.7,256.3c2.6-4.4,8.9-7.9,14-7.9,2.4,0,4.2.9,5,2.2-.8-1.6-2.6-2.6-5.3-2.7-5.1-.1-11.4,3.5-14,7.9-1.4,2.3-1.5,4.4-.5,5.9C362.2,260.3,362.4,258.4,363.7,256.3Z" fill="#f4a856"/>
        <path id="Path_2135" data-name="Path 2135" d="M383.5,255.6c-3.1,5.2-10.6,9.4-16.7,9.4-2.9,0-5-1-6-2.7.9,1.9,3.1,3.1,6.3,3.1,6.1.1,13.6-4.1,16.7-9.4,1.6-2.7,1.7-5.2.6-7C385.2,250.8,385,253.1,383.5,255.6Z" fill="#fce586"/>
      </g>
    </g>
    <path id="Path_2136" data-name="Path 2136" d="M304.4,249.4a2.01,2.01,0,0,1-1.3-.4l-35-20.2a.6.6,0,0,1-.3-.6.864.864,0,0,1,.3-.6l31-17.9.3.5-31,17.9,35,20.3a1.817,1.817,0,0,0,2,0l20.9-12a2.618,2.618,0,0,1,2.7,0l8.6,5-.3.5-8.6-5a1.817,1.817,0,0,0-2,0l-20.9,12A2.979,2.979,0,0,1,304.4,249.4Z" fill="#16c172"/>
    <g id="Group_2107" data-name="Group 2107">
      <g id="Group_2106" data-name="Group 2106">
        <path id="Path_2137" data-name="Path 2137" d="M460.9,219.5l-32.6-35-32.6-2.6s-5.2,44.2,32.6,91.1C466.2,269.8,460.9,219.5,460.9,219.5Z" fill="url(#linear-gradient-10)"/>
        <path id="Path_2138" data-name="Path 2138" d="M395.7,181.9l-7.3,4.2,32.6,2.7,7.3-4.3Z" fill="url(#linear-gradient-11)"/>
        <path id="Path_2139" data-name="Path 2139" d="M453.6,223.8l-32.6-35-13.4-1.4-19.2-1.3s-5.2,44.2,32.6,91.1C458.8,274,453.6,223.8,453.6,223.8Z" fill="url(#linear-gradient-12)"/>
        <path id="Path_2140" data-name="Path 2140" d="M453.6,223.8l-32.6-35-32.6-2.6.9-.5,33.1,2.7,32.6,35s4.4,42-23.8,51.7C457.8,264.4,453.6,223.8,453.6,223.8Z" fill="#fff"/>
      </g>
      <path id="Path_2141" data-name="Path 2141" d="M449.6,224.3l-29.3-31.5-12.1-1.2-17.3-1.2s-4.7,39.8,29.3,81.9C454.4,269.5,449.6,224.3,449.6,224.3Z" fill="#fff" opacity="0.2"/>
    </g>
  </g>
</svg>
