<svg xmlns="http://www.w3.org/2000/svg" xmlns:xlink="http://www.w3.org/1999/xlink" width="3833.418" height="2014.77" viewBox="0 0 3833.418 2014.77">
  <defs>
    <linearGradient id="linear-gradient" x1="0.922" y1="-0.123" x2="0.101" y2="1.157" gradientUnits="objectBoundingBox">
      <stop offset="0.003" stop-color="#70aeab"/>
      <stop offset="1" stop-color="#678ec4"/>
    </linearGradient>
    <linearGradient id="linear-gradient-2" x1="0.921" y1="-0.122" x2="0.101" y2="1.157" gradientUnits="objectBoundingBox">
      <stop offset="0.011" stop-color="#cfa08e"/>
      <stop offset="1" stop-color="#d26a8f"/>
    </linearGradient>
    <linearGradient id="linear-gradient-3" x1="1" y1="0.495" x2="0.001" y2="0.495" gradientUnits="objectBoundingBox">
      <stop offset="0" stop-color="#dedde9"/>
      <stop offset="0.994" stop-color="#b0bfe8"/>
    </linearGradient>
    <linearGradient id="linear-gradient-4" x1="1" y1="0.497" x2="0" y2="0.497" xlink:href="#linear-gradient-3"/>
    <linearGradient id="linear-gradient-5" x1="1.001" y1="0.501" x2="0" y2="0.501" xlink:href="#linear-gradient-3"/>
    <linearGradient id="linear-gradient-6" x1="1.005" y1="0.501" x2="0.004" y2="0.501" xlink:href="#linear-gradient"/>
    <linearGradient id="linear-gradient-7" x1="0.999" y1="0.501" x2="-0.002" y2="0.501" xlink:href="#linear-gradient"/>
    <linearGradient id="linear-gradient-8" x1="1" y1="0.5" x2="0" y2="0.5" gradientUnits="objectBoundingBox">
      <stop offset="0.007" stop-color="#ca8194"/>
      <stop offset="1" stop-color="#b7496a"/>
    </linearGradient>
    <linearGradient id="linear-gradient-9" x1="-0.004" y1="0.501" x2="0.998" y2="0.501" xlink:href="#linear-gradient"/>
    <linearGradient id="linear-gradient-10" x1="0.002" y1="0.501" x2="1.004" y2="0.501" xlink:href="#linear-gradient"/>
    <linearGradient id="linear-gradient-11" x1="1" y1="0.5" x2="0" y2="0.5" gradientUnits="objectBoundingBox">
      <stop offset="0.007" stop-color="#67a1c2"/>
      <stop offset="0.995" stop-color="#3e5b97"/>
    </linearGradient>
    <linearGradient id="linear-gradient-13" x1="1.001" y1="0.5" x2="-0.001" y2="0.5" gradientUnits="objectBoundingBox">
      <stop offset="0" stop-color="#d88b2f"/>
      <stop offset="1" stop-color="#e6bd4a"/>
    </linearGradient>
    <linearGradient id="linear-gradient-15" x1="0" y1="0.501" x2="1" y2="0.501" xlink:href="#linear-gradient"/>
    <clipPath id="clip-path">
      <path id="Path_1692" data-name="Path 1692" d="M1220.75,559.052S978.052,509.3,906.735,437.427c-71.317-71.317-285.82,0-285.82,0s114.439-92.878,206.764-100.065l78.5,49.756-28.748-49.756s157.008-100.065,228.324-42.569C1177.628,352.289,1256.132,430.792,1220.75,559.052Z" transform="translate(-620.915 -276.977)"/>
    </clipPath>
    <linearGradient id="linear-gradient-16" x1="1" y1="0.502" x2="0" y2="0.502" xlink:href="#linear-gradient"/>
    <linearGradient id="linear-gradient-17" x1="-9.963" y1="0.501" x2="-8.964" y2="0.501" xlink:href="#linear-gradient"/>
    <clipPath id="clip-path-2">
      <path id="Path_1695" data-name="Path 1695" d="M317.3,580.952S560,531.2,631.314,459.327c71.317-71.317,285.82,0,285.82,0S802.7,366.449,710.371,359.262l-78.5,49.756,28.748-49.756S503.607,259.2,432.291,316.693C359.868,374.189,281.364,452.693,317.3,580.952Z" transform="translate(-308.3 -298.877)"/>
    </clipPath>
    <linearGradient id="linear-gradient-18" x1="-12.442" y1="0.501" x2="-13.441" y2="0.501" xlink:href="#linear-gradient"/>
    <linearGradient id="linear-gradient-19" x1="1.001" y1="0.497" x2="0" y2="0.497" xlink:href="#linear-gradient"/>
    <linearGradient id="linear-gradient-21" x1="0.097" y1="0.606" x2="0.885" y2="0.008" xlink:href="#linear-gradient"/>
    <linearGradient id="linear-gradient-22" x1="-2.293" y1="-3.228" x2="-0.705" y2="-3.228" xlink:href="#linear-gradient"/>
    <clipPath id="clip-path-3">
      <path id="Path_1701" data-name="Path 1701" d="M1069.875,885.362S1025.647,713.98,930.558,581.851,818.331,293.819,622.624,202.6c0,0,126.048,20.455,160.325,8.293,34.829-12.163,142.634,146.5,169.17,133.788,26.537-13.268-23.772,54.731-23.772,54.731L978.1,368.453s108.91,121.626,91.772,157.008-27.089,50.309-27.089,50.309l51.967-18.244S1142.3,638.241,1134,703.476C1126.265,768.711,1131.793,822.89,1069.875,885.362Z" transform="translate(-622.624 -202.6)"/>
    </clipPath>
    <linearGradient id="linear-gradient-23" x1="-0.853" y1="-3.359" x2="-2.556" y2="-3.359" xlink:href="#linear-gradient"/>
    <linearGradient id="linear-gradient-24" x1="-0.534" y1="1.944" x2="-0.423" y2="2.523" xlink:href="#linear-gradient"/>
    <clipPath id="clip-path-4">
      <path id="Path_1704" data-name="Path 1704" d="M84.286,777.317s84.032-71.87,114.439-147.056c29.854-74.634,76.292-90.666,81.268-135.447s105.593-61.366,112.78-113.886c7.187-51.967,89.561-90.666,89.561-90.666s-102.276-50.862-146.5,15.48c-44.78,66.341-35.382,119.967-95.642,127.154-60.813,7.187-134.894,60.813-147.056,145.4S16.839,707.106,84.286,777.317Z" transform="translate(-53.9 -271.63)"/>
    </clipPath>
    <linearGradient id="linear-gradient-25" x1="-0.752" y1="3.134" x2="-1.352" y2="3.134" xlink:href="#linear-gradient"/>
    <linearGradient id="linear-gradient-26" x1="-12.98" y1="1.239" x2="-11.969" y2="1.239" xlink:href="#linear-gradient"/>
    <clipPath id="clip-path-5">
      <path id="Path_1707" data-name="Path 1707" d="M37.6,441.386s106.146-17.138,202.341,3.87c96.748,20.455,186.861-7.187,285.267,79.057,0,0-41.463-65.235-43.122-87.349s-116.1-43.675-114.991-61.919c1.106-17.691-24.878,26.536-24.878,26.536l4.976-34.829s-93.983-30.959-109.463-13.268-21.561,27.089-21.561,27.089L213.4,347.4s-56.39-7.187-90.666,13.268C89.014,381.679,57.5,391.63,37.6,441.386Z" transform="translate(-37.6 -346.179)"/>
    </clipPath>
    <linearGradient id="linear-gradient-27" x1="-12.819" y1="1.521" x2="-13.827" y2="1.521" xlink:href="#linear-gradient"/>
    <linearGradient id="linear-gradient-28" x1="0" y1="0.498" x2="1" y2="0.498" xlink:href="#linear-gradient"/>
    <clipPath id="clip-path-6">
      <path id="Path_1710" data-name="Path 1710" d="M520.163,513.309s-158.666-32.618-205.1-79.057-186.308,0-186.308,0,74.634-60.813,135.447-65.235l51.414,32.618-18.8-32.618s102.276-65.235,149.268-28.195C492.521,377.862,543.382,429.276,520.163,513.309Z" transform="translate(-128.75 -329.442)"/>
    </clipPath>
    <linearGradient id="linear-gradient-29" x1="1" y1="0.497" x2="-0.002" y2="0.497" xlink:href="#linear-gradient"/>
    <linearGradient id="linear-gradient-30" x1="-5.391" y1="-9.433" x2="-3.805" y2="-9.433" xlink:href="#linear-gradient"/>
    <clipPath id="clip-path-7">
      <path id="Path_1713" data-name="Path 1713" d="M444.23,766.383S412.165,642.546,343.612,547.457C275.06,451.815,262.344,339.588,121.369,273.8c0,0,90.666,14.374,115.544,6.081,24.878-8.846,102.829,105.593,122.178,96.195s-17.138,39.8-17.138,39.8l35.935-22.114s78.5,87.9,66.341,113.333-19.35,36.488-19.35,36.488l37.593-13.268s34.276,58.049,28.2,105.04C485.14,682.351,489.01,721.6,444.23,766.383Z" transform="translate(-121.369 -273.8)"/>
    </clipPath>
    <linearGradient id="linear-gradient-31" x1="-4.429" y1="-9.899" x2="-6.13" y2="-9.899" xlink:href="#linear-gradient"/>
    <linearGradient id="linear-gradient-32" x1="1" y1="0.499" x2="0.001" y2="0.499" xlink:href="#linear-gradient-2"/>
    <linearGradient id="linear-gradient-33" x1="2.228" y1="2.094" x2="1.203" y2="2.094" xlink:href="#linear-gradient"/>
    <linearGradient id="linear-gradient-35" x1="0.852" y1="0.885" x2="1.763" y2="0.376" xlink:href="#linear-gradient"/>
    <linearGradient id="linear-gradient-36" x1="0.999" y1="0.499" x2="0" y2="0.499" xlink:href="#linear-gradient-11"/>
    <linearGradient id="linear-gradient-37" x1="0.997" y1="0.5" x2="-0.001" y2="0.5" xlink:href="#linear-gradient-11"/>
    <linearGradient id="linear-gradient-38" x1="1" y1="0.5" x2="0" y2="0.5" xlink:href="#linear-gradient-11"/>
    <clipPath id="clip-path-8">
      <ellipse id="Ellipse_194" data-name="Ellipse 194" cx="656.225" cy="656.225" rx="656.225" ry="656.225"/>
    </clipPath>
    <linearGradient id="linear-gradient-39" x1="0.267" y1="0.374" x2="0.794" y2="0.992" gradientUnits="objectBoundingBox">
      <stop offset="0" stop-color="#d88b2f"/>
      <stop offset="1" stop-color="#e6bd4a" stop-opacity="0"/>
    </linearGradient>
    <linearGradient id="linear-gradient-40" x1="1" y1="0.5" x2="0" y2="0.5" xlink:href="#linear-gradient-11"/>
    <linearGradient id="linear-gradient-41" x1="1" y1="0.5" x2="0" y2="0.5" xlink:href="#linear-gradient-11"/>
    <linearGradient id="linear-gradient-42" x1="1" y1="0.5" x2="0" y2="0.5" gradientUnits="objectBoundingBox">
      <stop offset="0.003" stop-color="#9b4a7a"/>
      <stop offset="1" stop-color="#bd677d"/>
    </linearGradient>
    <linearGradient id="linear-gradient-43" x1="1.003" y1="0.498" x2="0" y2="0.498" gradientUnits="objectBoundingBox">
      <stop offset="0.002" stop-color="#e5b5bb"/>
      <stop offset="1" stop-color="#ebd1bd"/>
    </linearGradient>
    <linearGradient id="linear-gradient-44" x1="1" y1="0.5" x2="0.002" y2="0.5" xlink:href="#linear-gradient-43"/>
    <clipPath id="clip-path-14">
      <path id="Path_1772" data-name="Path 1772" d="M275.821,403.5l-2.211,46.992s38.7,10.5,49.2,10.5,8.845,8.845-2.212,8.845-70.764,6.634-70.764-2.211,4.423-19.35,4.423-19.35l-6.634-43.122Z" transform="translate(-247.626 -403.5)"/>
    </clipPath>
    <linearGradient id="linear-gradient-45" x1="1.005" y1="0.501" x2="0.002" y2="0.501" gradientUnits="objectBoundingBox">
      <stop offset="0" stop-color="#3d365f"/>
      <stop offset="0.998" stop-color="#58467f"/>
    </linearGradient>
    <linearGradient id="linear-gradient-46" x1="1.002" y1="0.502" x2="0.002" y2="0.502" xlink:href="#linear-gradient-43"/>
    <clipPath id="clip-path-15">
      <path id="Path_1775" data-name="Path 1775" d="M328.151,407.123c0,2.211-2.211,49.2-2.211,49.2s8.846,14.927,4.423,14.927-46.992,0-51.414-2.211,32.065-8.845,32.065-17.138-6.634-49.2-6.634-49.2Z" transform="translate(-278.576 -402.7)"/>
    </clipPath>
    <linearGradient id="linear-gradient-47" x1="1.004" y1="0.509" x2="0.004" y2="0.509" xlink:href="#linear-gradient-45"/>
    <linearGradient id="linear-gradient-48" x1="0.998" y1="0.5" x2="-0.007" y2="0.5" xlink:href="#linear-gradient-45"/>
    <clipPath id="clip-path-17">
      <path id="Path_1780" data-name="Path 1780" d="M406.449,307.7c0,2.211,25.984,117.756,21.561,190.731s25.984,190.731,14.927,214.5c-10.5,23.772,21.561,111.674,2.211,131.024H398.156s-14.927-14.927-12.715-60.26C387.1,745,376.6,683.081,368.3,654.886c-8.845-27.642-17.138-141.528-17.138-141.528s0,178.016-10.5,201.788,8.846,109.463-10.5,124.39c-11.61,8.846-32.065,6.634-36.488,0s-25.984-27.642-14.927-51.414c10.5-23.772-4.423-87.9-17.138-111.674s10.5-225.007,0-248.779S251.1,320.416,285.376,307.7Z" transform="translate(-255.452 -307.7)"/>
    </clipPath>
    <linearGradient id="linear-gradient-49" x1="0.998" y1="0.497" x2="-0.002" y2="0.497" xlink:href="#linear-gradient-45"/>
    <linearGradient id="linear-gradient-50" x1="1.007" y1="0.501" x2="-0.003" y2="0.501" xlink:href="#linear-gradient-45"/>
    <linearGradient id="linear-gradient-51" x1="0.997" y1="0.501" x2="-0.002" y2="0.501" xlink:href="#linear-gradient-43"/>
    <linearGradient id="linear-gradient-52" x1="0.998" y1="0.499" x2="-0.001" y2="0.499" xlink:href="#linear-gradient-13"/>
    <clipPath id="clip-path-19">
      <path id="Path_1786" data-name="Path 1786" d="M336.619,257.6s10.5,12.715,55.837,19.349c0,0,55.837-2.211,62.471,38.7s29.853,40.91,23.772,62.471c0,0,17.138,17.138,19.349,29.853s0,8.845,0,8.845-36.488,21.561-36.488,40.91c0,0-12.715-4.423-12.715-8.845s-12.715,0-14.927-4.423c0,0,6.634,44.78-4.423,58.049-10.5,12.715,2.211,32.065-10.5,38.7,0,0-53.626-6.634-64.13,0s-49.2,29.854-62.471,0c0,0-8.845-19.35-4.423-29.854s0-17.138-6.634-32.065S274.7,427.876,266.407,404.1C257.562,379.778,206.147,272.527,336.619,257.6Z" transform="translate(-249.022 -257.6)"/>
    </clipPath>
    <linearGradient id="linear-gradient-53" x1="1.002" y1="0.503" x2="0" y2="0.503" xlink:href="#linear-gradient-13"/>
    <linearGradient id="linear-gradient-54" x1="1.006" y1="0.502" x2="0.004" y2="0.502" xlink:href="#linear-gradient-13"/>
    <linearGradient id="linear-gradient-55" x1="1.003" y1="0.494" x2="0.001" y2="0.494" xlink:href="#linear-gradient-13"/>
    <linearGradient id="linear-gradient-56" x1="0.999" y1="0.501" x2="-0.002" y2="0.501" xlink:href="#linear-gradient-13"/>
    <linearGradient id="linear-gradient-57" x1="1" y1="0.498" x2="0" y2="0.498" xlink:href="#linear-gradient-45"/>
    <linearGradient id="linear-gradient-58" x1="-34.508" y1="15.837" x2="-35.234" y2="15.837" xlink:href="#linear-gradient-43"/>
    <linearGradient id="linear-gradient-59" x1="1" y1="0.5" x2="-0.001" y2="0.5" xlink:href="#linear-gradient-43"/>
    <clipPath id="clip-path-23">
      <path id="Path_1798" data-name="Path 1798" d="M711.049,565.359l6.081-17.691,7.187-34.829S826.041,438.2,846.5,405.587s15.479-141.528,9.4-145.4-10.5,0-10.5,0-23.219,108.357-39.8,122.731-67.447,59.707-106.7,67.447l-6.081-8.293-67.447-18.244H604.9s6.634-88.455,12.163-93.983C649.13,297.783,759.7,238.628,759.7,238.628l-5.528-5.528s-145.4,34.829-174.7,77.951c-8.845,12.715-25.984,108.91-32.065,166.406-6.634,56.943,59.154,81.268,59.154,81.268S704.968,583.6,711.049,565.359Z" transform="translate(-546.937 -233.1)"/>
    </clipPath>
    <linearGradient id="linear-gradient-60" x1="1" y1="0.5" x2="0.002" y2="0.5" xlink:href="#linear-gradient-43"/>
    <linearGradient id="linear-gradient-61" x1="1.004" y1="0.499" x2="0.011" y2="0.499" xlink:href="#linear-gradient-43"/>
    <clipPath id="clip-path-24">
      <path id="Path_1801" data-name="Path 1801" d="M715.911,414.544c-3.87,0-37.041,46.992-37.041,46.992l6.081,28.748s32.618,12.163,20.455,16.585c-12.163,3.87-43.122,0-43.122,0L645.7,455.454l22.667-12.163L692.692,396.3Z" transform="translate(-645.7 -396.3)"/>
    </clipPath>
    <linearGradient id="linear-gradient-62" x1="0.999" y1="0.5" x2="-0.001" y2="0.5" xlink:href="#linear-gradient-45"/>
    <linearGradient id="linear-gradient-63" x1="0.997" y1="0.499" x2="-0.003" y2="0.499" xlink:href="#linear-gradient-43"/>
    <clipPath id="clip-path-25">
      <path id="Path_1804" data-name="Path 1804" d="M619.844,423.974l-8.293,40.91s57.5,10.5,65.789,12.163c8.293,2.211,3.87,10.5-26.536,10.5-30.959,0-71.87,2.211-71.87-6.081s10.5-20.455,10.5-20.455l2.211-51.414Z" transform="translate(-578.934 -409.6)"/>
    </clipPath>
    <linearGradient id="linear-gradient-64" x1="1" y1="0.496" x2="0" y2="0.496" xlink:href="#linear-gradient-45"/>
    <linearGradient id="linear-gradient-65" x1="0.996" y1="0.502" x2="-0.002" y2="0.502" xlink:href="#linear-gradient-45"/>
    <linearGradient id="linear-gradient-66" x1="1.036" y1="0.198" x2="0.034" y2="0.198" xlink:href="#linear-gradient-43"/>
    <clipPath id="clip-path-27">
      <path id="Path_1809" data-name="Path 1809" d="M571.082,283.888,624.708,247.4s66.894,44.227,48.65,74.081c-7.74,13.268-23.219,16.032-38.146,14.927-16.585,22.667-3.317,35.935,7.74,44.228,0,0-72.422,99.512-72.422-21.561,0,0,21.561-8.293,22.114-40.358Z" transform="translate(-570.53 -247.4)"/>
    </clipPath>
    <linearGradient id="linear-gradient-67" x1="1.001" y1="0.5" x2="0.002" y2="0.5" xlink:href="#linear-gradient-43"/>
    <linearGradient id="linear-gradient-68" x1="1" y1="0.499" x2="0" y2="0.499" xlink:href="#linear-gradient-13"/>
    <clipPath id="clip-path-28">
      <path id="Path_1812" data-name="Path 1812" d="M930.632,343.782s-55.284,1.658-120.52-35.382c0,0-63.577,30.959-71.87,100.618s-22.666,118.861-49.2,133.235-32.618,81.821-40.911,104.487-57.5,57.5-51.414,94.536-22.667,51.415-22.667,51.415l45.333,32.618s46.992-43.122,53.073-61.366S764.779,628.5,779.153,601.96s65.235-107.252,65.235-107.252,20.455,92.878,43.122,109.463,26.536,55.284,37.041,61.366-22.667,34.829-14.374,59.707-37.041,98.406-32.618,112.78c3.87,14.374-12.163,28.748-8.293,34.829s61.365,20.455,61.365,20.455,92.325-208.975,86.244-252.1C1010.794,597.537,957.721,413.44,930.632,343.782Z" transform="translate(-574.048 -308.4)"/>
    </clipPath>
    <linearGradient id="linear-gradient-69" x1="0.997" y1="0.499" x2="-0.005" y2="0.499" xlink:href="#linear-gradient-13"/>
    <linearGradient id="linear-gradient-70" x1="0.999" y1="0.498" x2="0.001" y2="0.498" xlink:href="#linear-gradient-13"/>
    <linearGradient id="linear-gradient-71" x1="1.002" y1="0.501" x2="-0.002" y2="0.501" xlink:href="#linear-gradient-13"/>
    <linearGradient id="linear-gradient-72" x1="0.999" y1="0.502" x2="-0.003" y2="0.502" xlink:href="#linear-gradient-13"/>
    <linearGradient id="linear-gradient-73" x1="1" y1="0.498" x2="-0.001" y2="0.498" xlink:href="#linear-gradient-11"/>
    <clipPath id="clip-path-32">
      <path id="Path_1821" data-name="Path 1821" d="M780.8,289.814s-28.748,22.667-37.041,77.951,37.594,33.171,50.309-11.61c0,0,5.528,70.764-37.594,99.512s-23.219,41.463-45.886,53.626-16.033,18.244-16.033,18.244-40.911,20.455-73.528,0-46.992-34.829-46.992-34.829-8.293-38.7,6.081-61.366S617.16,320.773,617.16,320.773s46.992-16.585,57.5-53.073h20.455s-28.748,108.91,67.447,18.244C762.558,285.391,770.85,283.18,780.8,289.814Z" transform="translate(-571.658 -267.7)"/>
    </clipPath>
    <linearGradient id="linear-gradient-74" x1="0.999" y1="0.499" x2="0" y2="0.499" xlink:href="#linear-gradient-11"/>
    <linearGradient id="linear-gradient-75" x1="0.998" y1="0.5" x2="-0.002" y2="0.5" xlink:href="#linear-gradient-11"/>
    <linearGradient id="linear-gradient-76" x1="38.97" y1="7.139" x2="37.638" y2="7.139" xlink:href="#linear-gradient-45"/>
    <linearGradient id="linear-gradient-77" x1="1.005" y1="0.498" x2="0.003" y2="0.498" xlink:href="#linear-gradient-43"/>
    <linearGradient id="linear-gradient-78" x1="0.999" y1="0.48" x2="-0.001" y2="0.48" xlink:href="#linear-gradient-43"/>
  </defs>
  <g id="consult" transform="translate(-2926.601 -21687.563)">
    <g id="calender1" transform="translate(3036.6 21297.563)">
      <g id="OBJECTS" transform="translate(-110 390)">
        <path id="Path_1670" data-name="Path 1670" d="M426.99,1918.9H3336.052s704.875-755.184,400.258-1505.392c-304.617-749.656-1620.937-126.6-1730.4,361.007s-851.379,220.032-1133.329-5.528S-545.462,918.255,426.99,1918.9Z" transform="translate(3.676 -65.562)" fill="none"/>
        <path id="Path_1671" data-name="Path 1671" d="M960.12,103,42.4,183.715V691.778l917.72-40.358Z" transform="translate(2846.76 103.972)" fill="#fff" opacity="0.42"/>
        <path id="Path_1672" data-name="Path 1672" d="M697.619,168.9,71.8,224.184V570.817l625.819-27.642Z" transform="translate(2946.726 402.396)" fill="#fff" opacity="0.42"/>
        <path id="Path_1673" data-name="Path 1673" d="M891.619,147.9,265.8,203.184V549.817l625.819-27.642Z" transform="translate(1680.209 307.299)" fill="#fff" opacity="0.42"/>
        <path id="Path_1674" data-name="Path 1674" d="M670.993,323,166.8,367.227V646.413L670.993,624.3Z" transform="translate(2448.15 1100.227)" fill="#fff" opacity="0.42"/>
        <path id="Path_1675" data-name="Path 1675" d="M503.848,220.6,76.5,258.193V494.81l427.348-18.8Z" transform="translate(3114.513 636.516)" fill="url(#linear-gradient)"/>
        <path id="Path_1676" data-name="Path 1676" d="M568.8,329.3,140.9,366.893V603.51l427.9-18.8Z" transform="translate(2693.529 1128.756)" fill="url(#linear-gradient-2)"/>
        <ellipse id="Ellipse_184" data-name="Ellipse 184" cx="192.39" cy="24.325" rx="192.39" ry="24.325" transform="translate(2358.983 1901.99)" fill="url(#linear-gradient-3)"/>
        <ellipse id="Ellipse_185" data-name="Ellipse 185" cx="291.901" cy="22.667" rx="291.901" ry="22.667" transform="translate(3022.948 1929.079)" fill="url(#linear-gradient-4)"/>
        <path id="Path_1677" data-name="Path 1677" d="M546,447.988c0,19.9,130.471,65.788,276.975,65.788S1226,471.76,1226,451.858,956.762,411.5,810.812,411.5,546,428.085,546,447.988Z" transform="translate(-203.237 1500.994)" fill="url(#linear-gradient-5)"/>
        <g id="Group_1778" data-name="Group 1778" transform="translate(1728.119 373.378)">
          <path id="Path_1678" data-name="Path 1678" d="M137.465,374.761l-37.041,759.607a18.911,18.911,0,0,0,18.8,19.9H1831.931a18.642,18.642,0,0,0,18.8-18.8V187.9Z" transform="translate(-92.615 115.058)" fill="#fff" opacity="0.68"/>
          <g id="Group_1777" data-name="Group 1777">
            <g id="Group_1767" data-name="Group 1767" transform="translate(44.297)">
              <g id="Group_1763" data-name="Group 1763" transform="translate(211.186 143.739)">
                <path id="Path_1679" data-name="Path 1679" d="M360.5,373.6V356.465c25.984,0,48.1-41.463,48.1-90.113s-22.114-90.113-48.1-90.113V159.1c36.488,0,64.683,46.992,64.683,107.252S396.988,373.6,360.5,373.6Z" transform="translate(-360.5 -159.1)" fill="url(#linear-gradient-6)"/>
              </g>
              <g id="Group_1764" data-name="Group 1764" transform="translate(1321.296)">
                <path id="Path_1680" data-name="Path 1680" d="M159.7,347.6V330.465c25.984,0,48.1-41.463,48.1-90.113s-22.114-90.113-48.1-90.113V133.1c36.488,0,64.683,46.992,64.683,107.252S195.635,347.6,159.7,347.6Z" transform="translate(-159.7 -133.1)" fill="url(#linear-gradient-7)"/>
              </g>
              <path id="Path_1681" data-name="Path 1681" d="M1814.215,166.161v161.43L100.4,514.452l6.081-123.284a18.887,18.887,0,0,1,16.585-17.691L1792.654,147.364A18.775,18.775,0,0,1,1814.215,166.161ZM331.488,406.648c0-17.691-8.846-32.618-19.9-32.618s-19.9,14.374-19.9,32.618,8.846,32.618,19.9,32.618C322.643,438.712,331.488,424.339,331.488,406.648ZM1444.362,261.8c0-21.561-10.5-39.252-23.772-39.252s-23.772,17.691-23.772,39.252,10.5,39.252,23.772,39.252C1433.306,301.055,1444.362,283.364,1444.362,261.8Z" transform="translate(-100.4 -69.413)" fill="url(#linear-gradient-8)"/>
              <g id="Group_1765" data-name="Group 1765" transform="translate(1256.613 0)">
                <path id="Path_1682" data-name="Path 1682" d="M236.083,347.6c-36.488,0-64.683-46.992-64.683-107.252S199.6,133.1,236.083,133.1v17.138c-25.984,0-48.1,41.463-48.1,90.113s22.114,90.113,48.1,90.113Z" transform="translate(-171.4 -133.1)" fill="url(#linear-gradient-9)"/>
              </g>
              <g id="Group_1766" data-name="Group 1766" transform="translate(146.503 143.739)">
                <path id="Path_1683" data-name="Path 1683" d="M436.883,373.6c-36.488,0-64.683-46.992-64.683-107.252S400.4,159.1,436.883,159.1v17.138c-25.984,0-48.1,41.463-48.1,90.113s22.114,90.113,48.1,90.113Z" transform="translate(-372.2 -159.1)" fill="url(#linear-gradient-10)"/>
              </g>
            </g>
            <g id="Group_1775" data-name="Group 1775" transform="translate(22.094 351.451)">
              <g id="Group_1768" data-name="Group 1768" transform="translate(12.603 200.106)">
                <rect id="Rectangle_293" data-name="Rectangle 293" width="8.293" height="1728.236" transform="translate(1723.177 0) rotate(85.615)" fill="#bdbcd8"/>
              </g>
              <g id="Group_1769" data-name="Group 1769" transform="translate(0.244 461.559)">
                <rect id="Rectangle_294" data-name="Rectangle 294" width="8.293" height="1737.514" transform="matrix(0.044, 0.999, -0.999, 0.044, 1735.85, 0)" fill="#bdbcd8"/>
              </g>
              <g id="Group_1770" data-name="Group 1770" transform="translate(0 717.761)">
                <rect id="Rectangle_295" data-name="Rectangle 295" width="8.292" height="1736.413" transform="translate(1735.961 0) rotate(88.692)" fill="#bdbcd8"/>
              </g>
              <g id="Group_1771" data-name="Group 1771" transform="translate(261.781 106.898)">
                <rect id="Rectangle_296" data-name="Rectangle 296" width="8.292" height="812.651" transform="translate(53.442 0) rotate(3.771)" fill="#bdbcd8"/>
              </g>
              <g id="Group_1772" data-name="Group 1772" transform="translate(585.922 81.151)">
                <rect id="Rectangle_297" data-name="Rectangle 297" width="8.292" height="837.556" transform="translate(39.232 0) rotate(2.685)" fill="#bdbcd8"/>
              </g>
              <g id="Group_1773" data-name="Group 1773" transform="translate(909.495 47.658)">
                <rect id="Rectangle_298" data-name="Rectangle 298" width="8.292" height="870.755" transform="translate(28.369 0) rotate(1.867)" fill="#bdbcd8"/>
              </g>
              <g id="Group_1774" data-name="Group 1774" transform="translate(1295.372 0)">
                <rect id="Rectangle_299" data-name="Rectangle 299" width="8.293" height="919.394" transform="translate(5.35 0) rotate(0.333)" fill="#bdbcd8"/>
              </g>
            </g>
            <g id="Group_1776" data-name="Group 1776" transform="translate(0 295.218)">
              <path id="Path_1684" data-name="Path 1684" d="M125.153,1167.8H1838.416a25.954,25.954,0,0,0,25.984-25.984V186.5L136.763,375.019,99.17,1140.708c-.553,7.187,2.211,13.821,7.187,19.35A26.326,26.326,0,0,0,125.153,1167.8ZM1850.578,201.98V1141.26a11.677,11.677,0,0,1-11.61,11.61H125.706a11.777,11.777,0,0,1-8.846-3.87,12.555,12.555,0,0,1-3.317-8.845l37.041-753.526Z" transform="translate(-99.1 -186.5)" fill="url(#linear-gradient-11)"/>
            </g>
          </g>
        </g>
        <ellipse id="Ellipse_186" data-name="Ellipse 186" cx="704.323" cy="704.322" rx="704.323" ry="704.322" transform="translate(512.486 385.54)" fill="#fff" opacity="0.34"/>
        <ellipse id="Ellipse_187" data-name="Ellipse 187" cx="147.609" cy="147.609" rx="147.609" ry="147.609" transform="translate(364.877 1238.025)" fill="#fff" opacity="0.22"/>
        <ellipse id="Ellipse_188" data-name="Ellipse 188" cx="147.609" cy="147.609" rx="147.609" ry="147.609" transform="translate(714.274 1533.796)" fill="#fff" opacity="0.22"/>
        <ellipse id="Ellipse_189" data-name="Ellipse 189" cx="88.455" cy="88.455" rx="88.455" ry="88.455" transform="translate(1861.977 842.742)" fill="#fff" opacity="0.22"/>
        <ellipse id="Ellipse_190" data-name="Ellipse 190" cx="53.626" cy="53.626" rx="53.626" ry="53.626" transform="translate(410.21 1332.008)" fill="#fff" opacity="0.22"/>
        <path id="Path_1685" data-name="Path 1685" d="M659.058,214.6,122.8,261.592V558.468l536.258-23.219Z" transform="translate(2703.336 609.345)" fill="#fff" opacity="0.68"/>
        <path id="Path_1686" data-name="Path 1686" d="M592.407,308.7,202.1,342.976V558.585l390.307-17.138Z" transform="translate(2331.582 1035.471)" fill="#fff" opacity="0.68"/>
        <path id="Path_1687" data-name="Path 1687" d="M705.848,214.6,278.5,252.193V488.81l427.348-18.8Z" transform="translate(1795.769 609.345)" fill="url(#linear-gradient)"/>
        <path id="Path_1688" data-name="Path 1688" d="M563,298.7,261.7,325.236V492.2L563,478.927Z" transform="translate(2031.495 990.186)" opacity="0.44" fill="url(#linear-gradient-13)"/>
        <path id="Path_1689" data-name="Path 1689" d="M548.8,259.3,120.9,296.893V533.51l427.9-18.8Z" transform="translate(2824.097 811.766)" fill="url(#linear-gradient-2)"/>
        <g id="Group_1780" data-name="Group 1780" transform="translate(0 1168.795)">
          <path id="Path_1690" data-name="Path 1690" d="M1220.75,559.052S978.052,509.3,906.735,437.427c-71.317-71.317-285.82,0-285.82,0s114.439-92.878,206.764-100.065l78.5,49.756-28.748-49.756s157.008-100.065,228.324-42.569C1177.628,352.289,1256.132,430.792,1220.75,559.052Z" transform="translate(-620.915 -276.977)" fill="url(#linear-gradient-15)"/>
          <g id="Group_1779" data-name="Group 1779" transform="translate(0)" clip-path="url(#clip-path)">
            <path id="Path_1691" data-name="Path 1691" d="M1060.128,452.858c-7.187,0-42.569-171.381-121.625-142.634-78.5,28.748-107.252,0-107.252,0l-14.374,42.569S724,270.973,634.991,311.883,916.941,509.8,916.941,509.8l143.187-56.943" transform="translate(-453.106 -170.783)" fill="url(#linear-gradient-16)"/>
          </g>
        </g>
        <g id="Group_1782" data-name="Group 1782" transform="translate(1728.035 1289.867)">
          <path id="Path_1693" data-name="Path 1693" d="M317.3,580.952S560,531.2,631.314,459.327c71.317-71.317,285.82,0,285.82,0S802.7,366.449,710.371,359.262l-78.5,49.756,28.748-49.756S503.607,259.2,432.291,316.693C359.868,374.189,281.364,452.693,317.3,580.952Z" transform="translate(-308.3 -298.877)" fill="url(#linear-gradient-17)"/>
          <g id="Group_1781" data-name="Group 1781" transform="translate(0)" clip-path="url(#clip-path-2)">
            <path id="Path_1694" data-name="Path 1694" d="M338.705,474.758c7.187,0,42.569-171.381,121.626-142.633,78.5,28.748,107.252,0,107.252,0l14.374,42.569s92.878-81.821,181.885-40.91S481.892,531.7,481.892,531.7L338.705,474.758" transform="translate(-336.893 -192.683)" fill="url(#linear-gradient-18)"/>
          </g>
        </g>
        <g id="Group_1783" data-name="Group 1783" transform="translate(173.083 1391.976)">
          <path id="Path_1696" data-name="Path 1696" d="M895.441,445.678s-64.13,78.5-149.821,28.748S595.8,410.3,595.8,410.3L802.564,324.6C802.563,324.052,881.62,359.987,895.441,445.678Z" transform="translate(-321.08 -284.508)" fill="url(#linear-gradient-19)"/>
          <path id="Path_1697" data-name="Path 1697" d="M895.441,445.678s-64.13,78.5-149.821,28.748S595.8,410.3,595.8,410.3L802.564,324.6C802.563,324.052,881.62,359.987,895.441,445.678Z" transform="translate(-321.08 -284.508)" fill="url(#linear-gradient-19)"/>
          <path id="Path_1698" data-name="Path 1698" d="M1094.084,421.021v-64.13s-42.569-21.561-135.447,0-85.691-56.943-149.82-35.935S623.061,428.207,615.874,506.711s-7.187,242.7,49.756,306.828c0,0-14.374-35.935,28.748-92.878C736.947,663.719,816,563.654,794.442,563.654s-49.756-56.943-49.756-56.943l107.252,14.374s78.5-92.878,149.821-78.5S1094.084,421.021,1094.084,421.021Z" transform="translate(-612.6 -317.347)" fill="url(#linear-gradient-21)"/>
        </g>
        <g id="Group_1785" data-name="Group 1785" transform="translate(86.796 757.604)">
          <path id="Path_1699" data-name="Path 1699" d="M1069.875,885.362S1025.647,713.98,930.558,581.851,818.331,293.819,622.624,202.6c0,0,126.048,20.455,160.325,8.293,34.829-12.163,142.634,146.5,169.17,133.788,26.537-13.268-23.772,54.731-23.772,54.731L978.1,368.453s108.91,121.626,91.772,157.008-27.089,50.309-27.089,50.309l51.967-18.244S1142.3,638.241,1134,703.476C1126.265,768.711,1131.793,822.89,1069.875,885.362Z" transform="translate(-622.624 -202.6)" fill="url(#linear-gradient-22)"/>
          <g id="Group_1784" data-name="Group 1784" transform="translate(0 0)" clip-path="url(#clip-path-3)">
            <path id="Path_1700" data-name="Path 1700" d="M1047.465,858.334c13.821-10.5,44.228-85.691,18.8-146.5-25.431-61.366-32.618-99.512-32.618-99.512l-57.5-36.488,49.756-1.659S1013.189,510.6,947.4,443.7c-66.341-66.341-95.089-132.13-95.089-132.13l-35.935,20.455-1.106-58.049s-85.138-81.268-170.829-59.154,289.69,583.8,289.69,583.8Z" transform="translate(-614.036 -164.515)" fill="url(#linear-gradient-23)"/>
          </g>
        </g>
        <g id="Group_1795" data-name="Group 1795" transform="translate(2932.282 1139.23)">
          <g id="Group_1787" data-name="Group 1787" transform="translate(382.588)">
            <path id="Path_1702" data-name="Path 1702" d="M84.286,777.317s84.032-71.87,114.439-147.056c29.854-74.634,76.292-90.666,81.268-135.447s105.593-61.366,112.78-113.886c7.187-51.967,89.561-90.666,89.561-90.666s-102.276-50.862-146.5,15.48c-44.78,66.341-35.382,119.967-95.642,127.154-60.813,7.187-134.894,60.813-147.056,145.4S16.839,707.106,84.286,777.317Z" transform="translate(-53.9 -271.63)" fill="url(#linear-gradient-24)"/>
            <g id="Group_1786" data-name="Group 1786" transform="translate(0)" clip-path="url(#clip-path-4)">
              <path id="Path_1703" data-name="Path 1703" d="M333.755,304.755c-15.48-4.423-82.374,38.7-133.788,98.959S183.382,503.779,144.683,521.47C105.984,539.713,80,628.168,80,628.168L253.04,536.4Z" transform="translate(-49.614 -123.034)" fill="url(#linear-gradient-25)"/>
            </g>
          </g>
          <g id="Group_1789" data-name="Group 1789" transform="translate(413.527 412.139)">
            <path id="Path_1705" data-name="Path 1705" d="M37.6,441.386s106.146-17.138,202.341,3.87c96.748,20.455,186.861-7.187,285.267,79.057,0,0-41.463-65.235-43.122-87.349s-116.1-43.675-114.991-61.919c1.106-17.691-24.878,26.536-24.878,26.536l4.976-34.829s-93.983-30.959-109.463-13.268-21.561,27.089-21.561,27.089L213.4,347.4s-56.39-7.187-90.666,13.268C89.014,381.679,57.5,391.63,37.6,441.386Z" transform="translate(-37.6 -346.179)" fill="url(#linear-gradient-26)"/>
            <g id="Group_1788" data-name="Group 1788" clip-path="url(#clip-path-5)">
              <path id="Path_1706" data-name="Path 1706" d="M43.877,413.2c2.764-10.5,37.041-45.333,76.845-45.886,40.358-.553,63.024-6.081,63.024-6.081l34.276,23.219-11.057-28.2s38.7-8.293,91.219,12.163c53.073,20.455,96.748,20.455,96.748,20.455l-2.764,24.878,32.618-13.821s65.788,27.642,74.081,80.162c8.293,53.073-394.73-19.349-394.73-19.349Z" transform="translate(-46.088 -308.046)" fill="url(#linear-gradient-27)"/>
            </g>
          </g>
          <g id="Group_1791" data-name="Group 1791" transform="translate(0 319.609)">
            <path id="Path_1708" data-name="Path 1708" d="M520.163,513.309s-158.666-32.618-205.1-79.057-186.308,0-186.308,0,74.634-60.813,135.447-65.235l51.414,32.618-18.8-32.618s102.276-65.235,149.268-28.195C492.521,377.862,543.382,429.276,520.163,513.309Z" transform="translate(-128.75 -329.442)" fill="url(#linear-gradient-28)"/>
            <g id="Group_1790" data-name="Group 1790" clip-path="url(#clip-path-6)">
              <path id="Path_1709" data-name="Path 1709" d="M414.862,444.132c-4.423,0-28.2-111.674-79.057-93.431-51.414,18.8-69.658,0-69.658,0l-9.4,28.2s-60.813-53.626-118.861-26.536c-58.049,26.536,184.1,129.365,184.1,129.365l92.878-37.594" transform="translate(-18.473 -260.265)" fill="url(#linear-gradient-29)"/>
            </g>
          </g>
          <g id="Group_1793" data-name="Group 1793" transform="translate(68 11.999)">
            <path id="Path_1711" data-name="Path 1711" d="M444.23,766.383S412.165,642.546,343.612,547.457C275.06,451.815,262.344,339.588,121.369,273.8c0,0,90.666,14.374,115.544,6.081,24.878-8.846,102.829,105.593,122.178,96.195s-17.138,39.8-17.138,39.8l35.935-22.114s78.5,87.9,66.341,113.333-19.35,36.488-19.35,36.488l37.593-13.268s34.276,58.049,28.2,105.04C485.14,682.351,489.01,721.6,444.23,766.383Z" transform="translate(-121.369 -273.8)" fill="url(#linear-gradient-30)"/>
            <g id="Group_1792" data-name="Group 1792" transform="translate(0)" clip-path="url(#clip-path-7)">
              <path id="Path_1712" data-name="Path 1712" d="M427.932,746.964c9.951-7.74,32.065-61.919,13.821-105.593-18.244-44.228-23.772-71.87-23.772-71.87l-41.463-25.984,35.935-1.106s-8.846-45.886-56.943-93.983c-47.545-48.1-68.553-95.642-68.553-95.642L260.973,367.16l-.553-42.016s-61.366-58.6-123.284-42.569S346.111,703.842,346.111,703.842Z" transform="translate(-115.023 -246.64)" fill="url(#linear-gradient-31)"/>
            </g>
          </g>
          <path id="Path_1714" data-name="Path 1714" d="M252.239,366.776s56.39,300.747,40.91,305.722c-12.715,3.87-127.154,1.106-167.512.553-7.187,0-12.163-6.634-10.5-13.821L185.9,361.8Z" transform="translate(178.426 136.701)" fill="url(#linear-gradient-32)"/>
          <g id="Group_1794" data-name="Group 1794" transform="translate(73.963 448.137)">
            <path id="Path_1715" data-name="Path 1715" d="M309.833,401.35s-19.35,59.707-80.162,50.309-101.17-2.764-101.17-2.764L228.565,352.7S282.191,355.464,309.833,401.35Z" transform="translate(14.804 -352.645)" fill="url(#linear-gradient-33)"/>
            <path id="Path_1716" data-name="Path 1716" d="M309.833,401.35s-19.35,59.707-80.162,50.309-101.17-2.764-101.17-2.764L228.565,352.7S282.191,355.464,309.833,401.35Z" transform="translate(14.804 -352.645)" fill="url(#linear-gradient-33)"/>
            <path id="Path_1717" data-name="Path 1717" d="M398.8,389.785l-14.374-37.041s-29.3-2.764-77.951,30.959c-48.65,33.171-62.471-13.268-94.536,13.268C179.87,424.062,129.008,500.907,142.829,547.9s50.862,141.528,98.406,165.853c0,0-16.585-17.138-4.423-60.26,11.61-42.569,34.276-118.308,22.114-113.333S216.91,518.6,216.91,518.6l65.236-16.032s24.325-71.317,68.553-79.057C394.373,415.216,398.8,389.785,398.8,389.785Z" transform="translate(-140.5 -352.69)" fill="url(#linear-gradient-35)"/>
          </g>
        </g>
        <g id="Group_1804" data-name="Group 1804" transform="translate(462.73 297.243)">
          <path id="Path_1718" data-name="Path 1718" d="M791.891,192.146s2.212-79.057-56.943-72.423S450.787,219.788,591.762,292.211C591.762,292.211,716.7,196.016,791.891,192.146Z" transform="translate(-232.413 -119.328)" fill="url(#linear-gradient-36)"/>
          <path id="Path_1719" data-name="Path 1719" d="M358.892,518.657s80.715,46.992,107.251-17.691,56.943-350.5-97.853-245.462C367.738,254.951,396.485,438.5,358.892,518.657Z" transform="translate(1106.696 393.376)" fill="url(#linear-gradient-37)"/>
          <ellipse id="Ellipse_191" data-name="Ellipse 191" cx="752.973" cy="752.973" rx="752.973" ry="752.973" transform="translate(0 40.753)" fill="url(#linear-gradient-38)"/>
          <ellipse id="Ellipse_192" data-name="Ellipse 192" cx="682.209" cy="682.209" rx="682.209" ry="682.209" transform="translate(50.309 72.265)" fill="#7ea2da" opacity="0.2"/>
          <ellipse id="Ellipse_193" data-name="Ellipse 193" cx="656.225" cy="656.225" rx="656.225" ry="656.225" transform="translate(76.292 72.818)" fill="#e6fafc"/>
          <g id="Group_1802" data-name="Group 1802" transform="translate(76.292 72.818)">
            <g id="Group_1796" data-name="Group 1796" clip-path="url(#clip-path-8)">
              <path id="Path_1720" data-name="Path 1720" d="M423.874,108,368.589,964.907l735.282,226.666S1435.577,318.08,423.874,108Z" transform="translate(308.644 -243.447)" opacity="0.7" fill="url(#linear-gradient-39)"/>
            </g>
            <g id="Group_1797" data-name="Group 1797" clip-path="url(#clip-path-8)">
              <path id="Path_1721" data-name="Path 1721" d="M1850.035,918.509,473.455,139,385,232.983,1789.222,1161.76Z" transform="translate(-476.219 -103.065)" fill="#f8feff" opacity="0.35"/>
            </g>
            <g id="Group_1798" data-name="Group 1798" clip-path="url(#clip-path-8)">
              <path id="Path_1722" data-name="Path 1722" d="M1715.654,915.111,422,213l99.512,176.91L1688.012,970.4Z" transform="translate(-546.39 232.039)" fill="#f8feff" opacity="0.35"/>
            </g>
            <g id="Group_1799" data-name="Group 1799" clip-path="url(#clip-path-8)">
              <path id="Path_1723" data-name="Path 1723" d="M1557.5,852.168c-11.057-22.114-1166.5-680-1166.5-680L451.813,139Z" transform="translate(-216.854 -103.065)" fill="#f8feff" opacity="0.35"/>
            </g>
            <g id="Group_1800" data-name="Group 1800" clip-path="url(#clip-path-8)">
              <path id="Path_1724" data-name="Path 1724" d="M1396.7,808.054C1385.646,797,385,194.4,385,194.4L545.324,117l840.322,558.372Z" transform="translate(-22.887 -202.691)" fill="#f8feff" opacity="0.35"/>
            </g>
            <g id="Group_1801" data-name="Group 1801" clip-path="url(#clip-path-8)">
              <path id="Path_1725" data-name="Path 1725" d="M1294.509,913.355,515,261l49.756,342.763S863.291,1062.623,1294.509,913.355Z" transform="translate(-639.39 449.404)" fill="#f8feff" opacity="0.35"/>
            </g>
          </g>
          <g id="Group_1803" data-name="Group 1803" transform="translate(122.731 102.118)">
            <path id="Path_1726" data-name="Path 1726" d="M453.4,203.2,711.578,336.435,917.236,507.817a41.759,41.759,0,0,1,29.854-13.268,39.678,39.678,0,0,1,28.2,11.61L1173.2,322.614l99.512-28.748-53.626,100.065L981.918,515a43.526,43.526,0,0,1,5.528,20.455,40.357,40.357,0,1,1-80.715,0,38.58,38.58,0,0,1,6.634-22.114L664.586,369.053Z" transform="translate(-323.481 158.36)" fill="url(#linear-gradient-40)"/>
            <path id="Path_1727" data-name="Path 1727" d="M987.245,173.182a35.382,35.382,0,1,0,35.382-35.382C1002.724,138.353,987.245,153.832,987.245,173.182Zm-1.106,1133.329a35.382,35.382,0,1,1-35.382,35.382A34.93,34.93,0,0,1,986.139,1306.511Zm599.835-559.478a35.382,35.382,0,1,1-35.382,35.382A35.63,35.63,0,0,1,1585.974,747.033Zm-290.8-509.169A17.138,17.138,0,1,1,1278.04,255,17.225,17.225,0,0,1,1295.178,237.865Zm208.975,227.771a17.138,17.138,0,1,1-17.138,17.138A16.875,16.875,0,0,1,1504.153,465.636Zm0,588.225A17.138,17.138,0,1,1,1487.015,1071,17.224,17.224,0,0,1,1504.153,1053.861Zm-227.219,195.706a17.138,17.138,0,1,1-17.138,17.138A17.224,17.224,0,0,1,1276.934,1249.568Zm-531.835,0a17.138,17.138,0,1,1-17.138,17.138A17.224,17.224,0,0,1,745.1,1249.568ZM533.913,992.5a17.138,17.138,0,1,1-17.138,17.138A17.224,17.224,0,0,1,533.913,992.5Zm-18.244-545.1a17.138,17.138,0,1,1-17.138,17.138A16.875,16.875,0,0,1,515.669,447.392ZM745.1,253.9a17.138,17.138,0,1,1-17.138,17.138A17.224,17.224,0,0,1,745.1,253.9ZM440.482,711.1A35.382,35.382,0,1,1,405.1,746.48,35.274,35.274,0,0,1,440.482,711.1Z" transform="translate(-405.1 -137.8)" fill="url(#linear-gradient-41)"/>
          </g>
        </g>
        <g id="Group_1838" data-name="Group 1838" transform="translate(2414.573 899.218)">
          <path id="Path_1768" data-name="Path 1768" d="M222.5,267.334V260.7H460.775V423.789H222.5Z" transform="translate(-64.139 -81.113)" fill="url(#linear-gradient-42)"/>
          <path id="Path_1769" data-name="Path 1769" d="M394.506,328s-100.618,96.747-145.951,87.9c0,0-32.065-21.561-29.854-40.91s46.992-17.138,46.992-17.138,100.065-22.114,122.731-44.227c0,0,0-11.61,3.317-18.244s0-24.878,0-24.878H393.4c3.317,0,9.951,13.268,9.951,16.585s9.951-3.317,9.951-3.317v-10.5s9.951,3.317,11.61,8.293,13.268,19.9,9.951,23.219-11.61,26.536-16.585,24.878-23.219-3.317-23.219-3.317" transform="translate(-17.22 -36.734)" fill="url(#linear-gradient-43)"/>
          <g id="Group_1826" data-name="Group 1826" transform="translate(175.499 969.048)">
            <path id="Path_1770" data-name="Path 1770" d="M275.821,403.5l-2.211,46.992s38.7,10.5,49.2,10.5,8.845,8.845-2.212,8.845-70.764,6.634-70.764-2.211,4.423-19.35,4.423-19.35l-6.634-43.122Z" transform="translate(-247.626 -403.5)" fill="url(#linear-gradient-44)"/>
            <g id="Group_1825" data-name="Group 1825" transform="translate(0)" clip-path="url(#clip-path-14)">
              <path id="Path_1771" data-name="Path 1771" d="M264.8,414.259s16.032,16.032,29.3,0,59.154,21.561,59.154,21.561l-91.219,45.886L246,430.844l22.114-15.479" transform="translate(-262.032 -372.796)" fill="url(#linear-gradient-45)"/>
            </g>
          </g>
          <g id="Group_1829" data-name="Group 1829" transform="translate(33.599 964.625)">
            <path id="Path_1773" data-name="Path 1773" d="M328.151,407.123c0,2.211-2.211,49.2-2.211,49.2s8.846,14.927,4.423,14.927-46.992,0-51.414-2.211,32.065-8.845,32.065-17.138-6.634-49.2-6.634-49.2Z" transform="translate(-278.576 -402.7)" fill="url(#linear-gradient-46)"/>
            <g id="Group_1827" data-name="Group 1827" transform="translate(0)" clip-path="url(#clip-path-15)">
              <path id="Path_1774" data-name="Path 1774" d="M338.518,419.043s-13.268,5.528-18.8-5.529c-5.528-10.5-43.122,16.032-43.122,16.032l18.8,10.5,59.154-8.293-16.033-12.715" transform="translate(-290.602 -364.865)" fill="url(#linear-gradient-47)"/>
            </g>
            <g id="Group_1828" data-name="Group 1828" transform="translate(0)" clip-path="url(#clip-path-15)">
              <path id="Path_1776" data-name="Path 1776" d="M309.423,418.332s-21.561,2.764-29.3-2.764c-8.293-5.528,8.293-13.268,8.293-13.268l24.878,9.951Z" transform="translate(-255.978 -404.511)" fill="#ebd0bd" opacity="0.32"/>
            </g>
          </g>
          <g id="Group_1832" data-name="Group 1832" transform="translate(18.42 439.424)">
            <path id="Path_1778" data-name="Path 1778" d="M406.449,307.7c0,2.211,25.984,117.756,21.561,190.731s25.984,190.731,14.927,214.5c-10.5,23.772,21.561,111.674,2.211,131.024H398.156s-14.927-14.927-12.715-60.26C387.1,745,376.6,683.081,368.3,654.886c-8.845-27.642-17.138-141.528-17.138-141.528s0,178.016-10.5,201.788,8.846,109.463-10.5,124.39c-11.61,8.846-32.065,6.634-36.488,0s-25.984-27.642-14.927-51.414c10.5-23.772-4.423-87.9-17.138-111.674s10.5-225.007,0-248.779S251.1,320.416,285.376,307.7Z" transform="translate(-255.452 -307.7)" fill="url(#linear-gradient-48)"/>
            <g id="Group_1830" data-name="Group 1830" transform="translate(0)" clip-path="url(#clip-path-17)">
              <path id="Path_1779" data-name="Path 1779" d="M410.868,326.266c-1.658-1.106-39.252-6.634-68.552,17.691s-69.658,16.032-77.951-5.528S317.99,303.6,317.99,303.6l92.878,22.666" transform="translate(-259.871 -326.266)" opacity="0.48" fill="url(#linear-gradient-49)"/>
            </g>
            <g id="Group_1831" data-name="Group 1831" transform="translate(0)" clip-path="url(#clip-path-17)">
              <path id="Path_1781" data-name="Path 1781" d="M297.713,460.907s-4.976-87.349-7.74-90.114-5.528-10.5-10.5-21.561c-5.528-10.5-5.528-16.032-5.528-16.032s8.293,45.886,0,69.658c-8.293,24.325,16.032,67.447,10.5,83.479s5.528,102.276-2.764,112.78,18.8,8.293,18.8,8.293L294.949,459.8" transform="translate(-197.025 -192.225)" opacity="0.36" fill="url(#linear-gradient-50)"/>
            </g>
          </g>
          <path id="Path_1783" data-name="Path 1783" d="M259.72,275.463,317.769,234s74.634,46.992,55.284,80.162c-8.293,14.374-25.431,17.691-41.463,17.138-2.764,17.691-3.87,50.862,8.293,71.317,0,0-46.992,0-71.87-24.878,0,0,13.821-35.935,16.032-64.682Z" transform="translate(-185.392 -202.022)" fill="url(#linear-gradient-51)"/>
          <g id="Group_1837" data-name="Group 1837" transform="translate(0 162.449)">
            <path id="Path_1784" data-name="Path 1784" d="M336.619,257.6s10.5,12.715,55.837,19.349c0,0,55.837-2.211,62.471,38.7s29.853,40.91,23.772,62.471c0,0,17.138,17.138,19.349,29.853s0,8.845,0,8.845-36.488,21.561-36.488,40.91c0,0-12.715-4.423-12.715-8.845s-12.715,0-14.927-4.423c0,0,6.634,44.78-4.423,58.049-10.5,12.715,2.211,32.065-10.5,38.7,0,0-53.626-6.634-64.13,0s-49.2,29.854-62.471,0c0,0-8.845-19.35-4.423-29.854s0-17.138-6.634-32.065S274.7,427.876,266.407,404.1C257.562,379.778,206.147,272.527,336.619,257.6Z" transform="translate(-249.022 -257.6)" fill="url(#linear-gradient-52)"/>
            <g id="Group_1833" data-name="Group 1833" clip-path="url(#clip-path-19)">
              <path id="Path_1785" data-name="Path 1785" d="M320.7,360.915l-18.8-18.8s-18.8,0-18.8-21.561-21.561-32.065-21.561-40.357c0,0-10.5,18.8,2.764,29.3s-2.764,32.065,5.528,37.593,29.3,40.358,18.8,50.862,16.032,21.561,16.032,21.561Z" transform="translate(-118.112 -155.257)" opacity="0.42" fill="url(#linear-gradient-53)"/>
            </g>
            <g id="Group_1834" data-name="Group 1834" clip-path="url(#clip-path-19)">
              <path id="Path_1787" data-name="Path 1787" d="M297.05,283.1s-48.65,27.089-48.65,48.65,10.5,18.8,10.5,18.8l18.8-21.561,24.325-34.829Z" transform="translate(-48.576 -142.125)" opacity="0.31" fill="url(#linear-gradient-54)"/>
            </g>
            <g id="Group_1835" data-name="Group 1835" clip-path="url(#clip-path-19)">
              <path id="Path_1789" data-name="Path 1789" d="M264.036,330.825c2.764,0,21.561-24.325,37.593-24.325s37.593,10.5,50.862,5.528c13.268-5.528-10.5,18.8-10.5,18.8l-48.65,2.764H261.272" transform="translate(-174.228 -36.16)" opacity="0.42" fill="url(#linear-gradient-55)"/>
            </g>
            <g id="Group_1836" data-name="Group 1836" clip-path="url(#clip-path-19)">
              <path id="Path_1791" data-name="Path 1791" d="M326.132,438.369s27.089,24.325,13.268,0c-13.268-24.325-8.293-45.886-16.032-59.154-8.293-13.268,8.293-32.065-5.528-43.122-13.268-10.5-27.089-37.593-32.065-61.918s18.8,164.194,18.8,164.194Z" transform="translate(-292.714 -192.354)" fill="url(#linear-gradient-56)"/>
            </g>
          </g>
          <path id="Path_1793" data-name="Path 1793" d="M266.771,290.047c27.089-21.561,2.764-32.065,29.3-29.3,27.089,2.764,37.593-61.918,53.626-16.032,0,0,16.032,18.8-10.5,40.358-27.089,21.561-24.325,18.8-24.325,18.8s4.423,11.61,6.634,17.691a7.6,7.6,0,0,0,5.528,4.423c9.4,1.106,25.984,1.658,33.724-6.081,10.5-10.5,16.032-19.349,20.455-20.455,3.87-1.106,33.724,33.723,25.431,52.52S371.811,368,363.518,362.47s-13.268-5.528-13.268-5.528-17.691-17.691-29.3-25.984c-2.764,5.528-8.846,12.163-18.8,7.187,0,0-18.8,2.764-21.561-8.293C277.827,319.348,240.234,311.608,266.771,290.047Z" transform="translate(-204.052 -228.216)" fill="url(#linear-gradient-57)"/>
          <path id="Path_1794" data-name="Path 1794" d="M279.641,259.2c4.976,1.106,9.951-1.106,10.5-4.423.553-3.87-2.764-7.74-7.74-8.846s-9.951,1.106-10.5,4.423C270.8,254.228,274.112,258.1,279.641,259.2Z" transform="translate(-165.508 -149.275)" fill="url(#linear-gradient-58)"/>
        </g>
        <path id="Path_1795" data-name="Path 1795" d="M836.058,323,299.8,370.545V667.421l536.258-23.772Z" transform="translate(1547.803 1100.227)" fill="#fff" opacity="0.68"/>
        <g id="Group_1856" data-name="Group 1856" transform="translate(401.364 898.351)">
          <g id="Group_1840" data-name="Group 1840" transform="translate(301.935 27.87)">
            <path id="Path_1796" data-name="Path 1796" d="M711.049,565.359l6.081-17.691,7.187-34.829S826.041,438.2,846.5,405.587s15.479-141.528,9.4-145.4-10.5,0-10.5,0-23.219,108.357-39.8,122.731-67.447,59.707-106.7,67.447l-6.081-8.293-67.447-18.244H604.9s6.634-88.455,12.163-93.983C649.13,297.783,759.7,238.628,759.7,238.628l-5.528-5.528s-145.4,34.829-174.7,77.951c-8.845,12.715-25.984,108.91-32.065,166.406-6.634,56.943,59.154,81.268,59.154,81.268S704.968,583.6,711.049,565.359Z" transform="translate(-546.937 -233.1)" fill="url(#linear-gradient-59)"/>
            <g id="Group_1839" data-name="Group 1839" transform="translate(0)" clip-path="url(#clip-path-23)">
              <path id="Path_1797" data-name="Path 1797" d="M691.51,253.4c1.106,3.317-23.219,107.8-66.341,89.008s-34.829,67.447-34.829,67.447l105.04-13.268,18.8-105.04L691.51,253.4" transform="translate(-636.308 -141.173)" opacity="0.43" fill="url(#linear-gradient-60)"/>
            </g>
          </g>
          <g id="Group_1842" data-name="Group 1842" transform="translate(0 930.111)">
            <path id="Path_1799" data-name="Path 1799" d="M715.911,414.544c-3.87,0-37.041,46.992-37.041,46.992l6.081,28.748s32.618,12.163,20.455,16.585c-12.163,3.87-43.122,0-43.122,0L645.7,455.454l22.667-12.163L692.692,396.3Z" transform="translate(-645.7 -396.3)" fill="url(#linear-gradient-61)"/>
            <g id="Group_1841" data-name="Group 1841" clip-path="url(#clip-path-24)">
              <path id="Path_1800" data-name="Path 1800" d="M760.508,467.164s-29.3,0-34.829-53.626-83.479,48.65-83.479,48.65l56.39,72.423,77.951-16.032,18.8-32.065Z" transform="translate(-705.777 -388.66)" fill="url(#linear-gradient-62)"/>
            </g>
          </g>
          <g id="Group_1845" data-name="Group 1845" transform="translate(337.235 1003.639)">
            <path id="Path_1802" data-name="Path 1802" d="M619.844,423.974l-8.293,40.91s57.5,10.5,65.789,12.163c8.293,2.211,3.87,10.5-26.536,10.5-30.959,0-71.87,2.211-71.87-6.081s10.5-20.455,10.5-20.455l2.211-51.414Z" transform="translate(-578.934 -409.6)" fill="url(#linear-gradient-63)"/>
            <g id="Group_1843" data-name="Group 1843" transform="translate(0)" clip-path="url(#clip-path-25)">
              <path id="Path_1803" data-name="Path 1803" d="M647.992,433.291s-38.7-3.87-44.228-14.374S571.7,446.007,571.7,446.007l48.65,29.3,112.78-5.529L746.4,426.657l-98.406,6.634" transform="translate(-604.318 -375.796)" fill="url(#linear-gradient-64)"/>
            </g>
            <g id="Group_1844" data-name="Group 1844" transform="translate(0)" clip-path="url(#clip-path-25)">
              <path id="Path_1805" data-name="Path 1805" d="M739.847,456.164s-27.089-13.268-37.593-45.886C691.75,378.213,643.1,434.6,643.1,434.6l21.561,67.447,56.39,18.8,48.65-32.065Z" transform="translate(-1022.351 -451.188)" fill="url(#linear-gradient-65)"/>
            </g>
          </g>
          <g id="Group_1847" data-name="Group 1847" transform="translate(379.804 106.927)">
            <path id="Path_1807" data-name="Path 1807" d="M571.082,283.888,624.708,247.4s66.894,44.227,48.65,74.081c-7.74,13.268-23.219,16.032-38.146,14.927-16.585,22.667-3.317,35.935,7.74,44.228,0,0-72.422,99.512-72.422-21.561,0,0,21.561-8.293,22.114-40.358Z" transform="translate(-570.53 -247.4)" fill="url(#linear-gradient-66)"/>
            <g id="Group_1846" data-name="Group 1846" transform="translate(0)" clip-path="url(#clip-path-27)">
              <path id="Path_1808" data-name="Path 1808" d="M657.816,260.8s9.951,72.423-35.382,126.048-42.569-75.187-42.569-75.187L657.816,260.8" transform="translate(-604.191 -186.719)" opacity="0.58" fill="url(#linear-gradient-67)"/>
            </g>
          </g>
          <g id="Group_1852" data-name="Group 1852" transform="translate(23.219 444.161)">
            <path id="Path_1810" data-name="Path 1810" d="M930.632,343.782s-55.284,1.658-120.52-35.382c0,0-63.577,30.959-71.87,100.618s-22.666,118.861-49.2,133.235-32.618,81.821-40.911,104.487-57.5,57.5-51.414,94.536-22.667,51.415-22.667,51.415l45.333,32.618s46.992-43.122,53.073-61.366S764.779,628.5,779.153,601.96s65.235-107.252,65.235-107.252,20.455,92.878,43.122,109.463,26.536,55.284,37.041,61.366-22.667,34.829-14.374,59.707-37.041,98.406-32.618,112.78c3.87,14.374-12.163,28.748-8.293,34.829s61.365,20.455,61.365,20.455,92.325-208.975,86.244-252.1C1010.794,597.537,957.721,413.44,930.632,343.782Z" transform="translate(-574.048 -308.4)" fill="url(#linear-gradient-68)"/>
            <g id="Group_1848" data-name="Group 1848" transform="translate(0)" clip-path="url(#clip-path-28)">
              <path id="Path_1811" data-name="Path 1811" d="M714.877,453.548l2.764-45.886s-13.269-29.3-16.033-50.861-18.8-29.3-18.8-29.3,2.764,75.187-13.268,96.747-45.886,56.39-37.593,75.187-37.593,83.479-24.325,110.016C620.341,635.986,714.877,453.548,714.877,453.548Z" transform="translate(-446.748 -221.907)" opacity="0.26" fill="url(#linear-gradient-69)"/>
            </g>
            <g id="Group_1849" data-name="Group 1849" transform="translate(0)" clip-path="url(#clip-path-28)">
              <path id="Path_1813" data-name="Path 1813" d="M739.517,344.7s-27.089,43.122-64.683,21.561-77.951-61.918-86.244-59.154,118.309,18.8,118.309,18.8Z" transform="translate(-374.64 -314.85)" opacity="0.43" fill="url(#linear-gradient-70)"/>
            </g>
            <g id="Group_1850" data-name="Group 1850" transform="translate(0)" clip-path="url(#clip-path-28)">
              <path id="Path_1815" data-name="Path 1815" d="M626.672,353.1c1.106,2.764,14.927,40.358,38.7,48.65,24.325,8.293,45.886,48.65,37.593,64.683s8.293,59.154-13.268,75.187S646.574,646.66,652.1,659.928s27.089,29.3,27.089,29.3L587.973,673.2l38.7-320.1" transform="translate(-338.64 -105.979)" opacity="0.3" fill="url(#linear-gradient-71)"/>
            </g>
            <g id="Group_1851" data-name="Group 1851" transform="translate(0)" clip-path="url(#clip-path-28)">
              <path id="Path_1817" data-name="Path 1817" d="M739.155,365.293,747.448,357s16.033,69.658-10.5,91.219c-27.089,21.561-45.886,32.065-43.122,50.862s-10.5,56.39-8.293,75.187c2.764,18.8-13.268,22.667-13.268,22.667l-34.829-44.227,34.829-72.422,34.829-86.244Z" transform="translate(-659.546 -88.318)" fill="url(#linear-gradient-72)"/>
            </g>
          </g>
          <g id="Group_1855" data-name="Group 1855" transform="translate(256.904 219.154)">
            <path id="Path_1819" data-name="Path 1819" d="M780.8,289.814s-28.748,22.667-37.041,77.951,37.594,33.171,50.309-11.61c0,0,5.528,70.764-37.594,99.512s-23.219,41.463-45.886,53.626-16.033,18.244-16.033,18.244-40.911,20.455-73.528,0-46.992-34.829-46.992-34.829-8.293-38.7,6.081-61.366S617.16,320.773,617.16,320.773s46.992-16.585,57.5-53.073h20.455s-28.748,108.91,67.447,18.244C762.558,285.391,770.85,283.18,780.8,289.814Z" transform="translate(-571.658 -267.7)" fill="url(#linear-gradient-73)"/>
            <g id="Group_1853" data-name="Group 1853" clip-path="url(#clip-path-32)">
              <path id="Path_1820" data-name="Path 1820" d="M787.27,271.5C790.586,282,704.9,470.524,602.62,403.077S787.27,271.5,787.27,271.5Z" transform="translate(-614.061 -250.492)" opacity="0.29" fill="url(#linear-gradient-74)"/>
            </g>
            <g id="Group_1854" data-name="Group 1854" clip-path="url(#clip-path-32)">
              <path id="Path_1822" data-name="Path 1822" d="M691.53,317.846c5.528,5.528,8.293,48.65-27.09,67.447-34.829,18.8-5.528,50.862-37.593,53.626s2.764,18.8-32.065,18.8-50.862,24.325,27.089,10.5c77.951-13.268,131.577-150.374,110.016-161.43A111.611,111.611,0,0,1,697.059,279.7Z" transform="translate(-482.386 -213.359)" fill="url(#linear-gradient-75)"/>
            </g>
          </g>
          <path id="Path_1824" data-name="Path 1824" d="M783.649,281.2s7.74-32.618-16.585-38.7-40.357,46.992-40.357,46.992S694.642,278.432,690.772,321s-3.87,111.674-68,95.089c-64.13-17.138-68,143.186,37.593,102.276S772.593,347.538,772.593,347.538s-10.5,7.187-17.691-9.4c-6.634-16.032,11.057-12.715,11.057-12.715s14.927-29.854,1.658-49.2C767.064,275.668,775.357,275.668,783.649,281.2Z" transform="translate(-336.399 -164.872)" fill="url(#linear-gradient-76)"/>
          <path id="Path_1825" data-name="Path 1825" d="M566.879,281.1s18.8-29.3,10.5-34.829S542.554,221.946,545.319,233c2.764,10.5,8.293,43.122,8.293,43.122Z" transform="translate(46.777 -221.165)" fill="url(#linear-gradient-77)"/>
          <path id="Path_1826" data-name="Path 1826" d="M597.979,255.929s-5.528-2.764-10.5,0c-2.211,1.106-5.528-2.764-8.292-5.528s0-8.293,0-10.5c0-2.764-10.5-16.032-16.033-10.5s2.764,21.561,5.528,27.089,5.529,5.528,5.529,5.528,2.764,5.528,13.268,0C587.475,260.9,603.508,260.9,597.979,255.929Z" transform="translate(-62.274 -228.059)" fill="url(#linear-gradient-78)"/>
        </g>
      </g>
    </g>
  </g>
</svg>
