<svg id="step3" xmlns="http://www.w3.org/2000/svg" width="415.992" height="415.992" viewBox="0 0 415.992 415.992">
  <path id="Path_1839" data-name="Path 1839" d="M0,415.992V0H415.992V415.992Z" fill="none"/>
  <g id="Group_1869" data-name="Group 1869" transform="translate(77.549 46.529)">
    <path id="Path_1840" data-name="Path 1840" d="M32.063,19.238V339.772h82.719v-10.34H42.4V29.577H207.839v72.379h72.379V246.713h10.34V94.645L215.15,19.238Zm186.115,17.65,54.728,54.728H218.178ZM68.252,39.917a5.17,5.17,0,1,0,5.17,5.17A5.17,5.17,0,0,0,68.252,39.917Zm0,20.68a5.17,5.17,0,1,0,5.17,5.17A5.17,5.17,0,0,0,68.252,60.6Zm0,20.68a5.17,5.17,0,1,0,5.17,5.17A5.17,5.17,0,0,0,68.252,81.276Zm0,20.68a5.17,5.17,0,1,0,5.17,5.17A5.17,5.17,0,0,0,68.252,101.956Zm0,20.68a5.17,5.17,0,1,0,5.17,5.17A5.17,5.17,0,0,0,68.252,122.636Zm0,20.68a5.17,5.17,0,1,0,5.17,5.17A5.17,5.17,0,0,0,68.252,143.315Zm0,20.68a5.17,5.17,0,1,0,5.17,5.17A5.17,5.17,0,0,0,68.252,163.995Zm144.757,10.34v155.1H197.5V215.694H145.8V329.432h-15.51v10.34H347.427v-10.34h-15.51V262.223h-51.7v67.209h-15.51v-155.1ZM68.252,184.675a5.17,5.17,0,1,0,5.17,5.17A5.17,5.17,0,0,0,68.252,184.675Zm155.1,0h31.019V329.432H223.349Zm-155.1,20.68a5.17,5.17,0,1,0,5.17,5.17A5.17,5.17,0,0,0,68.252,205.354Zm0,20.681a5.17,5.17,0,1,0,5.17,5.17A5.17,5.17,0,0,0,68.252,226.035Zm87.888,0h10.34a5.17,5.17,0,0,0,10.34,0h10.34v10.34a5.17,5.17,0,1,0,0,10.34v20.68a5.17,5.17,0,1,0,0,10.34v20.68a5.17,5.17,0,1,0,0,10.34v20.68H156.14v-20.68a5.17,5.17,0,1,0,0-10.34v-20.68a5.17,5.17,0,1,0,0-10.34v-20.68a5.17,5.17,0,1,0,0-10.34ZM68.252,246.712a5.17,5.17,0,1,0,5.17,5.17A5.17,5.17,0,0,0,68.252,246.712Zm103.4,5.171a5.17,5.17,0,1,0,5.17,5.17A5.17,5.17,0,0,0,171.65,251.883Zm-103.4,15.511a5.17,5.17,0,1,0,5.17,5.17A5.17,5.17,0,0,0,68.252,267.394Zm227.476,5.169h20.68a5.17,5.17,0,0,0,5.17,5.17v20.68a5.17,5.17,0,1,0,0,10.34v20.68H290.558v-20.68a5.17,5.17,0,1,0,0-10.34v-20.68a5.17,5.17,0,0,0,5.17-5.17ZM171.65,282.9a5.17,5.17,0,1,0,5.17,5.17A5.17,5.17,0,0,0,171.65,282.9Zm134.418,0a5.17,5.17,0,1,0,5.17,5.17A5.17,5.17,0,0,0,306.068,282.9ZM68.252,288.072a5.17,5.17,0,1,0,5.17,5.17A5.17,5.17,0,0,0,68.252,288.072Zm0,20.682a5.17,5.17,0,1,0,5.17,5.17A5.17,5.17,0,0,0,68.252,308.754Zm103.4,5.169a5.17,5.17,0,1,0,5.17,5.17A5.17,5.17,0,0,0,171.65,313.922Zm134.418,0a5.17,5.17,0,1,0,5.17,5.17A5.17,5.17,0,0,0,306.068,313.922Z" transform="translate(-32.063 -19.238)" fill="#878787"/>
  </g>
</svg>
