<svg id="step2" xmlns="http://www.w3.org/2000/svg" width="351.992" height="351.992" viewBox="0 0 351.992 351.992">
  <path id="Path_1837" data-name="Path 1837" d="M0,351.992V0H351.992V351.992Z" fill="none"/>
  <g id="Group_1868" data-name="Group 1868" transform="translate(30.622 30.622)">
    <g id="surface1">
      <path id="Path_1838" data-name="Path 1838" d="M159.322,14.963c-79.459,0-144.359,58.56-144.359,131.236,0,40.994,20.984,77.306,53.229,101.315a73.354,73.354,0,0,1-17.276,31.134c-3.366,3.674-6.6,6.716-9.21,9.808-2.6,3.093-4.87,6.545-4.87,10.851v4.375H41.21c29.836,0,59.791-18.4,77.921-31.561a156.769,156.769,0,0,0,40.191,5.314c79.459,0,144.359-58.56,144.359-131.236S238.781,14.962,159.322,14.962Zm0,8.749c75.17,0,135.61,55.04,135.61,122.487s-60.44,122.487-135.61,122.487a148.678,148.678,0,0,1-39.952-5.417l-2.051-.581-1.726,1.282c-15.738,11.551-42.1,27.016-66.934,29.853,2.119-2.461,5.212-5.451,8.715-9.262A81.442,81.442,0,0,0,77.59,247.308l.718-2.888-2.444-1.709c-31.818-22.5-52.152-57.347-52.152-96.513,0-67.446,60.44-122.487,135.61-122.487Zm.256,13.124a4.375,4.375,0,1,0,4.357,4.375A4.376,4.376,0,0,0,159.578,36.835Zm-23.034,2.239a2.908,2.908,0,0,0-.871.085,4.348,4.348,0,1,0,.871-.085Zm46.155.085a4.285,4.285,0,1,0,.752.068A5.344,5.344,0,0,0,182.7,39.159ZM114.38,45.738a4.891,4.891,0,0,0-1.709.325,4.379,4.379,0,1,0,1.709-.325Zm90.463.188a4.359,4.359,0,0,0-4.152,6.032,4.29,4.29,0,0,0,2.358,2.375,4.375,4.375,0,0,0,3.349,0,4.29,4.29,0,0,0,2.375-2.358,4.375,4.375,0,0,0-2.358-5.707A3.888,3.888,0,0,0,204.843,45.926ZM93.96,56.606a4.624,4.624,0,0,0-2.495.735,4.359,4.359,0,1,0,2.495-.735Zm131.253.256a4.374,4.374,0,0,0-2.529,8,4.385,4.385,0,0,0,6.083-1.179,4.369,4.369,0,0,0-1.2-6.066,4.29,4.29,0,0,0-2.358-.752ZM76.052,71.267a4.483,4.483,0,0,0-3.178,1.265,4.413,4.413,0,1,0,3.178-1.265Zm167.017.342A4.366,4.366,0,1,0,243,80.341a4.285,4.285,0,0,0,3.093-1.265,4.358,4.358,0,0,0-3.025-7.467ZM159.817,79.76c-14.166,0-25.683,4.169-33.68,11.534s-12.286,17.789-12.679,29.391l-.154,4.528H143l.256-4.1c.308-4.545,1.9-7.843,4.392-10.133,2.512-2.29,6.083-3.725,10.988-3.725,4.785,0,8.424,1.418,10.8,3.469a10.267,10.267,0,0,1,3.674,8.219c0,3.828-.649,6-2.409,8.39-1.76,2.375-5.007,4.99-10.372,8.219l.051-.017c-6.562,3.862-11.62,8.151-14.867,13.6-3.264,5.451-4.494,11.876-4.067,19.207v.017l.154,10.219H171.1V169.1c0-3.9.564-6.015,2.273-8.339,1.709-2.307,4.973-4.921,10.646-8.253v-.017h.017c13.038-7.758,21.155-19.173,21.155-34.347a35.738,35.738,0,0,0-12.85-27.785c-8.1-6.8-19.395-10.595-32.518-10.595Zm0,8.749c11.449,0,20.659,3.3,26.913,8.544a26.592,26.592,0,0,1,9.706,21.087c0,12.286-5.519,20.078-16.883,26.828-6.066,3.571-10.338,6.7-13.226,10.612-2.888,3.93-3.981,8.527-3.981,13.517v.735H150.231l-.051-1.9v-.085c-.359-6.117.6-10.458,2.837-14.217,2.239-3.776,5.981-7.143,11.791-10.56l.034-.017h.017c5.759-3.486,9.962-6.613,12.867-10.509a22.192,22.192,0,0,0,4.135-13.6,19.5,19.5,0,0,0-6.7-14.849c-4.221-3.623-10-5.588-16.524-5.588-6.664,0-12.594,2.085-16.883,6.015-3.315,3.042-5.178,7.3-6.22,11.944H123.146c1.128-7.5,3.828-14.046,8.9-18.728,6.152-5.673,15.294-9.228,27.768-9.228Zm-98.478.615a4.376,4.376,0,0,0-2.529,8.014A4.377,4.377,0,0,0,63.7,89.876a4.637,4.637,0,0,0-2.358-.752Zm196.391.41a4.368,4.368,0,0,0-3.708,6.784,4.37,4.37,0,1,0,3.708-6.784ZM50.386,109.527a4.376,4.376,0,1,0,3.947,2.7,4.352,4.352,0,0,0-3.947-2.7Zm218.179.444a4.551,4.551,0,0,0-1.709.342,4.371,4.371,0,1,0,5.725,2.375,4.442,4.442,0,0,0-4.016-2.717Zm-224.912,21.7a4.392,4.392,0,1,0,.718.085,3.43,3.43,0,0,0-.718-.085Zm231.594.478a3.825,3.825,0,0,0-.889.085,4.409,4.409,0,0,0-2.785,1.846,4.486,4.486,0,0,0-.649,3.3,4.373,4.373,0,1,0,4.323-5.229ZM41.21,154.708a4.375,4.375,0,1,0,4.375,4.392A4.368,4.368,0,0,0,41.21,154.708Zm236.223.461a4.375,4.375,0,1,0,4.375,4.392,4.285,4.285,0,0,0-1.265-3.093A4.428,4.428,0,0,0,277.433,155.169ZM46.746,175.863a4.169,4.169,0,0,0-1.709.325,4.29,4.29,0,0,0-2.358,2.375,4.375,4.375,0,0,0,0,3.349,4.29,4.29,0,0,0,2.375,2.358,4.371,4.371,0,1,0,1.692-8.407Zm225.288,0a4.364,4.364,0,1,0,3.93,2.7,4.424,4.424,0,0,0-2.358-2.358A4.266,4.266,0,0,0,272.034,175.863Zm-114.746,8.151a19.689,19.689,0,0,0-13.824,5.126,19.679,19.679,0,0,0,0,27.119,21.341,21.341,0,0,0,27.751,0,19.84,19.84,0,0,0,0-27.1c-3.486-3.383-8.441-5.143-13.927-5.143Zm0,8.749c3.691,0,6.186,1.059,7.843,2.666,1.658,1.623,2.683,3.93,2.683,7.314,0,3.332-1.008,5.6-2.683,7.211-1.658,1.606-4.152,2.683-7.843,2.683a10.88,10.88,0,0,1-7.775-2.683,9.44,9.44,0,0,1-2.717-7.211c0-3.366,1.025-5.656,2.734-7.279,1.692-1.64,4.2-2.7,7.758-2.7Zm101.777,2.922a4.378,4.378,0,1,0,2.358.752,4.344,4.344,0,0,0-2.358-.752ZM59.716,195.7a4.582,4.582,0,0,0-2.495.735,4.393,4.393,0,0,0-1.179,6.083,4.365,4.365,0,1,0,3.674-6.818ZM75.71,212.055a4.375,4.375,0,0,0-3.178,7.467,4.38,4.38,0,1,0,3.178-7.467Zm167.035.325a4.388,4.388,0,0,0-3.161,1.282,4.342,4.342,0,0,0-1.282,3.093,4.285,4.285,0,0,0,1.264,3.093,4.38,4.38,0,1,0,6.2-6.186,4.357,4.357,0,0,0-3.025-1.282ZM224.8,227.059a4.361,4.361,0,1,0,3.588,1.931,4.322,4.322,0,0,0-3.588-1.931Zm-20.455,10.867a4.409,4.409,0,0,0-1.709.325,4.487,4.487,0,0,0-2.392,2.358,4.374,4.374,0,1,0,4.1-2.683Zm-68.181,6.561a4.392,4.392,0,1,0,.735.085A3.46,3.46,0,0,0,136.168,244.487Zm45.984.121a3.769,3.769,0,0,0-.871.085,4.409,4.409,0,0,0-2.785,1.846,4.3,4.3,0,0,0-.649,3.281,4.372,4.372,0,1,0,4.306-5.212Zm-23.052,2.2a4.375,4.375,0,0,0-.017,8.749,4.285,4.285,0,0,0,3.093-1.265,4.374,4.374,0,0,0-3.076-7.485Z" transform="translate(-14.963 -14.962)" fill="#878787"/>
    </g>
  </g>
</svg>
