<svg xmlns="http://www.w3.org/2000/svg" xmlns:xlink="http://www.w3.org/1999/xlink" width="1384" height="721" viewBox="0 0 1384 721">
  <defs>
    <clipPath id="clip-path">
      <rect width="684" height="758.001" fill="none"/>
    </clipPath>
    <clipPath id="clip-path-2">
      <rect width="1384.001" height="694" fill="none"/>
    </clipPath>
    <clipPath id="clip-path-3">
      <rect width="141" height="118" fill="none"/>
    </clipPath>
  </defs>
  <g id="animated__banner3" transform="translate(15.001 16)">
    <g id="Group_1619" data-name="Group 1619" transform="translate(-47 -1)">
      <g id="Repeat_Grid_6" data-name="Repeat Grid 6" transform="translate(1120.001) rotate(90)" opacity="0.25" clip-path="url(#clip-path)">
        <g transform="translate(-134 -102)">
          <rect id="Rectangle_245" data-name="Rectangle 245" width="1" height="600" transform="translate(134 102)" fill="rgba(178,178,178,0.94)"/>
        </g>
        <g transform="translate(18 -102)">
          <rect id="Rectangle_245-2" data-name="Rectangle 245" width="1" height="600" transform="translate(134 102)" fill="rgba(178,178,178,0.94)"/>
        </g>
        <g transform="translate(170 -102)">
          <rect id="Rectangle_245-3" data-name="Rectangle 245" width="1" height="600" transform="translate(134 102)" fill="rgba(178,178,178,0.94)"/>
        </g>
        <g transform="translate(322 -102)">
          <rect id="Rectangle_245-4" data-name="Rectangle 245" width="1" height="600" transform="translate(134 102)" fill="rgba(178,178,178,0.94)"/>
        </g>
        <g transform="translate(474 -102)">
          <rect id="Rectangle_245-5" data-name="Rectangle 245" width="1" height="600" transform="translate(134 102)" fill="rgba(178,178,178,0.94)"/>
        </g>
        <g transform="translate(-134 496)">
          <rect id="Rectangle_245-6" data-name="Rectangle 245" width="1" height="600" transform="translate(134 102)" fill="rgba(178,178,178,0.94)"/>
        </g>
        <g transform="translate(18 496)">
          <rect id="Rectangle_245-7" data-name="Rectangle 245" width="1" height="600" transform="translate(134 102)" fill="rgba(178,178,178,0.94)"/>
        </g>
        <g transform="translate(170 496)">
          <rect id="Rectangle_245-8" data-name="Rectangle 245" width="1" height="600" transform="translate(134 102)" fill="rgba(178,178,178,0.94)"/>
        </g>
        <g transform="translate(322 496)">
          <rect id="Rectangle_245-9" data-name="Rectangle 245" width="1" height="600" transform="translate(134 102)" fill="rgba(178,178,178,0.94)"/>
        </g>
        <g transform="translate(474 496)">
          <rect id="Rectangle_245-10" data-name="Rectangle 245" width="1" height="600" transform="translate(134 102)" fill="rgba(178,178,178,0.94)"/>
        </g>
      </g>
      <g id="Repeat_Grid_5" data-name="Repeat Grid 5" transform="translate(32 -15)" opacity="0.46" clip-path="url(#clip-path-2)">
        <g transform="translate(-134 -102)">
          <rect id="Rectangle_245-11" data-name="Rectangle 245" width="1" height="600" transform="translate(134 102)" fill="rgba(230,230,230,0.56)"/>
        </g>
        <g transform="translate(103 -102)">
          <rect id="Rectangle_245-12" data-name="Rectangle 245" width="1" height="600" transform="translate(134 102)" fill="rgba(230,230,230,0.56)"/>
        </g>
        <g transform="translate(340 -102)">
          <rect id="Rectangle_245-13" data-name="Rectangle 245" width="1" height="600" transform="translate(134 102)" fill="rgba(230,230,230,0.56)"/>
        </g>
        <g transform="translate(577 -102)">
          <rect id="Rectangle_245-14" data-name="Rectangle 245" width="1" height="600" transform="translate(134 102)" fill="rgba(230,230,230,0.56)"/>
        </g>
        <g transform="translate(814 -102)">
          <rect id="Rectangle_245-15" data-name="Rectangle 245" width="1" height="600" transform="translate(134 102)" fill="rgba(230,230,230,0.56)"/>
        </g>
        <g transform="translate(1051 -102)">
          <rect id="Rectangle_245-16" data-name="Rectangle 245" width="1" height="600" transform="translate(134 102)" fill="rgba(230,230,230,0.56)"/>
        </g>
        <g transform="translate(-134 496)">
          <rect id="Rectangle_245-17" data-name="Rectangle 245" width="1" height="600" transform="translate(134 102)" fill="rgba(230,230,230,0.56)"/>
        </g>
        <g transform="translate(103 496)">
          <rect id="Rectangle_245-18" data-name="Rectangle 245" width="1" height="600" transform="translate(134 102)" fill="rgba(230,230,230,0.56)"/>
        </g>
        <g transform="translate(340 496)">
          <rect id="Rectangle_245-19" data-name="Rectangle 245" width="1" height="600" transform="translate(134 102)" fill="rgba(230,230,230,0.56)"/>
        </g>
        <g transform="translate(577 496)">
          <rect id="Rectangle_245-20" data-name="Rectangle 245" width="1" height="600" transform="translate(134 102)" fill="rgba(230,230,230,0.56)"/>
        </g>
        <g transform="translate(814 496)">
          <rect id="Rectangle_245-21" data-name="Rectangle 245" width="1" height="600" transform="translate(134 102)" fill="rgba(230,230,230,0.56)"/>
        </g>
        <g transform="translate(1051 496)">
          <rect id="Rectangle_245-22" data-name="Rectangle 245" width="1" height="600" transform="translate(134 102)" fill="rgba(230,230,230,0.56)"/>
        </g>
      </g>
      <g id="Repeat_Grid_7" data-name="Repeat Grid 7" transform="translate(821.001 332)" clip-path="url(#clip-path-3)">
        <g transform="translate(-126 -326)">
          <g id="Ellipse_141" data-name="Ellipse 141" transform="translate(126 326)" fill="none" stroke="#4ec740" stroke-width="1">
            <circle cx="6" cy="6" r="6" stroke="none"/>
            <circle cx="6" cy="6" r="5.5" fill="none"/>
          </g>
        </g>
        <g transform="translate(-88 -326)">
          <g id="Ellipse_141-2" data-name="Ellipse 141" transform="translate(126 326)" fill="none" stroke="#4ec740" stroke-width="1">
            <circle cx="6" cy="6" r="6" stroke="none"/>
            <circle cx="6" cy="6" r="5.5" fill="none"/>
          </g>
        </g>
        <g transform="translate(-50 -326)">
          <g id="Ellipse_141-3" data-name="Ellipse 141" transform="translate(126 326)" fill="none" stroke="#4ec740" stroke-width="1">
            <circle cx="6" cy="6" r="6" stroke="none"/>
            <circle cx="6" cy="6" r="5.5" fill="none"/>
          </g>
        </g>
        <g transform="translate(-12 -326)">
          <g id="Ellipse_141-4" data-name="Ellipse 141" transform="translate(126 326)" fill="none" stroke="#4ec740" stroke-width="1">
            <circle cx="6" cy="6" r="6" stroke="none"/>
            <circle cx="6" cy="6" r="5.5" fill="none"/>
          </g>
        </g>
        <g transform="translate(-126 -294)">
          <g id="Ellipse_141-5" data-name="Ellipse 141" transform="translate(126 326)" fill="none" stroke="#4ec740" stroke-width="1">
            <circle cx="6" cy="6" r="6" stroke="none"/>
            <circle cx="6" cy="6" r="5.5" fill="none"/>
          </g>
        </g>
        <g transform="translate(-88 -294)">
          <g id="Ellipse_141-6" data-name="Ellipse 141" transform="translate(126 326)" fill="none" stroke="#4ec740" stroke-width="1">
            <circle cx="6" cy="6" r="6" stroke="none"/>
            <circle cx="6" cy="6" r="5.5" fill="none"/>
          </g>
        </g>
        <g transform="translate(-50 -294)">
          <g id="Ellipse_141-7" data-name="Ellipse 141" transform="translate(126 326)" fill="none" stroke="#4ec740" stroke-width="1">
            <circle cx="6" cy="6" r="6" stroke="none"/>
            <circle cx="6" cy="6" r="5.5" fill="none"/>
          </g>
        </g>
        <g transform="translate(-12 -294)">
          <g id="Ellipse_141-8" data-name="Ellipse 141" transform="translate(126 326)" fill="none" stroke="#4ec740" stroke-width="1">
            <circle cx="6" cy="6" r="6" stroke="none"/>
            <circle cx="6" cy="6" r="5.5" fill="none"/>
          </g>
        </g>
        <g transform="translate(-126 -262)">
          <g id="Ellipse_141-9" data-name="Ellipse 141" transform="translate(126 326)" fill="none" stroke="#4ec740" stroke-width="1">
            <circle cx="6" cy="6" r="6" stroke="none"/>
            <circle cx="6" cy="6" r="5.5" fill="none"/>
          </g>
        </g>
        <g transform="translate(-88 -262)">
          <g id="Ellipse_141-10" data-name="Ellipse 141" transform="translate(126 326)" fill="none" stroke="#4ec740" stroke-width="1">
            <circle cx="6" cy="6" r="6" stroke="none"/>
            <circle cx="6" cy="6" r="5.5" fill="none"/>
          </g>
        </g>
        <g transform="translate(-50 -262)">
          <g id="Ellipse_141-11" data-name="Ellipse 141" transform="translate(126 326)" fill="none" stroke="#4ec740" stroke-width="1">
            <circle cx="6" cy="6" r="6" stroke="none"/>
            <circle cx="6" cy="6" r="5.5" fill="none"/>
          </g>
        </g>
        <g transform="translate(-12 -262)">
          <g id="Ellipse_141-12" data-name="Ellipse 141" transform="translate(126 326)" fill="none" stroke="#4ec740" stroke-width="1">
            <circle cx="6" cy="6" r="6" stroke="none"/>
            <circle cx="6" cy="6" r="5.5" fill="none"/>
          </g>
        </g>
        <g transform="translate(-126 -230)">
          <g id="Ellipse_141-13" data-name="Ellipse 141" transform="translate(126 326)" fill="none" stroke="#4ec740" stroke-width="1">
            <circle cx="6" cy="6" r="6" stroke="none"/>
            <circle cx="6" cy="6" r="5.5" fill="none"/>
          </g>
        </g>
        <g transform="translate(-88 -230)">
          <g id="Ellipse_141-14" data-name="Ellipse 141" transform="translate(126 326)" fill="none" stroke="#4ec740" stroke-width="1">
            <circle cx="6" cy="6" r="6" stroke="none"/>
            <circle cx="6" cy="6" r="5.5" fill="none"/>
          </g>
        </g>
        <g transform="translate(-50 -230)">
          <g id="Ellipse_141-15" data-name="Ellipse 141" transform="translate(126 326)" fill="none" stroke="#4ec740" stroke-width="1">
            <circle cx="6" cy="6" r="6" stroke="none"/>
            <circle cx="6" cy="6" r="5.5" fill="none"/>
          </g>
        </g>
        <g transform="translate(-12 -230)">
          <g id="Ellipse_141-16" data-name="Ellipse 141" transform="translate(126 326)" fill="none" stroke="#4ec740" stroke-width="1">
            <circle cx="6" cy="6" r="6" stroke="none"/>
            <circle cx="6" cy="6" r="5.5" fill="none"/>
          </g>
        </g>
      </g>
      <g id="Repeat_Grid_8" data-name="Repeat Grid 8" transform="translate(583 70)" clip-path="url(#clip-path-3)">
        <g transform="translate(-126 -326)">
          <circle id="Ellipse_141-17" data-name="Ellipse 141" cx="6" cy="6" r="6" transform="translate(126 326)" fill="#e5e5e5"/>
        </g>
        <g transform="translate(-88 -326)">
          <circle id="Ellipse_141-18" data-name="Ellipse 141" cx="6" cy="6" r="6" transform="translate(126 326)" fill="#e5e5e5"/>
        </g>
        <g transform="translate(-50 -326)">
          <circle id="Ellipse_141-19" data-name="Ellipse 141" cx="6" cy="6" r="6" transform="translate(126 326)" fill="#e5e5e5"/>
        </g>
        <g transform="translate(-12 -326)">
          <circle id="Ellipse_141-20" data-name="Ellipse 141" cx="6" cy="6" r="6" transform="translate(126 326)" fill="#e5e5e5"/>
        </g>
        <g transform="translate(-126 -294)">
          <circle id="Ellipse_141-21" data-name="Ellipse 141" cx="6" cy="6" r="6" transform="translate(126 326)" fill="#e5e5e5"/>
        </g>
        <g transform="translate(-88 -294)">
          <circle id="Ellipse_141-22" data-name="Ellipse 141" cx="6" cy="6" r="6" transform="translate(126 326)" fill="#e5e5e5"/>
        </g>
        <g transform="translate(-50 -294)">
          <circle id="Ellipse_141-23" data-name="Ellipse 141" cx="6" cy="6" r="6" transform="translate(126 326)" fill="#e5e5e5"/>
        </g>
        <g transform="translate(-12 -294)">
          <circle id="Ellipse_141-24" data-name="Ellipse 141" cx="6" cy="6" r="6" transform="translate(126 326)" fill="#e5e5e5"/>
        </g>
        <g transform="translate(-126 -262)">
          <circle id="Ellipse_141-25" data-name="Ellipse 141" cx="6" cy="6" r="6" transform="translate(126 326)" fill="#e5e5e5"/>
        </g>
        <g transform="translate(-88 -262)">
          <circle id="Ellipse_141-26" data-name="Ellipse 141" cx="6" cy="6" r="6" transform="translate(126 326)" fill="#e5e5e5"/>
        </g>
        <g transform="translate(-50 -262)">
          <circle id="Ellipse_141-27" data-name="Ellipse 141" cx="6" cy="6" r="6" transform="translate(126 326)" fill="#e5e5e5"/>
        </g>
        <g transform="translate(-12 -262)">
          <circle id="Ellipse_141-28" data-name="Ellipse 141" cx="6" cy="6" r="6" transform="translate(126 326)" fill="#e5e5e5"/>
        </g>
        <g transform="translate(-126 -230)">
          <circle id="Ellipse_141-29" data-name="Ellipse 141" cx="6" cy="6" r="6" transform="translate(126 326)" fill="#e5e5e5"/>
        </g>
        <g transform="translate(-88 -230)">
          <circle id="Ellipse_141-30" data-name="Ellipse 141" cx="6" cy="6" r="6" transform="translate(126 326)" fill="#e5e5e5"/>
        </g>
        <g transform="translate(-50 -230)">
          <circle id="Ellipse_141-31" data-name="Ellipse 141" cx="6" cy="6" r="6" transform="translate(126 326)" fill="#e5e5e5"/>
        </g>
        <g transform="translate(-12 -230)">
          <circle id="Ellipse_141-32" data-name="Ellipse 141" cx="6" cy="6" r="6" transform="translate(126 326)" fill="#e5e5e5"/>
        </g>
      </g>
      <ellipse id="Ellipse_142" data-name="Ellipse 142" cx="2.5" cy="2.5" rx="2.5" ry="2.5" transform="translate(231 614)" fill="#6a91d8"/>
      <g id="Rectangle_248" data-name="Rectangle 248" transform="translate(801.001 305)" fill="#fff" stroke="#7bdf70" stroke-width="1" opacity="0.35">
        <rect width="1" height="401" stroke="none"/>
        <rect x="0.5" y="0.5" height="400" fill="none"/>
      </g>
      <g id="Rectangle_249" data-name="Rectangle 249" transform="translate(1120.001 608) rotate(90)" fill="#fff" stroke="#7bdf70" stroke-width="1" opacity="0.35">
        <rect width="1" height="418" stroke="none"/>
        <rect x="0.5" y="0.5" height="417" fill="none"/>
      </g>
      <g id="Rectangle_250" data-name="Rectangle 250" transform="translate(1120.001 304.5) rotate(90)" fill="#fff" stroke="#7bdf70" stroke-width="1" opacity="0.35">
        <rect width="1" height="396" stroke="none"/>
        <rect x="0.5" y="0.5" height="395" fill="none"/>
      </g>
    </g>
    <g id="Group_1629" data-name="Group 1629" transform="translate(838.411 -35.459)">
      <path id="Subtraction_18" data-name="Subtraction 18" d="M50.519,114.229a8.367,8.367,0,0,1-5.124-1.764c-5.519-4.31-15.33-12.093-19.04-15.8A83.987,83.987,0,0,1,3.9,57.652C.379,44.266.041,31.032,0,19.678a4.371,4.371,0,0,1,4.139-4.4A81.62,81.62,0,0,0,26.356,11,81.682,81.682,0,0,0,45.363,1.573a9.245,9.245,0,0,1,10.319,0,81.624,81.624,0,0,0,19,9.423A81.574,81.574,0,0,0,96.9,15.279a4.371,4.371,0,0,1,4.139,4.4c-.041,11.356-.38,24.592-3.9,37.976A83.989,83.989,0,0,1,74.684,96.664c-3.706,3.706-13.52,11.491-19.04,15.8A8.367,8.367,0,0,1,50.519,114.229ZM50.875,7.48a8,8,0,0,0-4.483,1.374,70.848,70.848,0,0,1-16.517,8.224,70.642,70.642,0,0,1-19.306,3.741,3.808,3.808,0,0,0-3.6,3.837c.08,22.442,1.914,46.117,22.9,67.2,3.231,3.245,11.753,10.034,16.546,13.793a7.208,7.208,0,0,0,8.905,0c4.793-3.758,13.315-10.547,16.546-13.793,20.986-21.077,22.822-44.754,22.9-67.2a3.808,3.808,0,0,0-3.6-3.838,70.594,70.594,0,0,1-19.306-3.739A70.783,70.783,0,0,1,55.358,8.853,8,8,0,0,0,50.875,7.48Z" transform="translate(44.215 99.23)" fill="#dbdbdb" opacity="0.55"/>
      <path id="Path_1572" data-name="Path 1572" d="M86.526,64.638a8.529,8.529,0,1,0-12.793,7.379v8.257a4.264,4.264,0,1,0,8.529,0V72.017a8.517,8.517,0,0,0,4.264-7.379Z" transform="translate(16.73 86.292)" fill="#7bdf70"/>
    </g>
  </g>
</svg>
