<svg xmlns="http://www.w3.org/2000/svg" x="0px" y="0px" width="26" height="26" viewBox="0 0 192 192"
  style=" fill:#000000;">
  <g fill="none" fill-rule="nonzero" stroke="none" stroke-width="1" stroke-linecap="butt" stroke-linejoin="miter"
    stroke-miterlimit="10" stroke-dasharray="" stroke-dashoffset="0" font-family="none" font-weight="none"
    font-size="none" text-anchor="none" style="mix-blend-mode: normal">
    <path d="M0,192v-192h192v192z" fill="none"></path>
    <g fill="#ffffff">
      <g id="surface1">
        <path
          d="M66,42c-29.82,0 -54,24.18 -54,54c0,29.82 24.18,54 54,54c29.82,0 54,-24.18 54,-54c0,-3.705 -0.405,-7.32 -1.11,-10.8l-0.3,-1.2h-52.59v18h36c-2.865,17.025 -18.165,30 -36,30c-19.89,0 -36,-16.11 -36,-36c0,-19.89 16.11,-36 36,-36c9,0 17.205,3.33 23.52,8.79l12.9,-12.63c-9.6,-8.79 -22.38,-14.16 -36.42,-14.16zM150,66v18h-18v12h18v18h12v-18h18v-12h-18v-18z">
        </path>
      </g>
    </g>
  </g>
</svg>
