<svg xmlns="http://www.w3.org/2000/svg" xmlns:xlink="http://www.w3.org/1999/xlink" width="836" height="19" viewBox="0 0 836 19">
  <defs>
    <clipPath id="clip-path">
      <rect width="836" height="19" fill="none"/>
    </clipPath>
  </defs>
  <g id="lego-bg" clip-path="url(#clip-path)">
    <g transform="translate(-90 -344)">
      <rect id="Rectangle_1" data-name="Rectangle 1" width="11" height="11" rx="2" transform="translate(94 345)" fill="#f55"/>
      <rect id="Rectangle_2" data-name="Rectangle 2" width="37" height="11" transform="translate(90 352)" fill="#f55"/>
    </g>
    <g transform="translate(-59 -344)">
      <rect id="Rectangle_1-2" data-name="Rectangle 1" width="11" height="11" rx="2" transform="translate(94 345)" fill="#f55"/>
      <rect id="Rectangle_2-2" data-name="Rectangle 2" width="37" height="11" transform="translate(90 352)" fill="#f55"/>
    </g>
    <g transform="translate(-28 -344)">
      <rect id="Rectangle_1-3" data-name="Rectangle 1" width="11" height="11" rx="2" transform="translate(94 345)" fill="#f55"/>
      <rect id="Rectangle_2-3" data-name="Rectangle 2" width="37" height="11" transform="translate(90 352)" fill="#f55"/>
    </g>
    <g transform="translate(3 -344)">
      <rect id="Rectangle_1-4" data-name="Rectangle 1" width="11" height="11" rx="2" transform="translate(94 345)" fill="#f55"/>
      <rect id="Rectangle_2-4" data-name="Rectangle 2" width="37" height="11" transform="translate(90 352)" fill="#f55"/>
    </g>
    <g transform="translate(34 -344)">
      <rect id="Rectangle_1-5" data-name="Rectangle 1" width="11" height="11" rx="2" transform="translate(94 345)" fill="#f55"/>
      <rect id="Rectangle_2-5" data-name="Rectangle 2" width="37" height="11" transform="translate(90 352)" fill="#f55"/>
    </g>
    <g transform="translate(65 -344)">
      <rect id="Rectangle_1-6" data-name="Rectangle 1" width="11" height="11" rx="2" transform="translate(94 345)" fill="#f55"/>
      <rect id="Rectangle_2-6" data-name="Rectangle 2" width="37" height="11" transform="translate(90 352)" fill="#f55"/>
    </g>
    <g transform="translate(96 -344)">
      <rect id="Rectangle_1-7" data-name="Rectangle 1" width="11" height="11" rx="2" transform="translate(94 345)" fill="#f55"/>
      <rect id="Rectangle_2-7" data-name="Rectangle 2" width="37" height="11" transform="translate(90 352)" fill="#f55"/>
    </g>
    <g transform="translate(127 -344)">
      <rect id="Rectangle_1-8" data-name="Rectangle 1" width="11" height="11" rx="2" transform="translate(94 345)" fill="#f55"/>
      <rect id="Rectangle_2-8" data-name="Rectangle 2" width="37" height="11" transform="translate(90 352)" fill="#f55"/>
    </g>
    <g transform="translate(158 -344)">
      <rect id="Rectangle_1-9" data-name="Rectangle 1" width="11" height="11" rx="2" transform="translate(94 345)" fill="#f55"/>
      <rect id="Rectangle_2-9" data-name="Rectangle 2" width="37" height="11" transform="translate(90 352)" fill="#f55"/>
    </g>
    <g transform="translate(189 -344)">
      <rect id="Rectangle_1-10" data-name="Rectangle 1" width="11" height="11" rx="2" transform="translate(94 345)" fill="#f55"/>
      <rect id="Rectangle_2-10" data-name="Rectangle 2" width="37" height="11" transform="translate(90 352)" fill="#f55"/>
    </g>
    <g transform="translate(220 -344)">
      <rect id="Rectangle_1-11" data-name="Rectangle 1" width="11" height="11" rx="2" transform="translate(94 345)" fill="#f55"/>
      <rect id="Rectangle_2-11" data-name="Rectangle 2" width="37" height="11" transform="translate(90 352)" fill="#f55"/>
    </g>
    <g transform="translate(251 -344)">
      <rect id="Rectangle_1-12" data-name="Rectangle 1" width="11" height="11" rx="2" transform="translate(94 345)" fill="#f55"/>
      <rect id="Rectangle_2-12" data-name="Rectangle 2" width="37" height="11" transform="translate(90 352)" fill="#f55"/>
    </g>
    <g transform="translate(282 -344)">
      <rect id="Rectangle_1-13" data-name="Rectangle 1" width="11" height="11" rx="2" transform="translate(94 345)" fill="#f55"/>
      <rect id="Rectangle_2-13" data-name="Rectangle 2" width="37" height="11" transform="translate(90 352)" fill="#f55"/>
    </g>
    <g transform="translate(313 -344)">
      <rect id="Rectangle_1-14" data-name="Rectangle 1" width="11" height="11" rx="2" transform="translate(94 345)" fill="#f55"/>
      <rect id="Rectangle_2-14" data-name="Rectangle 2" width="37" height="11" transform="translate(90 352)" fill="#f55"/>
    </g>
    <g transform="translate(344 -344)">
      <rect id="Rectangle_1-15" data-name="Rectangle 1" width="11" height="11" rx="2" transform="translate(94 345)" fill="#f55"/>
      <rect id="Rectangle_2-15" data-name="Rectangle 2" width="37" height="11" transform="translate(90 352)" fill="#f55"/>
    </g>
    <g transform="translate(375 -344)">
      <rect id="Rectangle_1-16" data-name="Rectangle 1" width="11" height="11" rx="2" transform="translate(94 345)" fill="#f55"/>
      <rect id="Rectangle_2-16" data-name="Rectangle 2" width="37" height="11" transform="translate(90 352)" fill="#f55"/>
    </g>
    <g transform="translate(406 -344)">
      <rect id="Rectangle_1-17" data-name="Rectangle 1" width="11" height="11" rx="2" transform="translate(94 345)" fill="#f55"/>
      <rect id="Rectangle_2-17" data-name="Rectangle 2" width="37" height="11" transform="translate(90 352)" fill="#f55"/>
    </g>
    <g transform="translate(437 -344)">
      <rect id="Rectangle_1-18" data-name="Rectangle 1" width="11" height="11" rx="2" transform="translate(94 345)" fill="#f55"/>
      <rect id="Rectangle_2-18" data-name="Rectangle 2" width="37" height="11" transform="translate(90 352)" fill="#f55"/>
    </g>
    <g transform="translate(468 -344)">
      <rect id="Rectangle_1-19" data-name="Rectangle 1" width="11" height="11" rx="2" transform="translate(94 345)" fill="#f55"/>
      <rect id="Rectangle_2-19" data-name="Rectangle 2" width="37" height="11" transform="translate(90 352)" fill="#f55"/>
    </g>
    <g transform="translate(499 -344)">
      <rect id="Rectangle_1-20" data-name="Rectangle 1" width="11" height="11" rx="2" transform="translate(94 345)" fill="#f55"/>
      <rect id="Rectangle_2-20" data-name="Rectangle 2" width="37" height="11" transform="translate(90 352)" fill="#f55"/>
    </g>
    <g transform="translate(530 -344)">
      <rect id="Rectangle_1-21" data-name="Rectangle 1" width="11" height="11" rx="2" transform="translate(94 345)" fill="#f55"/>
      <rect id="Rectangle_2-21" data-name="Rectangle 2" width="37" height="11" transform="translate(90 352)" fill="#f55"/>
    </g>
    <g transform="translate(561 -344)">
      <rect id="Rectangle_1-22" data-name="Rectangle 1" width="11" height="11" rx="2" transform="translate(94 345)" fill="#f55"/>
      <rect id="Rectangle_2-22" data-name="Rectangle 2" width="37" height="11" transform="translate(90 352)" fill="#f55"/>
    </g>
    <g transform="translate(592 -344)">
      <rect id="Rectangle_1-23" data-name="Rectangle 1" width="11" height="11" rx="2" transform="translate(94 345)" fill="#f55"/>
      <rect id="Rectangle_2-23" data-name="Rectangle 2" width="37" height="11" transform="translate(90 352)" fill="#f55"/>
    </g>
    <g transform="translate(623 -344)">
      <rect id="Rectangle_1-24" data-name="Rectangle 1" width="11" height="11" rx="2" transform="translate(94 345)" fill="#f55"/>
      <rect id="Rectangle_2-24" data-name="Rectangle 2" width="37" height="11" transform="translate(90 352)" fill="#f55"/>
    </g>
    <g transform="translate(654 -344)">
      <rect id="Rectangle_1-25" data-name="Rectangle 1" width="11" height="11" rx="2" transform="translate(94 345)" fill="#f55"/>
      <rect id="Rectangle_2-25" data-name="Rectangle 2" width="37" height="11" transform="translate(90 352)" fill="#f55"/>
    </g>
    <g transform="translate(685 -344)">
      <rect id="Rectangle_1-26" data-name="Rectangle 1" width="11" height="11" rx="2" transform="translate(94 345)" fill="#f55"/>
      <rect id="Rectangle_2-26" data-name="Rectangle 2" width="37" height="11" transform="translate(90 352)" fill="#f55"/>
    </g>
    <g transform="translate(716 -344)">
      <rect id="Rectangle_1-27" data-name="Rectangle 1" width="11" height="11" rx="2" transform="translate(94 345)" fill="#f55"/>
      <rect id="Rectangle_2-27" data-name="Rectangle 2" width="37" height="11" transform="translate(90 352)" fill="#f55"/>
    </g>
  </g>
</svg>
