<svg xmlns="http://www.w3.org/2000/svg" width="60.929" height="60" viewBox="0 0 60.929 60">
  <g id="iconfinder_finance-money-dollar-03_4057997" transform="translate(-27.4 -19)">
    <path id="Path_1" data-name="Path 1" d="M129.6,252.208a4.9,4.9,0,1,0-4.9-4.9A4.908,4.908,0,0,0,129.6,252.208Zm0-7.929a3.032,3.032,0,1,1-3.038,3.025A3.046,3.046,0,0,1,129.6,244.279Z" transform="translate(-84.333 -195.396)" fill="#ff5858"/>
    <path id="Path_2" data-name="Path 2" d="M28.373,63.9l5.491-.253a20.81,20.81,0,0,0,3.318,5.7L34.65,76.089a2.087,2.087,0,0,0,.28,1.987A2.32,2.32,0,0,0,36.8,79h4.851a2.312,2.312,0,0,0,2.159-1.443l.866-2.3a23.537,23.537,0,0,0,20.47,0l.866,2.3A2.286,2.286,0,0,0,68.166,79h4.851a2.3,2.3,0,0,0,1.866-.924,2.087,2.087,0,0,0,.28-1.987l-2.545-6.747a20.918,20.918,0,0,0,4.118-8.266,4.06,4.06,0,1,0,.293-8.114,20.67,20.67,0,0,0-3.372-8.291c6.717-.759,11.954-6.2,11.954-12.785C85.624,24.785,79.534,19,72.057,19S58.5,24.785,58.5,31.886a12.346,12.346,0,0,0,.506,3.506,23.283,23.283,0,0,0-4.091-.354,23.611,23.611,0,0,0-5.744.709,14.464,14.464,0,0,0-11.234-2.418,18.148,18.148,0,0,0-5.531,1.949.852.852,0,0,0-.426.646.87.87,0,0,0,.267.722l5.877,5.582a20.829,20.829,0,0,0-4.251,6.759l-5.491-.253a.983.983,0,0,0-.693.241.87.87,0,0,0-.293.646V63.013a.891.891,0,0,0,.293.646A.93.93,0,0,0,28.373,63.9ZM79.12,57.013a2.347,2.347,0,0,1-2,2.266c0-.038.013-.076.013-.127.027-.165.04-.329.067-.494.013-.076.013-.152.027-.228.027-.19.04-.38.053-.582,0-.051.013-.114.013-.165.013-.177.027-.342.027-.519a1.308,1.308,0,0,1,.013-.228c0-.177.013-.367.013-.544v-.253c0-.177,0-.342-.013-.519,0-.1-.013-.2-.013-.3,0-.139-.013-.266-.027-.405a.41.41,0,0,0-.013-.127A2.322,2.322,0,0,1,79.12,57.013Zm-7.063-36.24c6.45,0,11.7,4.987,11.7,11.114,0,6.025-5.077,10.937-11.368,11.1-.093-.114-.187-.215-.28-.329A.5.5,0,0,1,72,42.532c-.053-.063-.12-.127-.173-.2-.04-.051-.093-.089-.133-.139s-.107-.114-.16-.177a.746.746,0,0,0-.147-.139c-.053-.051-.107-.114-.16-.165a1.483,1.483,0,0,0-.147-.139,1.99,1.99,0,0,1-.16-.165l-.147-.139-.16-.152a1.571,1.571,0,0,0-.16-.139,1.435,1.435,0,0,0-.147-.127A10.09,10.09,0,0,0,72.071,41a9.375,9.375,0,0,0,9.6-9.114,9.608,9.608,0,0,0-19.19,0,8.68,8.68,0,0,0,1.573,4.987c-.067-.025-.133-.063-.2-.089s-.12-.051-.187-.076-.147-.063-.227-.089-.12-.051-.187-.076-.16-.063-.227-.089a1.082,1.082,0,0,0-.187-.063,1.838,1.838,0,0,1-.24-.089c-.053-.025-.12-.038-.173-.063-.08-.025-.173-.063-.267-.089-.053-.013-.107-.038-.16-.051a2.792,2.792,0,0,0-.306-.089l-.12-.038c-.133-.038-.28-.076-.426-.114a10.437,10.437,0,0,1-.773-3.987C60.37,25.759,65.621,20.772,72.057,20.772ZM64.328,31.886a7.74,7.74,0,0,1,15.459,0,7.74,7.74,0,0,1-15.459,0ZM29.266,50.544l5.211.241a.932.932,0,0,0,.933-.608,19.408,19.408,0,0,1,4.678-7.367.859.859,0,0,0-.013-1.241l-5.61-5.329c2.4-1.063,8.476-3.025,13.913,1.152a.992.992,0,0,0,.84.165,21.461,21.461,0,0,1,5.69-.759,21.162,21.162,0,0,1,5.291.658c.546.139,1.079.291,1.6.468.267.089.52.19.786.278.133.051.253.1.386.152.173.063.333.139.506.215a20.814,20.814,0,0,1,6.037,4.025,21.968,21.968,0,0,1,1.666,1.81h0A18.924,18.924,0,0,1,75.3,53.962a19.561,19.561,0,0,1,.147,2.342,18.5,18.5,0,0,1-.36,3.646h0a19.1,19.1,0,0,1-4.238,8.658.881.881,0,0,0-.16.861L73.4,76.684a.361.361,0,0,1-.053.367.442.442,0,0,1-.346.177H68.153a.429.429,0,0,1-.4-.266l-1.239-3.278a.877.877,0,0,0-.56-.532.939.939,0,0,0-.32-.051,1.013,1.013,0,0,0-.466.114,21.455,21.455,0,0,1-20.55,0,1,1,0,0,0-.786-.063.908.908,0,0,0-.56.532l-1.239,3.278a.4.4,0,0,1-.4.266H36.809a.437.437,0,0,1-.346-.165.354.354,0,0,1-.053-.367l2.719-7.215a.85.85,0,0,0-.16-.861,18.854,18.854,0,0,1-3.558-6.177.932.932,0,0,0-.933-.608l-5.211.241Z" fill="#ff5858"/>
    <path id="Path_3" data-name="Path 3" d="M340.5,88.921v-.786c1.666-.16,2.8-1.119,2.8-2.572,0-1.413-.853-2.212-2.852-2.705V80.326a5.121,5.121,0,0,1,1.359.573.771.771,0,0,0,.4.12.72.72,0,0,0,.733-.72.693.693,0,0,0-.4-.626,4.724,4.724,0,0,0-2.039-.72V78.66a.558.558,0,0,0-.573-.56.566.566,0,0,0-.573.56v.28c-1.639.133-2.759,1.106-2.759,2.519a2.266,2.266,0,0,0,.453,1.466,4.186,4.186,0,0,0,2.359,1.239v2.585a4.762,4.762,0,0,1-1.946-.88.727.727,0,0,0-.44-.147.722.722,0,0,0-.36,1.346,5.74,5.74,0,0,0,2.692,1.026v.813a.573.573,0,0,0,1.146.013Zm-.053-4.518c1.013.32,1.306.666,1.306,1.253,0,.626-.466,1.053-1.306,1.146Zm-1.039-1.826a5.382,5.382,0,0,1-.52-.2h0a1.042,1.042,0,0,1-.733-1.026c0-.573.426-1.026,1.266-1.106v2.332Z" transform="translate(-267.734 -51.224)" fill="#ff5858"/>
    <path id="Path_4" data-name="Path 4" d="M175.045,58.589a3.945,3.945,0,1,0-3.945-3.945A3.953,3.953,0,0,0,175.045,58.589Zm0-6.024a2.079,2.079,0,1,1-2.079,2.079A2.082,2.082,0,0,1,175.045,52.566Z" transform="translate(-124.55 -27.475)" fill="#ff5858"/>
    <path id="Path_5" data-name="Path 5" d="M423.6,225.665a4.065,4.065,0,1,0,4.065-4.065A4.072,4.072,0,0,0,423.6,225.665Zm6.264,0a2.2,2.2,0,1,1-2.2-2.2A2.2,2.2,0,0,1,429.864,225.665Z" transform="translate(-343.4 -177.154)" fill="#ff5858"/>
  </g>
</svg>
