<svg xmlns="http://www.w3.org/2000/svg" width="89" height="60" viewBox="0 0 89 60">
  <g id="iconfinder_OUTLINE_Bussiness_and_Media-02_4041193" transform="translate(-58.4 -198)">
    <path id="Path_6" data-name="Path 6" d="M147.4,225.038,135.584,198l-12.808,5.923.857,1.974a18.216,18.216,0,0,1-8.771.6,18.284,18.284,0,0,0-5.953,0,18.041,18.041,0,0,0-4.577,1.417,15.2,15.2,0,0,0-1.984,1.092l-5.7,2.88A20.453,20.453,0,0,0,94,211.566a18.713,18.713,0,0,1-8.569-2.439l1.218-1.719-11.432-8.455L58.4,223.017l11.387,8.455L71,229.754a19.4,19.4,0,0,1,4.961,7.6c.09.256.18.488.293.743l-1.443,2.044a4.727,4.727,0,0,0,1.015,6.458,4.4,4.4,0,0,0,2.12.836c0,.232.023.465.045.7a4.769,4.769,0,0,0,1.8,3.02,4.341,4.341,0,0,0,2.616.883,2.125,2.125,0,0,0,.383-.023,4.556,4.556,0,0,0,1.736,2.648,4.441,4.441,0,0,0,2.616.883,4.111,4.111,0,0,0,1.4-.232,4.48,4.48,0,0,0,1.443,1.812,4.341,4.341,0,0,0,2.616.883,3.627,3.627,0,0,0,.722-.07,4.48,4.48,0,0,0,2.931-1.858l.9-1.3,4.307,2.555A4.712,4.712,0,0,0,103.9,258a4.569,4.569,0,0,0,3.518-1.626,5.089,5.089,0,0,0,1.037-2.067,5.5,5.5,0,0,0,2.751.209,5.694,5.694,0,0,0,3.766-2.416,6.116,6.116,0,0,0,1.06-2.88,5.557,5.557,0,0,0-.023-1.37,5.668,5.668,0,0,0,4.126-2.114,6.012,6.012,0,0,0,1.33-3.81,3.574,3.574,0,0,0,.992-.07,4.614,4.614,0,0,0,3.044-1.951,6.423,6.423,0,0,0,1.1-3,.406.406,0,0,1,.023-.163c.316-.418.609-.859.879-1.3a19.065,19.065,0,0,1,6.246-6.365l.834,1.882Zm-4.172-1.626-7.035,3.252-9.222-21.115,7.035-3.252ZM75.943,203.505l6.269,4.646L69.855,225.8l-.789,1.138L62.8,222.3Zm1.443,38.537,1.962-2.811.113-.163a1.316,1.316,0,0,1,.158-.186h0c.068-.046.113-.116.18-.139a.022.022,0,0,0,.023-.023c.068-.046.135-.07.2-.116h.023c.068-.023.158-.046.248-.07h.023c.045,0,.113-.023.158-.023h.045a.373.373,0,0,1,.158.023h.068c.045,0,.09.023.135.023.023,0,.023,0,.045.023.045.023.113.046.158.07.023,0,.023.023.045.023.045.023.113.07.158.093a1.345,1.345,0,0,1,.541,1.069v.186c0,.07-.023.139-.023.186a1.7,1.7,0,0,1-.2.465l-2.074,2.973a1.3,1.3,0,0,1-1.849.3A1.4,1.4,0,0,1,77.386,242.042ZM81.67,248.5a1.4,1.4,0,0,1-.541-.883,1.36,1.36,0,0,1,.225-1.022L86,239.951a1.348,1.348,0,0,1,.857-.557c.068,0,.135-.023.2-.023h.023a.483.483,0,0,1,.18.023h.023a.409.409,0,0,1,.158.046h.023a1.084,1.084,0,0,1,.158.07c.023,0,.023.023.045.023.045.023.113.07.158.093a1.4,1.4,0,0,1,.541.883,1.027,1.027,0,0,1,0,.372.733.733,0,0,1-.068.3c0,.023,0,.046-.023.046-.023.023-.023.07-.045.093,0,.023-.023.046-.023.07a.178.178,0,0,0-.045.093c-.023.023-.023.046-.045.07h0L83.474,248.2a1.348,1.348,0,0,1-.857.557A1.194,1.194,0,0,1,81.67,248.5Zm4.713,3.508a1.4,1.4,0,0,1-.541-.883,1.36,1.36,0,0,1,.225-1.022l4.645-6.643h0a1.155,1.155,0,0,1,.158-.186l.045-.046a1.256,1.256,0,0,1,.18-.139c.023,0,.023-.023.045-.023a1.322,1.322,0,0,1,.18-.093c.023,0,.023,0,.045-.023.068-.023.135-.046.225-.07a.081.081,0,0,0,.068-.023h.18a.428.428,0,0,1,.18.023h.023a.518.518,0,0,1,.18.046h.023c.068.023.113.046.18.07a.022.022,0,0,1,.023.023c.045.023.113.07.158.093a1.454,1.454,0,0,1,.541,1.069v.186l-.068.348h0c0,.023-.023.023-.023.046l-.135.279-4.645,6.643A1.349,1.349,0,0,1,86.383,252.007Zm6.449,2.695a1.26,1.26,0,0,1-.992-.232,1.4,1.4,0,0,1-.541-.883,1.36,1.36,0,0,1,.225-1.022l2.074-2.973h0c.023-.046.068-.07.09-.093l.09-.093c.023-.023.068-.046.113-.093.023-.023.068-.046.09-.07l.135-.07c.023-.023.068-.023.09-.046.09-.023.158-.046.248-.07.068,0,.135-.023.2-.023H94.7a.483.483,0,0,1,.18.023h.045a.409.409,0,0,1,.158.046h.023c.045.023.113.046.158.07.023,0,.023.023.045.023.045.023.113.07.158.093a1.4,1.4,0,0,1,.541,1.254,1.53,1.53,0,0,1-.248.674l-2.074,2.973A1.322,1.322,0,0,1,92.832,254.7Zm30.644-18.118a2.915,2.915,0,0,1-.519,1.417,1.5,1.5,0,0,1-.992.627,1.4,1.4,0,0,1-1.127-.279l-1.759-1.3h0l-3.45-2.555a1.559,1.559,0,0,0-2.21.372,1.669,1.669,0,0,0,.361,2.276l3.45,2.555h0a2.852,2.852,0,0,1,1.082,1.858,2.816,2.816,0,0,1-.586,2.091,2.705,2.705,0,0,1-3.7.395l-.338-.256-.023-.023h0l-4.262-3.159a1.559,1.559,0,0,0-2.21.372,1.669,1.669,0,0,0,.361,2.276l4.262,3.159h0a2.787,2.787,0,0,1,1.06,2.485,2.663,2.663,0,0,1-2.187,2.393,2.482,2.482,0,0,1-1.962-.488l-2.074-1.533a.022.022,0,0,1-.023-.023l-4.036-3a1.559,1.559,0,0,0-2.21.372,1.669,1.669,0,0,0,.361,2.276l4.036,3h0a1.491,1.491,0,0,1,.609,1.092,1.729,1.729,0,0,1-.361,1.231,1.555,1.555,0,0,1-2.007.256L98.9,252.03h0c.023-.07.045-.116.068-.186,0-.023.023-.07.023-.093a.7.7,0,0,0,.045-.209c0-.023.023-.046.023-.07.023-.07.023-.163.045-.232a.087.087,0,0,1,.023-.07c.023-.093.023-.209.045-.3a4.7,4.7,0,0,0-1.849-4.228,2.931,2.931,0,0,0-.338-.232c-.045-.023-.068-.046-.113-.07-.09-.046-.158-.093-.248-.139l-.135-.07a1.08,1.08,0,0,0-.248-.093.314.314,0,0,0-.135-.046c-.023,0-.068-.023-.09-.023v-.023c.023-.046.045-.116.068-.163s.023-.07.045-.116a.56.56,0,0,0,.045-.186c0-.046.023-.07.023-.116.023-.07.023-.139.045-.209,0-.023.023-.07.023-.093.023-.093.023-.209.045-.3h0a4.7,4.7,0,0,0-1.849-4.228,3.143,3.143,0,0,0-.361-.232c-.045-.023-.068-.046-.113-.07l-.271-.139c-.045-.023-.068-.023-.113-.046-.09-.046-.18-.07-.293-.116-.045-.023-.068-.023-.113-.046-.113-.023-.2-.07-.316-.093-.023,0-.068-.023-.09-.023l-.338-.07h-.068a1.883,1.883,0,0,0-.361-.023H91.5c0-.023-.023-.046-.023-.07l-.068-.279c0-.046-.023-.07-.045-.116a1.446,1.446,0,0,0-.113-.279c0-.023-.023-.046-.023-.07a2.151,2.151,0,0,0-.158-.325c-.023-.023-.023-.046-.045-.093-.045-.07-.09-.163-.135-.232-.023-.023-.045-.07-.068-.093a2.432,2.432,0,0,0-.18-.256l-.023-.023c-.068-.093-.158-.186-.225-.279l-.068-.07a1.471,1.471,0,0,0-.2-.186.312.312,0,0,0-.09-.07,3.331,3.331,0,0,0-.293-.232,4.314,4.314,0,0,0-3.337-.813,1.863,1.863,0,0,0-.383.093c-.023,0-.068.023-.09.023a1.943,1.943,0,0,0-.338.116c-.023,0-.023,0-.045.023a2.471,2.471,0,0,0-.361.163c-.023.023-.068.023-.09.046-.09.046-.2.116-.293.163a.081.081,0,0,1-.068.023,2.737,2.737,0,0,0-.316.232l-.068.07c-.045.023-.068.07-.113.093h0l-.2-.279-.068-.07a1.317,1.317,0,0,0-.158-.186l-.09-.093a1.14,1.14,0,0,0-.18-.163.313.313,0,0,0-.09-.07l-.271-.209a2.674,2.674,0,0,0-.338-.209c-.023-.023-.068-.046-.09-.07l-.271-.139c-.023-.023-.068-.023-.09-.046-.113-.046-.2-.093-.316-.139a.409.409,0,0,0-.158-.046.518.518,0,0,0-.18-.046c-.09-.023-.2-.046-.293-.07a.483.483,0,0,0-.18-.023c-.068,0-.135-.023-.2-.023a.373.373,0,0,1-.158-.023h-.519a.483.483,0,0,0-.18.023c-.09,0-.18.023-.248.023h-.09a.081.081,0,0,0-.068.023c-.09.023-.18.046-.293.07-.045.023-.113.023-.158.046a.793.793,0,0,0-.248.093l-.2.07a1.083,1.083,0,0,1-.158.07,22.279,22.279,0,0,0-5.863-8.548l10.711-15.308a20.444,20.444,0,0,0,7.013,2.671L89.247,228.29a3.727,3.727,0,0,0,3.247,4.112,6.833,6.833,0,0,0,5.119-1.58,7.313,7.313,0,0,0,2.548-4.855l.361-3.6a10.86,10.86,0,0,0,5.186-1.58l16.709,13.287c.113.093.18.163.248.209l.023.023.09.093.045.046c.023.023.023.046.045.046l.045.046.068.07.135.209a.956.956,0,0,1,.135.256l.023.046c.023.046.045.07.045.116a.337.337,0,0,1,.045.139c.023.046.023.093.045.139l.045.139c.023.116.045.232.068.325v.046a.3.3,0,0,0,.023.139v.023h0v.116h0c-.045.046-.045.163-.068.279Zm2.052-3.9-.023-.046h0a2.239,2.239,0,0,0-.158-.209.023.023,0,0,0-.023-.023.32.32,0,0,1-.068-.093l-.045-.046c-.045-.046-.068-.093-.113-.139a2.161,2.161,0,0,0-.225-.232h0l-.068-.07-.045-.046-.045-.046c-.113-.093-.225-.209-.383-.325l-18.58-14.774-.97.743a7.763,7.763,0,0,1-5.57,1.6l-1.578-.163-.654,6.713a4.071,4.071,0,0,1-1.4,2.671,3.679,3.679,0,0,1-2.819.859.488.488,0,0,1-.428-.534l1.127-11.405,8.072-4.088h0l2.232-1.138.135-.07a13.87,13.87,0,0,1,1.714-.929,14.952,14.952,0,0,1,3.788-1.185,14.685,14.685,0,0,1,4.938,0,21.305,21.305,0,0,0,10.575-.813l7.509,17.213A21.848,21.848,0,0,0,125.528,232.681Z" fill="#43cb1c"/>
    <path id="Path_8" data-name="Path 8" d="M403.866,296c.09,0,.158.023.248.023a2.282,2.282,0,0,0,1.466-.519,2.4,2.4,0,0,0,.857-1.578,2.235,2.235,0,0,0-.519-1.714,2.4,2.4,0,0,0-1.578-.857,2.235,2.235,0,0,0-1.714.519,2.4,2.4,0,0,0-.857,1.578A2.347,2.347,0,0,0,403.866,296Zm-.519-2.39a.783.783,0,0,1,.271-.519.728.728,0,0,1,.474-.18h.068a.783.783,0,0,1,.519.271.727.727,0,0,1,.158.564h0a.782.782,0,0,1-.271.519.727.727,0,0,1-.564.158A.755.755,0,0,1,403.347,293.607Z" transform="translate(-265.936 -71.602)" fill="#43cb1c"/>
    <path id="Path_9" data-name="Path 9" d="M94.223,292.123h0a2.35,2.35,0,0,0-2.1-2.571,2.235,2.235,0,0,0-1.714.519,2.4,2.4,0,0,0-.857,1.578,2.35,2.35,0,0,0,2.1,2.571c.09,0,.158.023.248.023A2.364,2.364,0,0,0,94.223,292.123Zm-3.067-.316a.783.783,0,0,1,.271-.519.728.728,0,0,1,.474-.18h.068a.759.759,0,0,1-.158,1.511A.711.711,0,0,1,91.157,291.807Z" transform="translate(-24.121 -70.22)" fill="#43cb1c"/>
  </g>
</svg>
