<svg xmlns="http://www.w3.org/2000/svg" width="80.663" height="70.91" viewBox="0 0 80.663 70.91">
  <defs>
    <style>
      .cls-1 {
        fill: #43cb1c;
      }

      .cls-2 {
        fill: none;
        stroke: #43cb1c;
        stroke-linecap: round;
        stroke-linejoin: bevel;
        stroke-width: 2px;
      }
    </style>
  </defs>
  <g id="lego-big" transform="translate(534.438 -4084)">
    <g id="Group_42" data-name="Group 42" transform="translate(-534 4084)">
      <g id="lego" transform="translate(20.164)">
        <g id="Lego_Square">
          <g id="Group_36" data-name="Group 36" transform="translate(15.538 10.783)">
            <path id="Path_15" data-name="Path 15" class="cls-1" d="M24.183,15.672c2.414,0,4.235-1.051,4.235-2.444s-1.821-2.445-4.235-2.445-4.233,1.051-4.233,2.445S21.769,15.672,24.183,15.672Zm0-3.389c1.7,0,2.735.657,2.735.945s-1.033.944-2.735.944-2.733-.656-2.733-.944S22.407,12.283,24.183,12.283Z" transform="translate(-19.95 -10.783)"/>
            <path id="Path_16" data-name="Path 16" class="cls-1" d="M24.183,20.325c2.414,0,4.235-1.051,4.235-2.445V13.229a.75.75,0,0,0-1.5,0V17.88c0,.289-1.033.945-2.735.945-1.776,0-2.733-.671-2.733-.945V13.229a.75.75,0,1,0-1.5,0V17.88C19.95,19.274,21.769,20.325,24.183,20.325Z" transform="translate(-19.95 -10.783)"/>
          </g>
          <g id="Group_37" data-name="Group 37" transform="translate(5.865 5.423)">
            <path id="Path_17" data-name="Path 17" class="cls-1" d="M33.856,10.312c2.415,0,4.235-1.05,4.235-2.443s-1.82-2.446-4.235-2.446-4.235,1.051-4.235,2.446S31.441,10.312,33.856,10.312Zm0-3.39c1.7,0,2.735.657,2.735.946s-1.033.943-2.735.943-2.735-.655-2.735-.943S32.079,6.922,33.856,6.922Z" transform="translate(-29.621 -5.423)"/>
            <path id="Path_18" data-name="Path 18" class="cls-1" d="M33.856,14.964c2.415,0,4.235-1.051,4.235-2.445V7.868a.75.75,0,0,0-1.5,0v4.651c0,.289-1.033.945-2.735.945-1.776,0-2.735-.671-2.735-.945V7.868a.75.75,0,0,0-1.5,0v4.651C29.62,13.913,31.441,14.964,33.856,14.964Z" transform="translate(-29.621 -5.423)"/>
          </g>
          <g id="Group_38" data-name="Group 38" transform="translate(25.355 5.441)">
            <path id="Path_19" data-name="Path 19" class="cls-1" d="M14.366,10.329c2.414,0,4.235-1.05,4.235-2.443S16.78,5.441,14.366,5.441s-4.234,1.051-4.234,2.445S11.952,10.329,14.366,10.329Zm0-3.388c1.776,0,2.735.671,2.735.945s-1.033.943-2.735.943-2.734-.655-2.734-.943S12.59,6.941,14.366,6.941Z" transform="translate(-10.132 -5.441)"/>
            <path id="Path_20" data-name="Path 20" class="cls-1" d="M14.366,14.982c2.414,0,4.235-1.051,4.235-2.445V7.886a.75.75,0,0,0-1.5,0v4.651c0,.274-.959.945-2.735.945s-2.734-.671-2.734-.945V7.886a.75.75,0,0,0-1.5,0v4.651C10.132,13.931,11.952,14.982,14.366,14.982Z" transform="translate(-10.132 -5.441)"/>
          </g>
          <g id="Group_39" data-name="Group 39" transform="translate(15.472)">
            <path id="Path_21" data-name="Path 21" class="cls-1" d="M24.248,4.889c2.415,0,4.236-1.05,4.236-2.443S26.663,0,24.248,0s-4.234,1.051-4.234,2.446S21.832,4.889,24.248,4.889Zm0-3.389c1.7,0,2.736.657,2.736.946s-1.034.943-2.736.943-2.734-.655-2.734-.943S22.471,1.5,24.248,1.5Z" transform="translate(-20.014)"/>
            <path id="Path_22" data-name="Path 22" class="cls-1" d="M24.248,9.542c2.415,0,4.236-1.051,4.236-2.445V2.446a.75.75,0,0,0-1.5,0V7.1c0,.289-1.034.945-2.736.945s-2.734-.656-2.734-.945V2.446a.75.75,0,0,0-1.5,0V7.1C20.013,8.491,21.832,9.542,24.248,9.542Z" transform="translate(-20.014)"/>
          </g>
          <g id="Group_40" data-name="Group 40" transform="translate(0 4.138)">
            <path id="Path_26" data-name="Path 26" class="cls-1" d="M28.115,7.714a.993.993,0,0,0,.458-.112L31.06,6.317a1,1,0,1,0-.918-1.776L27.655,5.826a1,1,0,0,0,.46,1.888Z" transform="translate(-14.825 -4.138)"/>
            <path id="Path_30" data-name="Path 30" class="cls-1" d="M28.115,7.714a.993.993,0,0,0,.458-.112L31.06,6.317a1,1,0,1,0-.918-1.776L27.655,5.826a1,1,0,0,0,.46,1.888Z" transform="translate(-24.825 1.862)"/>
            <path id="Path_27" data-name="Path 27" class="cls-1" d="M9.686,14.1Z" transform="translate(28.857 -4.138)"/>
            <path id="Path_28" data-name="Path 28" class="cls-1" d="M20.359,7.548a1,1,0,0,0,.459-1.889l-2.736-1.41a1,1,0,0,0-.916,1.778L19.9,7.437A1,1,0,0,0,20.359,7.548Z" transform="translate(6.383 -4.138)"/>
            <path id="Path_31" data-name="Path 31" class="cls-1" d="M20.359,7.548a1,1,0,0,0,.459-1.889l-2.736-1.41a1,1,0,0,0-.916,1.778L19.9,7.437A1,1,0,0,0,20.359,7.548Z" transform="translate(16.383 0.862)"/>
            <path id="Path_32" data-name="Path 32" class="cls-2" d="M-19.6,20.549V42.674l38,22.375.625-23.625Z"/>
          </g>
        </g>
      </g>
      <g id="lego-2" data-name="lego" transform="translate(0 11)">
        <g id="Lego_Square-2" data-name="Lego_Square">
          <g id="Group_36-2" data-name="Group 36" transform="translate(15.702 10.783)">
            <path id="Path_15-2" data-name="Path 15" class="cls-1" d="M24.183,15.672c2.414,0,4.235-1.051,4.235-2.444s-1.821-2.445-4.235-2.445-4.233,1.051-4.233,2.445S21.769,15.672,24.183,15.672Zm0-3.389c1.7,0,2.735.657,2.735.945s-1.033.944-2.735.944-2.733-.656-2.733-.944S22.407,12.283,24.183,12.283Z" transform="translate(-19.95 -10.783)"/>
            <path id="Path_16-2" data-name="Path 16" class="cls-1" d="M24.183,20.325c2.414,0,4.235-1.051,4.235-2.445V13.229a.75.75,0,0,0-1.5,0V17.88c0,.289-1.033.945-2.735.945-1.776,0-2.733-.671-2.733-.945V13.229a.75.75,0,1,0-1.5,0V17.88C19.95,19.274,21.769,20.325,24.183,20.325Z" transform="translate(-19.95 -10.783)"/>
          </g>
          <g id="Group_37-2" data-name="Group 37" transform="translate(6.029 5.423)">
            <path id="Path_17-2" data-name="Path 17" class="cls-1" d="M33.856,10.312c2.415,0,4.235-1.05,4.235-2.443s-1.82-2.446-4.235-2.446-4.235,1.051-4.235,2.446S31.441,10.312,33.856,10.312Zm0-3.39c1.7,0,2.735.657,2.735.946s-1.033.943-2.735.943-2.735-.655-2.735-.943S32.079,6.922,33.856,6.922Z" transform="translate(-29.621 -5.423)"/>
            <path id="Path_18-2" data-name="Path 18" class="cls-1" d="M33.856,14.964c2.415,0,4.235-1.051,4.235-2.445V7.868a.75.75,0,0,0-1.5,0v4.651c0,.289-1.033.945-2.735.945-1.776,0-2.735-.671-2.735-.945V7.868a.75.75,0,0,0-1.5,0v4.651C29.62,13.913,31.441,14.964,33.856,14.964Z" transform="translate(-29.621 -5.423)"/>
          </g>
          <g id="Group_38-2" data-name="Group 38" transform="translate(25.519 5.441)">
            <path id="Path_19-2" data-name="Path 19" class="cls-1" d="M14.366,10.329c2.414,0,4.235-1.05,4.235-2.443S16.78,5.441,14.366,5.441s-4.234,1.051-4.234,2.445S11.952,10.329,14.366,10.329Zm0-3.388c1.776,0,2.735.671,2.735.945s-1.033.943-2.735.943-2.734-.655-2.734-.943S12.59,6.941,14.366,6.941Z" transform="translate(-10.132 -5.441)"/>
            <path id="Path_20-2" data-name="Path 20" class="cls-1" d="M14.366,14.982c2.414,0,4.235-1.051,4.235-2.445V7.886a.75.75,0,0,0-1.5,0v4.651c0,.274-.959.945-2.735.945s-2.734-.671-2.734-.945V7.886a.75.75,0,0,0-1.5,0v4.651C10.132,13.931,11.952,14.982,14.366,14.982Z" transform="translate(-10.132 -5.441)"/>
          </g>
          <g id="Group_39-2" data-name="Group 39" transform="translate(15.636)">
            <path id="Path_21-2" data-name="Path 21" class="cls-1" d="M24.248,4.889c2.415,0,4.236-1.05,4.236-2.443S26.663,0,24.248,0s-4.234,1.051-4.234,2.446S21.832,4.889,24.248,4.889Zm0-3.389c1.7,0,2.736.657,2.736.946s-1.034.943-2.736.943-2.734-.655-2.734-.943S22.471,1.5,24.248,1.5Z" transform="translate(-20.014)"/>
            <path id="Path_22-2" data-name="Path 22" class="cls-1" d="M24.248,9.542c2.415,0,4.236-1.051,4.236-2.445V2.446a.75.75,0,0,0-1.5,0V7.1c0,.289-1.034.945-2.736.945s-2.734-.656-2.734-.945V2.446a.75.75,0,0,0-1.5,0V7.1C20.013,8.491,21.832,9.542,24.248,9.542Z" transform="translate(-20.014)"/>
          </g>
          <g id="Group_40-2" data-name="Group 40" transform="translate(0 4.429)">
            <path id="Path_25" data-name="Path 25" class="cls-1" d="M37.684,14.223a1.009,1.009,0,0,0,.477-.121l5.229-2.84A1,1,0,0,0,42.435,9.5l-5.229,2.84a1,1,0,0,0,.478,1.878Z" transform="translate(-36.476 -4.429)"/>
            <path id="Path_26-2" data-name="Path 26" class="cls-1" d="M28.115,7.714a.993.993,0,0,0,.458-.112L31.06,6.317a1,1,0,1,0-.918-1.776L27.655,5.826a1,1,0,0,0,.46,1.888Z" transform="translate(-14.595 -4.429)"/>
          </g>
        </g>
      </g>
    </g>
    <g id="Group_43" data-name="Group 43" transform="translate(-515 4095)">
      <g id="lego-3" data-name="lego" transform="translate(20.164)">
        <g id="Lego_Square-3" data-name="Lego_Square">
          <g id="Group_36-3" data-name="Group 36" transform="translate(15.538 10.783)">
            <path id="Path_15-3" data-name="Path 15" class="cls-1" d="M24.183,15.672c2.414,0,4.235-1.051,4.235-2.444s-1.821-2.445-4.235-2.445-4.233,1.051-4.233,2.445S21.769,15.672,24.183,15.672Zm0-3.389c1.7,0,2.735.657,2.735.945s-1.033.944-2.735.944-2.733-.656-2.733-.944S22.407,12.283,24.183,12.283Z" transform="translate(-19.95 -10.783)"/>
            <path id="Path_16-3" data-name="Path 16" class="cls-1" d="M24.183,20.325c2.414,0,4.235-1.051,4.235-2.445V13.229a.75.75,0,0,0-1.5,0V17.88c0,.289-1.033.945-2.735.945-1.776,0-2.733-.671-2.733-.945V13.229a.75.75,0,1,0-1.5,0V17.88C19.95,19.274,21.769,20.325,24.183,20.325Z" transform="translate(-19.95 -10.783)"/>
          </g>
          <g id="Group_37-3" data-name="Group 37" transform="translate(5.865 5.423)">
            <path id="Path_17-3" data-name="Path 17" class="cls-1" d="M33.856,10.312c2.415,0,4.235-1.05,4.235-2.443s-1.82-2.446-4.235-2.446-4.235,1.051-4.235,2.446S31.441,10.312,33.856,10.312Zm0-3.39c1.7,0,2.735.657,2.735.946s-1.033.943-2.735.943-2.735-.655-2.735-.943S32.079,6.922,33.856,6.922Z" transform="translate(-29.621 -5.423)"/>
            <path id="Path_18-3" data-name="Path 18" class="cls-1" d="M33.856,14.964c2.415,0,4.235-1.051,4.235-2.445V7.868a.75.75,0,0,0-1.5,0v4.651c0,.289-1.033.945-2.735.945-1.776,0-2.735-.671-2.735-.945V7.868a.75.75,0,0,0-1.5,0v4.651C29.62,13.913,31.441,14.964,33.856,14.964Z" transform="translate(-29.621 -5.423)"/>
          </g>
          <g id="Group_38-3" data-name="Group 38" transform="translate(25.355 5.441)">
            <path id="Path_19-3" data-name="Path 19" class="cls-1" d="M14.366,10.329c2.414,0,4.235-1.05,4.235-2.443S16.78,5.441,14.366,5.441s-4.234,1.051-4.234,2.445S11.952,10.329,14.366,10.329Zm0-3.388c1.776,0,2.735.671,2.735.945s-1.033.943-2.735.943-2.734-.655-2.734-.943S12.59,6.941,14.366,6.941Z" transform="translate(-10.132 -5.441)"/>
            <path id="Path_20-3" data-name="Path 20" class="cls-1" d="M14.366,14.982c2.414,0,4.235-1.051,4.235-2.445V7.886a.75.75,0,0,0-1.5,0v4.651c0,.274-.959.945-2.735.945s-2.734-.671-2.734-.945V7.886a.75.75,0,0,0-1.5,0v4.651C10.132,13.931,11.952,14.982,14.366,14.982Z" transform="translate(-10.132 -5.441)"/>
          </g>
          <g id="Group_39-3" data-name="Group 39" transform="translate(15.472)">
            <path id="Path_21-3" data-name="Path 21" class="cls-1" d="M24.248,4.889c2.415,0,4.236-1.05,4.236-2.443S26.663,0,24.248,0s-4.234,1.051-4.234,2.446S21.832,4.889,24.248,4.889Zm0-3.389c1.7,0,2.736.657,2.736.946s-1.034.943-2.736.943-2.734-.655-2.734-.943S22.471,1.5,24.248,1.5Z" transform="translate(-20.014)"/>
            <path id="Path_22-3" data-name="Path 22" class="cls-1" d="M24.248,9.542c2.415,0,4.236-1.051,4.236-2.445V2.446a.75.75,0,0,0-1.5,0V7.1c0,.289-1.034.945-2.736.945s-2.734-.656-2.734-.945V2.446a.75.75,0,0,0-1.5,0V7.1C20.013,8.491,21.832,9.542,24.248,9.542Z" transform="translate(-20.014)"/>
          </g>
          <g id="Group_40-3" data-name="Group 40" transform="translate(0 4.138)">
            <path id="Path_27-2" data-name="Path 27" class="cls-1" d="M10.162,14.223a1,1,0,0,0,.479-1.878L5.413,9.5a1,1,0,1,0-.955,1.755L9.686,14.1A.977.977,0,0,0,10.162,14.223Z" transform="translate(28.857 -4.138)"/>
            <path id="Path_28-2" data-name="Path 28" class="cls-1" d="M20.359,7.548a1,1,0,0,0,.459-1.889l-2.736-1.41a1,1,0,0,0-.916,1.778L19.9,7.437A1,1,0,0,0,20.359,7.548Z" transform="translate(6.383 -4.138)"/>
            <path id="Path_29" data-name="Path 29" class="cls-2" d="M44.523,13.424l.434,23.41L4.894,58.417V35.25Z" transform="translate(-4.894 -4.138)"/>
          </g>
        </g>
      </g>
      <g id="lego-4" data-name="lego" transform="translate(0 11)">
        <g id="Lego_Square-4" data-name="Lego_Square">
          <g id="Group_36-4" data-name="Group 36" transform="translate(15.702 10.783)">
            <path id="Path_15-4" data-name="Path 15" class="cls-1" d="M24.183,15.672c2.414,0,4.235-1.051,4.235-2.444s-1.821-2.445-4.235-2.445-4.233,1.051-4.233,2.445S21.769,15.672,24.183,15.672Zm0-3.389c1.7,0,2.735.657,2.735.945s-1.033.944-2.735.944-2.733-.656-2.733-.944S22.407,12.283,24.183,12.283Z" transform="translate(-19.95 -10.783)"/>
            <path id="Path_16-4" data-name="Path 16" class="cls-1" d="M24.183,20.325c2.414,0,4.235-1.051,4.235-2.445V13.229a.75.75,0,0,0-1.5,0V17.88c0,.289-1.033.945-2.735.945-1.776,0-2.733-.671-2.733-.945V13.229a.75.75,0,1,0-1.5,0V17.88C19.95,19.274,21.769,20.325,24.183,20.325Z" transform="translate(-19.95 -10.783)"/>
          </g>
          <g id="Group_37-4" data-name="Group 37" transform="translate(6.029 5.423)">
            <path id="Path_17-4" data-name="Path 17" class="cls-1" d="M33.856,10.312c2.415,0,4.235-1.05,4.235-2.443s-1.82-2.446-4.235-2.446-4.235,1.051-4.235,2.446S31.441,10.312,33.856,10.312Zm0-3.39c1.7,0,2.735.657,2.735.946s-1.033.943-2.735.943-2.735-.655-2.735-.943S32.079,6.922,33.856,6.922Z" transform="translate(-29.621 -5.423)"/>
            <path id="Path_18-4" data-name="Path 18" class="cls-1" d="M33.856,14.964c2.415,0,4.235-1.051,4.235-2.445V7.868a.75.75,0,0,0-1.5,0v4.651c0,.289-1.033.945-2.735.945-1.776,0-2.735-.671-2.735-.945V7.868a.75.75,0,0,0-1.5,0v4.651C29.62,13.913,31.441,14.964,33.856,14.964Z" transform="translate(-29.621 -5.423)"/>
          </g>
          <g id="Group_38-4" data-name="Group 38" transform="translate(25.519 5.441)">
            <path id="Path_19-4" data-name="Path 19" class="cls-1" d="M14.366,10.329c2.414,0,4.235-1.05,4.235-2.443S16.78,5.441,14.366,5.441s-4.234,1.051-4.234,2.445S11.952,10.329,14.366,10.329Zm0-3.388c1.776,0,2.735.671,2.735.945s-1.033.943-2.735.943-2.734-.655-2.734-.943S12.59,6.941,14.366,6.941Z" transform="translate(-10.132 -5.441)"/>
            <path id="Path_20-4" data-name="Path 20" class="cls-1" d="M14.366,14.982c2.414,0,4.235-1.051,4.235-2.445V7.886a.75.75,0,0,0-1.5,0v4.651c0,.274-.959.945-2.735.945s-2.734-.671-2.734-.945V7.886a.75.75,0,0,0-1.5,0v4.651C10.132,13.931,11.952,14.982,14.366,14.982Z" transform="translate(-10.132 -5.441)"/>
          </g>
          <g id="Group_39-4" data-name="Group 39" transform="translate(15.636)">
            <path id="Path_21-4" data-name="Path 21" class="cls-1" d="M24.248,4.889c2.415,0,4.236-1.05,4.236-2.443S26.663,0,24.248,0s-4.234,1.051-4.234,2.446S21.832,4.889,24.248,4.889Zm0-3.389c1.7,0,2.736.657,2.736.946s-1.034.943-2.736.943-2.734-.655-2.734-.943S22.471,1.5,24.248,1.5Z" transform="translate(-20.014)"/>
            <path id="Path_22-4" data-name="Path 22" class="cls-1" d="M24.248,9.542c2.415,0,4.236-1.051,4.236-2.445V2.446a.75.75,0,0,0-1.5,0V7.1c0,.289-1.034.945-2.736.945s-2.734-.656-2.734-.945V2.446a.75.75,0,0,0-1.5,0V7.1C20.013,8.491,21.832,9.542,24.248,9.542Z" transform="translate(-20.014)"/>
          </g>
        </g>
      </g>
    </g>
  </g>
</svg>
